<?xml version="1.0" encoding="utf-8"?>
<!-- Generator: Adobe Illustrator 26.0.0, SVG Export Plug-In . SVG Version: 6.00 Build 0)  -->
<svg version="1.1" xmlns="http://www.w3.org/2000/svg" xmlns:xlink="http://www.w3.org/1999/xlink" x="0px" y="0px"
	 viewBox="0 0 595.3 638.5" style="enable-background:new 0 0 595.3 638.5;" xml:space="preserve">
<style type="text/css">
	.st0{display:none;}
	.st1{display:inline;}
	.st2{fill:#BE0F01;}
	.st3{fill:#DBDBDC;}
	.st4{fill:#3973CC;}
	.st5{fill:#FDBC26;}
	.st6{fill:#CDC9CA;}
	.st7{fill:#FEFDFD;}
	.st8{fill:#FFFFFF;}
	.st9{font-family:'ArialMT';}
	.st10{font-size:16px;}
	.st11{font-size:20px;}
</style>
<g id="Capa_2" class="st0">
	<rect x="-28.1" y="-27.4" class="st1" width="689" height="747"/>
</g>
<g id="Capa_1">
	<path class="st2" d="M403.8,277.3c-3.5-2.2-6.7-4.8-9.5-7.8c-12.5-13-18.3-28.4-17.4-46.2c0.1-2.8,0.5-5.6,1.2-8.3
		c0.1-0.2,0.2-0.5,0.3-0.7l2.3-3.4c0.2-0.1,0.4-0.2,0.4-0.5c0,0,0.1,0,0.1-0.1c0,0,0,0,0,0c3.1-3.5,6.8-6.6,10.8-9.1
		c2.1-1.4,4.5-2.3,6.7-3.6c0.2-0.1,0.5-0.1,0.8-0.3c8-3.5,16.6-5.7,25.3-6.6c2.4-0.3,4.8-0.5,7.2-0.7c4.1,0,8.3,0,12.4,0.1
		c1.6-0.1,2.2,0.9,2.4,2.3c0,0.1,0.1,0.2,0.1,0.3c1.2,3.1,3.5,5.3,6.1,7.3c0.4,0.3,0.8,0.6,0.7,1.1l-3.3,4.9l-8,12
		c-2.5,3.3-4.7,6.7-6.9,10.1c-0.2,0.2-0.3,0.4-0.5,0.6c-2.4,3.5-4.7,7-7,10.5c-0.5,0.8-1.3,1.3-1.7,2c-1,2-2.4,3.8-3.5,5.7
		c-1.3,2.1-2.8,4.1-4.1,6.2c-2.1,3.3-4.2,6.5-6.3,9.8C409.2,268,406.2,272.5,403.8,277.3z"/>
	<path class="st3" d="M403.8,277.3c2.5-4.8,5.5-9.4,8.4-14c2.1-3.3,4.3-6.5,6.3-9.8c1.3-2.1,2.8-4.1,4.1-6.2
		c1.2-1.9,2.5-3.7,3.5-5.7c0.4-0.8,1.2-1.3,1.7-2c2.3-3.5,4.7-7,7-10.5c0.1-0.2,0.3-0.4,0.5-0.6c0.2,0.9,0.4,1.8,1.7,2
		c0.3,0,0.5,0.4,0.7,0.5c1,0.8,1.3,2.1,2.5,2.7c0.1,0.1,0.2,0.4,0.2,0.6c0.1,1.7,1.6,2.5,2.6,3.5c0.8,0.6,1.5,1.4,2,2.3
		c0.7,1.5,1.7,2.9,2.4,4.4c0.4,0.9,0.8,0.8,1.4,0.2c0.3-0.3,0.8-0.8,1.2-0.3c1.4,1.4,2.7,2.8,3.9,4.3c0.9,1.3,1.5,2.8,1.7,4.4
		c0,1.1,0.1,2.2,0.5,3.1c0.2,0.3,0,0.5-0.1,0.8c-0.6,1.7-2.2,2.4-3.5,3.5c-0.9,0.6-1.8,1.1-2.8,1.6c-1.2,0.7-1.7,2.3-0.9,3.5
		c0,0.1,0.1,0.1,0.1,0.2c0.4,0.6,0.5,1.3,0.4,2c-0.5,2.1-0.2,4.2-0.2,6.4c0,1.1-1.2,1.8-1.1,2.9c0,0-0.1,0.1-0.2,0.1
		c-0.4,0.1-0.9,0-0.8,0.6c0,0.5,0.3,0.9,0.7,1c0.7,0.2,0.7,0.8,0.5,1.3c-0.7,1.5,0.1,2.9,0.7,4.1c0.6,1.4,2,2.3,3.5,2.1
		c0.4-0.1,0.8,0.2,0.9,0.5c-2.8,0.7-5.6,1.2-8.4,1.4c-3,0.3-6,0.3-9,0.1c-2.5-0.1-4.9-0.5-7.4-0.8c-0.1-0.1-0.2-0.1-0.3-0.2
		c-5.1-0.9-10-2.4-14.7-4.4C410.1,281.4,406.8,279.6,403.8,277.3z"/>
	<path class="st3" d="M444.2,190.4c-4.1-0.2-8.3-0.2-12.4-0.1c-0.3-0.1-0.7,0-0.9-0.2c-0.5-0.9-1.5-1-2.3-1.3
		c-0.5-0.2-1.2-0.4-1.3-1.1c-0.1-0.4-0.4-0.7-0.8-0.8c-1.5-0.7-1.7-2.5-3.2-3.3c-0.1-0.1-0.1-0.3-0.2-0.5c-0.4-1.4-1.5-2.4-2.4-3.3
		s-1.2-2.4-1.9-3.6c-0.5-1-0.8-2.1-1-3.2c-0.1-0.9-0.6-1.1-1.4-1.1c-0.6,0.1-1.3-0.1-1.8-0.5c2.4-1.2,5-2.1,7.6-2.7
		c3.5-1,7.1-1.7,10.7-1.9c0.5,0.3,1.1,0.5,1.8,0.6c3.3,1,6.1,2.9,9,4.7c2,1.4,3.9,2.9,5.7,4.6c1,0.8,1.8,1.8,2.6,2.8
		c0.8,1.2,1.8,2.6,3.8,1.7c0.8-0.3,1.6-0.2,2.4,0.2c0.3,0.1,0.7,0.2,1,0.2c1.6,0.2,3.2,0.6,4.8,1.2c1.3,0.4,2.1,1.6,3.6,1.6
		c-0.4,0.6-0.7,1.4-1.6,1.4c-0.9,0-1.8-0.2-2.5-0.7c-0.3-0.2-0.6-0.4-1-0.2c-1.1,0.5-2.5,0.6-3.4,1.7c-0.6,0.6-0.8,1.4-0.3,1.9
		c1.1,1.4,2.4,2.5,4,3.3c2.3,1.1,5,1.1,7.2,2.4c0.2,0.1,0.6,0.4,0.9,0.1c0.2-0.3,0.3-0.7,0.1-1.1c-0.2-0.3-0.4-0.6-0.6-0.8
		c1,0.5,1.8,0.2,2.3,0.7c1.1,3.5,0,8.2-4.1,9.9c-0.6,0.3-0.8,0.5-0.4,1.1c4.8,8.7,8.3,18.1,10.5,27.8c0.3,1.3,0.5,2.6,0.7,3.9
		c0.2,1.5,0.5,3,0.7,4.6c0.3,1.7,0.2,3.4,0.5,5.1c0.5,3.9,0.5,7.9,0,11.8c0-1.4,0-2.8,0.1-4.2c0-0.3,0.1-0.6-0.2-0.8
		c-0.5-0.4-0.6-0.7,0.1-1.1c0.4-0.2,0.2-0.7-0.3-0.8s-0.6-0.5-0.6-0.9c0-1-0.2-2-0.7-2.9c-1-1.5-1.1-3.4-0.2-5
		c0.2-0.4,0.5-1.2,0.1-1.4c-1-0.4-1.8-1.3-2.2-2.3c-0.9-1.5-2.4-2.5-3.6-3.8c-0.2-0.2-0.4-0.4-0.7-0.3s-0.5,0.4-0.5,0.7
		c0,1.1-0.7,1.6-1.8,1.7c-1.7,0.1-3.3,0.6-4.8,1.4c-0.4,0.2-0.9,0.4-1.3,0.4c-1,0.4-2.2-0.1-2.6-1.1c0,0,0-0.1,0-0.1
		c-0.3-0.6-0.8-1-1.4-1.3c-0.5-0.2-0.9-0.5-1.2-1c-1.3-2.3-2.9-4.5-3.8-7c-0.7-1.8-2.2-2.9-3.4-4.3s-3.2-1.5-4.9-1.9
		c-1.5-0.4-3-0.8-3.5-2.5c-0.1-0.3-0.4-0.5-0.6-0.7l8-12l3.3-4.9l0.2,0.1c0,0,0-0.1,0-0.1c0.1-1,0.6-1.9,1.4-2.6
		c0.6-0.7,0.4-1.7-0.3-2.3c-0.1-0.1-0.1-0.1-0.2-0.1c-1.4-0.4-2.5-1.6-2.7-3.1c0-0.5-0.2-0.9-0.5-1.2c-0.5-0.4-0.6-1.4-1.3-1.4
		C448.2,190.9,446.2,190.2,444.2,190.4z M467.9,201.2L467.9,201.2c0,0.3-0.2,0.5-0.5,0.5c-0.4,0.1-0.9,0.3-0.6,0.8s0.7,0.3,1.1,0.2
		c1.1-0.4,2.1-1.1,2.9-2c0.5-0.6,1.2-1.3,1.1-2.2c0-0.2-0.1-0.5-0.5-0.6s-0.4,0.3-0.5,0.5c-0.3,0.4-0.3,1-1.2,1.3
		c0.5-0.7,0.9-1.4,1.1-2.3c0-0.3,0.4-0.7-0.1-0.9s-0.8,0-1.1,0.5c-0.9,1.3-1.6,2.8-3.4,3.2c-0.4,0.1-0.4,0.4-0.2,0.6
		s0.2,0.8,0.8,0.6C467.2,201.3,467.5,201.2,467.9,201.2z M472.1,193.9c-0.1-0.3-0.4-0.6-0.7-0.6c-0.2,0-0.4,0.1-0.3,0.4
		s0.1,0.7,0.6,0.7C472,194.3,472.1,194.2,472.1,193.9L472.1,193.9z"/>
	<path class="st3" d="M442.2,218.3c0.2,0.2,0.5,0.4,0.6,0.7c0.5,1.7,2,2.1,3.5,2.5c1.7,0.5,3.7,0.4,4.9,1.9s2.7,2.4,3.4,4.3
		c0.9,2.5,2.5,4.7,3.8,7c0.3,0.5,0.7,0.8,1.2,1c0.6,0.3,1.1,0.7,1.4,1.3c0.4,1,1.5,1.6,2.5,1.3c0,0,0.1,0,0.1,0
		c0.5-0.1,0.9-0.2,1.3-0.4c1.4-0.9,3.1-1.4,4.8-1.4c1.1-0.1,1.8-0.6,1.8-1.7c0-0.3,0.1-0.6,0.5-0.7s0.5,0.1,0.7,0.3
		c1.2,1.2,2.7,2.3,3.6,3.8c0.4,1,1.2,1.8,2.2,2.3c0.4,0.1,0.1,1-0.1,1.4c-0.8,1.6-0.7,3.5,0.2,5c0.5,0.9,0.7,1.9,0.7,2.9
		c0,0.5,0.1,0.8,0.6,0.9s0.7,0.5,0.3,0.8c-0.6,0.4-0.6,0.7-0.1,1.1c0.3,0.2,0.2,0.5,0.2,0.8c0,1.4,0,2.8-0.1,4.2
		c-0.4,2.4-0.3,4.9-1.2,7.3c-0.8,2.1-1,4.4-2.1,6.5c-0.7,1.4-1.2,2.8-2,4.1c-0.6,1-1.5,1.8-1.7,3c-0.3,0.8-1.1,1.1-1.7,1.4
		c-5.3,3-11.1,5.3-17,6.7c-0.4,0.1-0.8,0.1-1.2,0.2c-0.2-0.4-0.5-0.6-0.9-0.5c-1.5,0.1-2.9-0.7-3.5-2.1c-0.5-1.2-1.4-2.6-0.7-4.1
		c0.2-0.5,0.2-1-0.5-1.3c-0.4-0.1-0.7-0.5-0.7-1c-0.1-0.6,0.4-0.5,0.8-0.6c0.1,0,0.2-0.1,0.2-0.1c0-1.1,1.1-1.8,1.1-2.9
		c0-2.1-0.3-4.2,0.2-6.4c0.1-0.7,0-1.4-0.4-2c-0.8-1.2-0.5-2.8,0.7-3.6c0.1,0,0.1-0.1,0.2-0.1c1-0.4,1.9-1,2.8-1.6
		c1.2-1.1,2.9-1.8,3.5-3.5c0.1-0.3,0.3-0.5,0.1-0.8c-0.4-1-0.6-2.1-0.5-3.1c-0.2-1.6-0.7-3.1-1.7-4.4c-1.2-1.5-2.5-3-3.9-4.3
		c-0.5-0.5-0.9,0-1.2,0.3c-0.6,0.6-1,0.7-1.4-0.2c-0.7-1.5-1.6-2.9-2.4-4.4c-0.5-0.9-1.2-1.7-2-2.3c-1-1-2.5-1.8-2.6-3.5
		c0-0.2-0.1-0.5-0.2-0.6c-1.2-0.6-1.5-2-2.5-2.7c-0.2-0.2-0.5-0.5-0.7-0.5c-1.2-0.1-1.5-1-1.7-2C437.6,225,439.8,221.6,442.2,218.3z
		"/>
	<path class="st4" d="M473.4,278.5c0.2-1.2,1.1-2,1.7-3c0.8-1.3,1.3-2.8,2-4.1c1-2.1,1.3-4.4,2.1-6.5c0.9-2.4,0.8-4.9,1.2-7.3
		c0.5-3.9,0.5-7.9,0-11.8c-0.2-1.7-0.2-3.4-0.5-5.1c-0.3-1.5-0.5-3-0.7-4.6c-0.2-1.3-0.4-2.6-0.7-3.9c-2.2-9.7-5.7-19.1-10.5-27.8
		c-0.4-0.7-0.2-0.9,0.4-1.1c4.1-1.8,5.2-6.4,4.1-9.9c2.1,0.4,4.1,1.5,6.1,2.1c0.2,0.1,0.5,0.3,0.7,0.4c8.2,3.4,15.6,7.8,20.7,15.1
		l0,0l0.2,0.4c0.9,2.5,1.5,5.2,1.7,7.8c2.7,20-4.8,40-19.9,53.3c-2.3,2.1-4.8,4-7.4,5.6C474.3,278.4,473.9,278.6,473.4,278.5z"/>
	<path class="st3" d="M414.7,171.4c0.5,0.4,1.2,0.6,1.8,0.5c0.8,0,1.3,0.2,1.4,1.1c0.2,1.1,0.5,2.2,1,3.2c0.7,1.1,0.9,2.5,1.9,3.6
		s2,1.9,2.4,3.3c0,0.2,0.1,0.4,0.2,0.5c1.4,0.8,1.7,2.6,3.2,3.3c0.4,0.1,0.6,0.4,0.8,0.8c0.2,0.7,0.8,0.9,1.3,1.1
		c0.9,0.3,1.8,0.4,2.3,1.3c0.1,0.2,0.6,0.1,0.9,0.2c-2.4,0.2-4.8,0.5-7.2,0.7c-8.7,0.9-17.2,3.1-25.3,6.6c-0.2,0.1-0.5,0.2-0.8,0.3
		c0-1.2,1-2.6-0.4-3.7c-0.1-0.1,0-0.2,0-0.3c-0.1-1.4-0.4-1.6-1.8-1.3c-0.3,0.1-0.7,0.1-1,0.1c-2-0.4-3.3,0.6-4.5,1.8
		c-3.9,4-7,8.7-9.4,13.7c-0.4,0.7-0.5,1.5-0.3,2.3c0,0,0,0.1-0.1,0.1c0,0,0,0,0,0c-0.3,0-0.4,0.2-0.4,0.5l-2.3,3.4
		c-0.1-0.7-0.1-1.4,0.2-2.1c3.2-11.9,9.9-22.6,19.3-30.7C402.9,177.3,408.6,173.9,414.7,171.4z"/>
	<path class="st5" d="M467.4,184.4c-1.5,0.1-2.3-1.2-3.6-1.6c-1.5-0.6-3.1-1.1-4.8-1.2c-0.3,0-0.7-0.1-1-0.2
		c-0.7-0.4-1.6-0.5-2.4-0.2c-2,0.9-3-0.5-3.8-1.7c-0.7-1-1.6-2-2.6-2.8c-1.8-1.7-3.6-3.3-5.7-4.6c-2.9-1.8-5.6-3.8-9-4.7
		c-0.6-0.1-1.2-0.3-1.8-0.6h0l0.2-0.1c2.7-0.3,5.3-0.4,8-0.4c3.8,0.2,7.6,0.7,11.4,1.4c6.1,1.2,11.9,3.3,17.4,6.1
		c1.5,0.7,2.9,1.5,4.2,2.5c0,0.3-0.1,0.5-0.3,0.7c-1.7,1-2.5,2.8-3.8,4.1c-0.9,0.8-1.6,1.8-2,2.9l0,0c-0.3,0-0.4,0.1-0.4,0.4
		L467.4,184.4z"/>
	<path class="st3" d="M467.9,184c0.4-1.1,1.1-2.1,2-2.9c1.3-1.4,2.1-3.1,3.8-4.1c0.3-0.2,0.3-0.4,0.3-0.7
		c8.9,5.6,16.1,13.3,21.2,22.4c1.8,3.4,3.4,7,4.6,10.7c0.2,0.5,0.5,1,0.2,1.5c-5.2-7.3-12.6-11.7-20.7-15.1
		c-0.2-0.1-0.5-0.2-0.7-0.4c0.5-1.1-0.2-1.9-0.7-2.7C475.7,188.6,472.7,185.3,467.9,184z"/>
	<path class="st3" d="M433.2,166.6l-0.2,0.1L433.2,166.6z"/>
	<path class="st3" d="M381.2,210.5c-0.2-0.8,0-1.6,0.3-2.3c2.3-5.1,5.5-9.7,9.4-13.7c1.2-1.2,2.6-2.2,4.5-1.8c0.3,0,0.7,0,1-0.1
		c1.4-0.3,1.7-0.1,1.8,1.3c0,0.1,0,0.3,0,0.3c1.4,1.1,0.4,2.4,0.4,3.7c-2.2,1.2-4.5,2.2-6.7,3.6C387.9,203.9,384.3,207,381.2,210.5z
		"/>
	<path class="st6" d="M444.2,190.4c2-0.2,3.9,0.4,6,0.3c0.7-0.1,0.8,0.9,1.3,1.4c0.3,0.3,0.5,0.8,0.5,1.2c0.2,1.5,1.2,2.7,2.7,3.1
		c0.8,0.4,1.1,1.4,0.6,2.2c0,0.1-0.1,0.2-0.1,0.2c-0.7,0.7-1.2,1.6-1.4,2.6c0,0,0,0.1,0,0.1l-0.2-0.1c0-0.5-0.3-0.8-0.7-1.1
		c-2.6-2-4.9-4.2-6.1-7.3c-0.1-0.1-0.1-0.2-0.1-0.3C446.5,191.3,445.9,190.4,444.2,190.4z"/>
	<path class="st7" d="M467.9,184c4.8,1.4,7.8,4.6,10,8.7c0.5,0.8,1.2,1.6,0.7,2.7c-2.1-0.6-4-1.7-6.1-2.1c-0.6-0.5-1.4-0.3-2.3-0.7
		c0.2,0.2,0.4,0.5,0.6,0.8c0.2,0.3,0.1,0.8-0.1,1.1c-0.3,0.3-0.6,0-0.9-0.1c-2.2-1.4-4.9-1.3-7.2-2.4c-1.6-0.8-2.9-1.9-4-3.3
		c-0.5-0.5-0.3-1.3,0.3-1.9c0.9-1,2.2-1.2,3.4-1.7c0.4-0.2,0.7,0,1,0.2c0.8,0.4,1.6,0.7,2.5,0.7c0.9,0,1.3-0.8,1.6-1.4l0,0
		C467.8,184.5,467.9,184.3,467.9,184L467.9,184z"/>
	<path class="st6" d="M467.9,201.2c-0.4,0-0.8,0.1-1.1,0.3c-0.6,0.2-0.6-0.3-0.8-0.6s-0.2-0.5,0.2-0.6c1.8-0.4,2.5-1.9,3.4-3.2
		c0.3-0.5,0.6-0.6,1.1-0.5s0.1,0.6,0.1,0.9c-0.2,0.8-0.6,1.6-1.1,2.3c0.9-0.3,0.9-0.9,1.2-1.3c0.1-0.2,0.1-0.6,0.5-0.5
		s0.4,0.4,0.5,0.6c0.2,1-0.5,1.6-1.1,2.2c-0.8,0.9-1.8,1.6-2.9,2c-0.4,0.2-0.8,0.4-1.1-0.2s0.2-0.7,0.6-0.8
		C467.7,201.8,467.9,201.5,467.9,201.2c0.2,0,0.5,0.1,0.6-0.2c0-0.1,0-0.1-0.1-0.2C468.1,200.8,468,201,467.9,201.2z M469.3,200.4
		l0-0.2c-0.1,0-0.1,0-0.2,0.1s0,0.1,0,0.2L469.3,200.4z"/>
	<path class="st7" d="M472.1,193.9c0,0.3-0.1,0.4-0.4,0.4c-0.5,0-0.5-0.4-0.6-0.7s0-0.4,0.3-0.4C471.7,193.3,472,193.6,472.1,193.9z
		"/>
	<path class="st3" d="M467.9,184c0,0.3-0.1,0.4-0.4,0.4C467.4,184.1,467.6,184,467.9,184z"/>
	<path class="st3" d="M467.9,201.2c0.1-0.2,0.2-0.4,0.5-0.3c0.1,0,0.1,0.1,0.1,0.2C468.4,201.3,468.1,201.2,467.9,201.2L467.9,201.2
		z"/>
	<path class="st3" d="M469.2,200.4l-0.2,0.1c0-0.1-0.1-0.1,0-0.2s0.1-0.1,0.2-0.1L469.2,200.4z"/>
	
		<image style="overflow:visible;enable-background:new    ;" width="960" height="930" xlink:href="5B3760C9.png"  transform="matrix(3.245314e-17 -0.53 0.56 3.429011e-17 -90.8745 641.6088)">
	</image>
	<text transform="matrix(1 0 0 1 196.7555 92.6688)" class="st8 st9 st10">Sputnik 1</text>
	<text transform="matrix(1 0 0 1 388.1956 94.7188)" class="st8 st9 st10">P</text>
	<text transform="matrix(1 0 0 1 396.3055 94.7188)" class="st8 st9 st10">elota de pl</text>
	<text transform="matrix(1 0 0 1 466.5955 94.7188)" class="st8 st9 st10">a</text>
	<text transform="matrix(1 0 0 1 474.1755 94.7188)" class="st8 st9 st10">y</text>
	<text transform="matrix(1 0 0 1 481.6455 94.7188)" class="st8 st9 st10">a</text>
	<text transform="matrix(1 0 0 1 203.4218 138.6798)" class="st8 st9 st11">58cm</text>
	<text transform="matrix(1 0 0 1 415.5454 138.4396)" class="st8 st9 st11">58cm</text>
</g>
</svg>
