<?xml version="1.0" encoding="utf-8"?>
<!-- Generator: Adobe Illustrator 26.0.0, SVG Export Plug-In . SVG Version: 6.00 Build 0)  -->
<svg version="1.1" xmlns="http://www.w3.org/2000/svg" xmlns:xlink="http://www.w3.org/1999/xlink" x="0px" y="0px"
	 viewBox="0 0 936 923.4" style="enable-background:new 0 0 936 923.4;" xml:space="preserve">
<style type="text/css">
	.st0{fill:none;stroke:#FFFFFF;stroke-miterlimit:10;}
	.st1{fill:none;stroke:#FFFFFF;}
	.st2{fill:none;stroke:#FFFFFF;stroke-width:0.8702;}
	.st3{fill:none;stroke:#FFFFFF;stroke-width:1;stroke-miterlimit:4;}
	.st4{fill:none;stroke:#FFFFFF;stroke-width:1.5;}
	.st5{fill:none;stroke:#FFFFFF;stroke-width:0.3599;}
	.st6{fill:none;stroke:#FFFFFF;stroke-width:0.5;}
	.st7{fill:none;stroke:#FFFFFF;stroke-width:0.9865;}
	.st8{fill:none;stroke:#FFFFFF;stroke-opacity:0.5294;}
	.st9{fill:none;stroke:#FFFFFF;stroke-width:1.0381;}
	.st10{fill:none;stroke:#FFFFFF;stroke-opacity:0.5291;}
	.st11{fill:none;stroke:#FFFFFF;stroke-miterlimit:4.0001;}
	.st12{fill:none;stroke:#FFFFFF;stroke-width:1.0046;}
	.st13{fill:none;stroke:#FFFFFF;stroke-width:0.9838;}
	.st14{fill:none;stroke:#FFFFFF;stroke-width:1.0046;stroke-opacity:0.5291;}
	.st15{fill:none;stroke:#FFFFFF;stroke-width:1.0046;stroke-opacity:0.5294;}
	.st16{opacity:0.57;fill:none;stroke:#FFFFFF;stroke-miterlimit:10;enable-background:new    ;}
	.st17{fill:#FFFFFF;stroke:#FFFFFF;stroke-miterlimit:10;}
	.st18{fill:#FFFFFF;stroke:#FFFFFF;stroke-width:0.5654;}
	.st19{fill:#FFFFFF;}
	.st20{font-family:'ArialMT';}
	.st21{font-size:24px;}
	.st22{fill:none;stroke:#FFFFFF;stroke-width:3;stroke-dasharray:5;}
</style>
<g id="Capa_1">
	<g id="Capa_1_00000175314798048644071070000006823440717848647071_">
		<g id="layer2" transform="translate(-59.029987,-2.0355165)">
			<path id="path4119" class="st0" d="M778,855.4l5.2-0.5l10.3-0.1l-0.4-14.1l-7.7-18.6l1.7-70.2l0.1-240l7.6-87.4l-2.4-9.6
				c1.4-3.1,2.6-10.3,4-13.4l-4.2-153.6l2.6-3.8l-8.3-29L761.9,76.2l-24.8,139.4l-7.7,28.2l2.7,4l-2.8,153.1l0.4,3.6
				c1.1,3.1,1.7,6.1,2.2,9.9c0.6,5-1.2,5.7-2,8.4l5.7,53.5l1.5,35.3l0.1,234.6c1.2,25.7,0.7,51.3,1,77l-6.9,19.8l-0.2,11.8l10.7-0.2
				l4.8,0.6L778,855.4z"/>
			<path id="rect6631" class="st0" d="M745.7,861.1h15.1c0.7,0,1.3,0.8,1.3,1.7l0,0c0,0.9-0.6,1.7-1.3,1.7h-15.1
				c-0.7,0-1.3-0.8-1.3-1.7l0,0C744.4,861.8,745,861.1,745.7,861.1z"/>
			<path id="rect6639" class="st0" d="M764.3,861.1h15.1c0.7,0,1.3,0.8,1.3,1.7l0,0c0,0.9-0.6,1.7-1.3,1.7h-15.1
				c-0.7,0-1.3-0.8-1.3-1.7l0,0C763.1,861.8,763.6,861.1,764.3,861.1z"/>
			<path id="path6641" class="st0" d="M760,866.1c-1.2-1.5-1.4-3.5-0.1-4l0.6-2.8h3.3l0.7,3c1.6,0.4,0.9,2.9,0.4,3.9l0.3,3l-5.7,0.1
				L760,866.1z"/>
			<path id="rect6644" class="st0" d="M747.2,854.9l12.6,0.1l1.4,6.2l-15-0.1L747.2,854.9z"/>
			<path id="path6647" class="st0" d="M765.3,855.1l12.6,0.1l1.4,6.2l-15.5-0.1L765.3,855.1z"/>
			<path id="rect6649" class="st0" d="M739,801.5l46.4,1.1l-0.1,19.6l8.1,19.1l0.3,13.5l-29.4,0.2v3.6l-3.7-0.3l-0.3-3.4l-28.8-0.2
				l-0.1-12.4l7-20.2L739,801.5z"/>
			<path id="rect7358" class="st0" d="M732.7,859.4l1-1.7l2.7,1.1l0.6,7.3l-4.6-0.2L732.7,859.4z"/>
			<path id="path7366" class="st0" d="M787.5,861l2.8-0.3c-0.2-1.6,0.9-2,2.5-2c0.2,1.3,0.1,2.6-0.6,3.4l-0.1,4.2l-5-0.1L787.5,861z
				"/>
			<path id="rect7368" class="st0" d="M733.2,855.2h4.2l-1.7,4.4l-1.4,0.1L733.2,855.2z"/>
			<path id="rect7373" class="st0" d="M786.2,855.2h6.3l0.4,3.5l-2.3-0.1l-0.6,2h-2.6L786.2,855.2z"/>
		</g>
		<g id="g4273" transform="translate(106.07573,-132.6591)">
		</g>
		<g id="g4577" transform="matrix(0.99999215,-0.00396137,0.00396137,0.99999215,81.205281,-3.603116)">
			<path id="rect4439" class="st1" d="M618.9,796.6c2.3-0.1,4.1,5,3.3,8.4c-2,1.4-4.5,1.6-6.8,0
				C615.1,801.1,616.5,796.7,618.9,796.6z"/>
			<path id="path4442" class="st2" d="M618.9,797.1c2-0.1,3.5,4.4,2.9,7.3c-2.2,0.5-3.8,0.2-5.9,0
				C615.6,801.1,616.9,797.3,618.9,797.1z"/>
			<path id="path4444" class="st1" d="M616.1,801.9l5.9,0.3"/>
			<path id="path4446" class="st1" d="M618.9,801.9v-4.6"/>
		</g>
		<path id="path4192" class="st1" d="M682,393.6h55.2"/>
		<path id="path4208" class="st1" d="M673.4,245.8h59.8"/>
		<path id="path4216" class="st1" d="M684.6,797.5l-0.8-2.8l-0.1-5l-1.2-3.9l0.1-109.3v-63.2l0.4-64l0.2-42.4l0.7-12.4l-7.2-95.6
			l2.2-132.4c-2.9-0.7-2.8-4.9-1.5-7.2c1.3-2.3,1.7-4.7,4.2-4.9s5.2,1.2,5.4,3.5c0.2,2.3,0.6,11.2-0.9,11l-3.8,128.8l9.3,105.3
			L690,785.7l-1.4,3.8l-0.1,5.3l-0.8,2.7H684.6z"/>
		<path id="path4032" class="st1" d="M682.7,786.5l7.3-0.1"/>
		<path id="path4034" class="st1" d="M683.3,789.3l5.4-0.1"/>
		<path id="path4036" class="st1" d="M683.5,794.5l5.4-0.1"/>
		<path id="path4038" class="st1" d="M684.6,264.9l-4.3,135.3l8.7,104.3l-0.5,281.8l-0.3,2.7"/>
		<path id="path4057" class="st1" d="M690.4,749.8c0.4-0.1,0.7-0.6,1.2-0.4c0.5,0.2,0.7,1.3,1.4,1.3s0.9-1.3,1.6-1.3
			c0.7,0,1.1,1.2,1.8,1.2s0.9-1.3,1.6-1.3c0.8,0,1.2,1.3,2,1.4c0.8,0,1.2-1.2,1.9-1.2s1,1.2,1.7,1.2s0.9-1.3,1.6-1.3
			c0.7,0,0.9,1.2,1.7,1.2s1.4-1.2,2.2-1.2s1.3,1.3,2.1,1.3s1.1-1.1,1.8-1.1s0.9,1,1.6,1c0.7,0,1.2-1.1,1.9-1.1s1,1.2,1.7,1.2
			s1-1.1,1.6-1.1s0.7,1.2,1.3,1.1c0.6,0,0.7-1.3,1.4-1.3c0.6,0,0.7,1.3,1.3,1.3s0.6-1.3,1.2-1.3s1.2,0.4,1.7,1.2"/>
		<path id="path4061" class="st1" d="M682.9,676.9l7.8,0.1"/>
		<path id="path4063" class="st1" d="M680,797.6l0.1-286.8l2.8-8.4"/>
		<path id="path4069" class="st1" d="M679.7,821.3h20.4"/>
		<path id="path4071" class="st1" d="M706.9,821.4l19.2,0.1"/>
		<path id="path4073" class="st1" d="M681.6,835.4h1.7c-0.2-4.6,0.2-10.4,3.1-10.4c3,0,3.7,6.9,3,10.4h4.7l7.5-17.8
			c0.7-1,2.7-1,3.4-0.1l7.4,17.7h4.6c-0.4-3.8-0.6-10.2,3-10.2s3.5,6.7,3,10.4h1.4"/>
		<path id="path4075" class="st1" d="M693.5,852.2l-0.1-13.1l8.2-20.6c0.7-1,2.7-1,3.4-0.1l7.9,20.7l1.3,13.5"/>
		<path id="rect4079" class="st1" d="M701,864c-1.2-1.5-1.4-3.5-0.1-4l0.6-2.8h3.3l0.7,3c1.6,0.4,0.9,2.9,0.4,3.9l0.3,3l-5.7,0.1
			L701,864z"/>
		<g id="g4093" transform="matrix(0.99999215,-0.00396137,0.00396137,0.99999215,81.205281,-3.603116)">
			<path id="path4077" class="st1" d="M595,826.9l-7.7,19.4v12.5h10.9"/>
			<path id="path4083" class="st1" d="M587.6,845l10.9,0.3"/>
			<path id="path4085" class="st1" d="M587.4,846.9l10.9,0.3"/>
			<path id="path4087" class="st1" d="M587.6,848.8l10.9,0.3"/>
			<path id="path4089" class="st1" d="M591.3,849.1v9.5"/>
			<path id="path4091" class="st1" d="M595.2,849.4l-0.3,9.1"/>
		</g>
		<g id="g4101" transform="matrix(-0.99999215,0.00396137,0.00396137,0.99999215,390.93201,-4.830068)">
			<path id="path4103" class="st1" d="M-332.4,825.1l-7.9,21.3v12.5h10.3"/>
			<path id="path4105" class="st1" d="M-339.9,845l10.9,0.3"/>
			<path id="path4107" class="st1" d="M-340.2,846.9l10.9,0.3"/>
			<path id="path4109" class="st1" d="M-339.9,848.8l10.9,0.3"/>
			<path id="path4111" class="st1" d="M-336.3,849.1l-0.3,9.6"/>
			<path id="path4113" class="st1" d="M-332.4,849.4l-0.3,9.1"/>
		</g>
		<g id="g4119" transform="matrix(0.99999215,-0.00396137,0.00396137,0.99999215,81.205281,-3.603116)">
			<path id="path4115" class="st1" d="M603.1,858.7l-1.1,6.1c-1.7-0.2-1.9,3.3-0.1,3.7l13.6,0.1"/>
			<path id="path4117" class="st1" d="M602,864.8l14.2,0.1"/>
		</g>
		<g id="g4123" transform="matrix(-0.99999215,0.00396137,0.00396137,0.99999215,391.3621,-4.651854)">
			<path id="path4125" class="st1" d="M-324.4,859l-1.1,5.7c-1.7-0.2-1.9,3.3-0.1,3.7l13.7-0.2"/>
			<path id="path4127" class="st1" d="M-325.4,864.7l14.8,0.1"/>
		</g>
		<g id="g4133" transform="matrix(0.99999215,-0.00396137,0.00396137,0.99999215,81.205281,-3.603116)">
			<path id="path4129" class="st1" d="M607.4,852.2c0,3.2-2.2,5.8-4.8,5.8s-4.8-2.6-4.8-5.8s2.2-5.8,4.8-5.8S607.4,849,607.4,852.2
				L607.4,852.2z"/>
			<path id="path4131" class="st1" d="M598.3,851.8l9.2-0.3"/>
		</g>
		<g id="g4137" transform="matrix(0.99999215,-0.00396137,0.00396137,0.99999215,122.40643,-3.586413)">
			<path id="path4139" class="st1" d="M598.2,852.2c0,3.2-2.2,5.8-4.8,5.8c-2.7,0-4.8-2.6-4.8-5.8s2.2-5.8,4.8-5.8
				S598.2,849,598.2,852.2L598.2,852.2z"/>
			<path id="path4141" class="st1" d="M588.8,851.5l9.5-0.1"/>
		</g>
		<path id="path4145" class="st1" d="M701.1,860.1h4.3"/>
		<path id="path4147" class="st1" d="M700.9,864.1h5.1"/>
		<path id="path4149" class="st1" d="M693.2,839.5l19.8,0.1"/>
		<path id="path4151" class="st1" d="M693.4,841l19.8,0.1"/>
		<path id="path4153" class="st1" d="M693.4,843.1l19.8,0.1"/>
		<path id="path4155" class="st1" d="M710.9,841.1l0.1,2.2"/>
		<path id="path4157" class="st1" d="M700.3,841.1l0.1,2.2"/>
		<path id="path4159" class="st1" d="M694.9,840.9l-0.1,2.1"/>
		<path id="path4161" class="st1" d="M697.2,840.9l-0.1,2.2"/>
		<path id="path4163" class="st1" d="M703.3,841.1l0.1,2.2"/>
		<path id="path4165" class="st1" d="M709.3,841.1l0.1,2.2"/>
		<path id="path4167" class="st1" d="M706.6,841.1l0.1,2.2"/>
		<path id="path4169" class="st1" d="M699.6,843.3l0.1,9.1"/>
		<path id="path4171" class="st1" d="M698.3,843.1l0.1,9.1"/>
		<path id="path4173" class="st1" d="M708.2,843.3l0.1,9.1"/>
		<path id="path4175" class="st1" d="M706.9,843.5l0.1,9.1"/>
		<path id="path4191" class="st1" d="M691.2,509.9h2.1l0.2,1.6h1.5l0.4-1.6h2.1l0.4,1.7h1.3l0.4-1.7h1.9l0.2,1.7h1.4l0.4-1.6h1.9
			l0.4,1.7l1.5-0.1l0.3-1.5l1.9-0.1l0.2,1.5h1.4l0.3-1.5h6.3l0.1,1.7l1.6,0.1l-0.1-1.7l8.7,0.1"/>
		<path id="path4193" class="st1" d="M691.5,521.9h36.9"/>
		<path id="path4195" class="st1" d="M691.1,522.7l37.3-0.2"/>
		<path id="rect4197" class="st1" d="M721.3,510.7h1.8c1,0,1.9,0.8,1.9,1.9v6.5c0,1-0.8,1.9-1.9,1.9h-1.8c-1,0-1.9-0.8-1.9-1.9v-6.5
			C719.4,511.5,720.2,510.7,721.3,510.7z"/>
		<path id="rect4199" class="st1" d="M713.5,516.4h0.9c1,0,1.9,0.8,1.9,1.9v3.1h-4.6v-3.1C711.6,517.3,712.5,516.4,713.5,516.4
			L713.5,516.4z"/>
		<path id="path4203" class="st1" d="M712.7,514.4h0.7c0.8,0,1.4-0.7,1.4-1.6v-2.7h-3.5v2.7C711.3,513.7,711.9,514.4,712.7,514.4
			L712.7,514.4z"/>
		<path id="rect4205" class="st1" d="M685.3,809.7h4.4c1,0,1.9,0.8,1.9,1.9v6.3c0,1-0.8,1.9-1.9,1.9h-4.4c-1,0-1.9-0.8-1.9-1.9v-6.3
			C683.4,810.5,684.2,809.7,685.3,809.7z"/>
		<path id="rect4207" class="st1" d="M717.1,810.1h4.4c1,0,1.9,0.8,1.9,1.9v6.3c0,1-0.8,1.9-1.9,1.9h-4.4c-1,0-1.9-0.8-1.9-1.9V812
			C715.3,811,716.1,810.1,717.1,810.1z"/>
		
			<rect id="rect4209" x="710.1" y="810" transform="matrix(1 -3.961308e-03 3.961308e-03 1 -3.2088 2.8241)" class="st3" width="2.4" height="2.9"/>
		<path id="path4211" class="st4" d="M711.3,801.9v8.3"/>
		<path id="path4213" class="st4" d="M711.3,813.1l0.1,19.8"/>
		<path id="rect4215" class="st1" d="M701,849.7c0.5-1.6,0.4-3.3,2.3-4.7c1.4,1.1,1.4,3.1,2.1,4.7v7H701V849.7z"/>
		<path id="path4219" class="st1" d="M701.2,850l4.1-0.1"/>
		<path id="path4221" class="st1" d="M697,853c-0.4,2.9,1.5,4.9,4.1,3.7v-3.8L697,853z"/>
		<path id="path4223" class="st1" d="M708.7,852.9c0.5,1.9-0.4,3.5-3.1,2.2v-2.2H708.7z"/>
		<path id="path4225" class="st1" d="M682.9,739.1l7.8,0.1"/>
		<path id="path4227" class="st1" d="M686.5,825.2c1.6,3.2,2.3,6.9,1.9,10.1c-1.3,0.8-3.3,0.2-4.8-0.4"/>
		<path id="path4229" class="st1" d="M683.5,833.4l4.9,0.1"/>
		<path id="path4231" class="st1" d="M720,825.2c-1.5,3.2-2.2,6.9-1.9,10.1c1.3,0.8,3.3,0.2,4.8-0.4"/>
		<path id="path4233" class="st1" d="M718,833.8l4.9,0.1"/>
		<path id="path4235" class="st1" d="M688.2,835.4l1.7-0.1"/>
		<path id="path4237" class="st1" d="M716.7,835.1l1.3,0.2"/>
		<path id="path4239" class="st1" d="M679.4,797.7L699,798"/>
		<path id="path4241" class="st1" d="M679.2,799.6l19.6,0.3"/>
		
			<rect id="rect4243" x="725.3" y="796.4" transform="matrix(1 -3.961308e-03 3.961308e-03 1 -3.1602 2.8856)" class="st3" width="3.1" height="5.6"/>
		<path id="rect4245" class="st1" d="M711.9,796.3l20.6-0.1c1.6,0,2.8,1.3,2.8,2.8v0.1c0,1.6-1.3,2.8-2.8,2.8l-20.6,0.1
			c-1.6,0-2.8-1.3-2.8-2.8v-0.1C709,797.6,710.3,796.3,711.9,796.3z"/>
		<path id="rect4260" class="st1" d="M712.6,798l19.4-0.1c0.7,0,1.2,0.5,1.2,1.2l0,0c0,0.7-0.5,1.2-1.2,1.2l-19.4,0.1
			c-0.7,0-1.2-0.5-1.2-1.2l0,0C711.4,798.5,711.9,798,712.6,798z"/>
		<path id="path4262" class="st1" d="M689.3,805.3c0,1.9-1,3.4-2.3,3.4s-2.3-1.5-2.3-3.4s1-3.4,2.3-3.4S689.3,803.4,689.3,805.3z"/>
		<path id="path4264" class="st1" d="M721.7,806.1c0,1.9-1,3.4-2.3,3.4s-2.3-1.5-2.3-3.4s1-3.4,2.3-3.4S721.7,804.2,721.7,806.1z"/>
		<path id="path4266" class="st1" d="M715.1,799.2c0,0.7-0.6,1.3-1.2,1.3c-0.7,0-1.2-0.6-1.3-1.3c0-0.7,0.6-1.3,1.2-1.3
			C714.6,798,715.1,798.5,715.1,799.2z"/>
		<path id="path4268" class="st1" d="M731.5,799.1c0,0.7-0.6,1.3-1.2,1.3c-0.7,0-1.2-0.6-1.3-1.3c0-0.7,0.6-1.3,1.2-1.3
			C731,797.8,731.5,798.4,731.5,799.1z"/>
		<path id="path4270" class="st1" d="M718.7,797.9v2.4"/>
		<path id="path4272" class="st1" d="M721.5,798.1v2.4"/>
		<path id="path4274" class="st1" d="M724.1,798.1v2.4"/>
		<path id="path4276" class="st1" d="M727,798v2.4"/>
		<path id="path4278" class="st1" d="M716.4,798v2.4"/>
		<path id="path4282" class="st1" d="M734.8,847.7c1.6,1.7,3,4.4,2.2,7s-4.1,3.4-3.4-1.9"/>
		<path id="rect4284" class="st1" d="M728.3,864.5h3.8c0.7,0,1.3,0.6,1.3,1.2v0.1c0,0.7-0.6,1.3-1.2,1.3h-3.8
			c-0.7,0-1.3-0.6-1.3-1.2v-0.1C727.1,865,727.6,864.5,728.3,864.5z"/>
		<path id="path4286" class="st1" d="M722.7,853l-0.8,3.1c-0.1,0.6,0.3,1.1,0.9,1.1l4-0.1c0.7,0,1.2-0.5,0.9-1.4l-0.6-3"/>
		<path id="path4288" class="st1" d="M728,864.3l0.3-5.2l-0.3-2.5"/>
		<path id="path4290" class="st1" d="M728,855.2h5.4"/>
		<path id="path4292" class="st1" d="M730,864.1l0.9-5.2"/>
		<path id="path4294" class="st1" d="M734.2,858.1c0,0.9-0.7,1.6-1.6,1.6c-0.9,0-1.6-0.7-1.6-1.6c0-0.9,0.7-1.6,1.6-1.6
			S734.2,857.2,734.2,858.1z"/>
		<path id="path4296" class="st1" d="M732.9,864.5l0.2-4.8"/>
		<path id="path4298" class="st1" d="M727.8,859l3.1-0.1"/>
		<path id="rect4300" class="st1" d="M673.3,863.9h4.6c0.7,0,1.3,0.6,1.3,1.2v0.5c0,0.7-0.6,1.3-1.2,1.3h-4.6
			c-0.7,0-1.3-0.6-1.3-1.2v-0.5C672,864.5,672.6,863.9,673.3,863.9z"/>
		<path id="path4302" class="st1" d="M679,853.1v3c0.3,0.5,1.3,1,2.1,1h2.1c0.5-0.2,0.8-1.1,0.8-1.8c0-0.8-0.6-1.6-0.8-2.4"/>
		<path id="path4304" class="st1" d="M671.8,845.9c-2.8,2.5-3.6,5.7-3,9.8c0.5,1.6,2,1.7,3.1,1.7c3.1-0.4,2.5-2.2,2.2-4.3"/>
		<path id="path4306" class="st1" d="M677.6,855.8l-0.2,4.4c-0.1,2.2,1.3,3.7,1.3,3.7"/>
		<path id="path4308" class="st1" d="M672.4,860.1l5.3-0.1"/>
		<path id="path4310" class="st1" d="M674.7,860.1l1.8,3.8"/>
		<path id="path4312" class="st1" d="M673.9,856.5l-0.7,7.6"/>
		<path id="path4314" class="st1" d="M674,852.8l1.5,4.7h0.9l2.2-4.4"/>
		<path id="path4316" class="st1" d="M674.9,855.1h2.9"/>
		<path id="path4452" class="st1" d="M700.3,417.4l14.3-0.3c0.8-0.1,1-0.6,1.2-1.2v-4.5c0-1.1,1-1.2,2-1.3l11.9-0.1
			c0.6,0.1,1.1,0.6,1.1,1.3v4.1c-0.1,0.6,0.3,1,0.8,1.1h2.1"/>
		<g id="g3816" transform="translate(110.21951,-22)">
			<path id="path4477" class="st5" d="M588,419.6l9.4-0.1c0.6,0.1,1,0.8,0.9,1.8s-0.7,2.1-1,2.9s-0.9,2.1-0.3,2.9
				c0.5,0.9,2.6,3.5,4.2,5c0.3,1,0.1,2-0.7,1.7c-5.7-3.5-9.9-2.1-15.1,0.4c-0.6-0.1-0.7,0-0.8-0.9c1.4-2.5,2.7-3.4,4.2-5.9
				c0.4-0.4-0.2-2.4-0.6-3.1c-0.4-0.7-0.9-2.1-0.7-3C587.4,420.2,587.4,419.9,588,419.6L588,419.6z"/>
			<path id="rect4474" class="st6" d="M586.1,418l13-0.1c0.9,0.1,1.4,1.1,1.3,2.4s-0.9,3-1.4,4c-0.5,1.1,0.2,1.5,0.3,1.9
				c2.2,2.9,3.7,5.8,5.5,8.7c0.5,1.4,0.1,2.8-1,2.9c-7-1.6-13.4-1.8-21.5,0.2c-0.9-0.1-1.4-0.4-1.5-1.7c1.9-3.4,3.3-6.3,5.4-9.7
				c0.5-0.6,0.6-1.4,0-2.3s-1.2-3-1-4.2C585.3,419,585.3,418.5,586.1,418L586.1,418z"/>
		</g>
		<path id="path4448" class="st6" d="M719.8,816.4v-4.6"/>
		<path id="path4450" class="st6" d="M688,817.1v-4.6"/>
		<path id="path4454" class="st1" d="M682.4,395.7l55,0.2"/>
		<path id="path4456" class="st1" d="M676.9,393.7l-6.5,0.2"/>
		<path id="path4458" class="st1" d="M676.4,395.9h-6.1"/>
		<path id="path4462" class="st1" d="M677.5,410.1l-2.2,0.1c-0.6,0.1-1.1,0.6-1.1,1.3v4.1c0.1,0.6-0.3,1-0.8,1.1l-1,0.2"/>
		<path id="path4470" class="st1" d="M683.1,613.7l7.8,0.1"/>
		<path id="path4472" class="st1" d="M683,549.6h8.2"/>
		<path id="path4583" class="st1" d="M683.4,523.9l7.8,0.1"/>
		<path id="path4585" class="st1" d="M683.4,520.2l7.8,0.1"/>
		<path id="path4587" class="st1" d="M683.4,520.2l7.8,0.1"/>
		<path id="path4589" class="st1" d="M683.4,517.4l7.8,0.1"/>
		<path id="path4591" class="st1" d="M683.3,510.1l7.8,0.1"/>
		<path id="path4593" class="st1" d="M683.3,506.4l7.8,0.1"/>
		<path id="path4595" class="st1" d="M683.3,504.8l7.8,0.1"/>
		<path id="path4597" class="st1" d="M680.9,458.7l6.6-0.1"/>
		<path id="path4599" class="st1" d="M676.8,400.5l6-0.1"/>
		<path id="path4601" class="st1" d="M677,396.8l5.3-0.1"/>
		<path id="path4603" class="st1" d="M677.7,351.2l5.6-0.2"/>
		<path id="path4605" class="st1" d="M678.4,310.2h6.4"/>
		<path id="path3820" class="st1" d="M676.8,390.2h5.8"/>
		<path id="path4460" class="st7" d="M703.8,417.3l-12.2-0.1c-0.7,0-1-0.6-1.2-1.2v-4.5c0-1.1-1-1.2-2-1.3l-4.6,0.2"/>
		<path id="path4174" class="st1" d="M705.7,852.8l18.6,0.1l-0.2-13.2c1.5-6,2.3-12,2.4-18.4l1.3-71.6l0.5-239.8l7.6-87.4
			c-1.1-3-2.5-5.4-2.4-9.2c0.6-2.9,2.6-10.7,4-13.8L733.2,246l2.7-4.2l-8.3-28.3L703.2,74.7l-24.7,139l-8.3,28.3l2.9,3.7l-2.8,153.1
			l0.4,3.6c1.1,3.1,1.7,6.1,2.2,9.9c0.6,5-1.2,5.7-2,8.4l5.7,53.5l1.6,35.5L678,750c1.2,25.7,1.1,45.1,1.4,70.8
			c0.1,6.2,1,12.6,2.7,18.2l0.6,13.6l17.9,0.2"/>
		<path id="path6618" class="st1" d="M679,266.4l5.5-1.6c-0.5-1.4-1.2-1.3-0.9-3.6c0.3-2.3,1.4-3.4,2.4-5.1"/>
		<g id="layer5" transform="translate(-59.029987,-2.0355165)">
			<path id="path4196" class="st8" d="M741.6,388.6l54.4-0.2"/>
			<path id="path4198" class="st8" d="M742.4,359l52.9,0.1"/>
			<path id="path4202" class="st8" d="M741.3,330.9l52.8,0.1"/>
			<path id="path4204" class="st8" d="M744.6,300l49.1-0.2"/>
			<path id="path4206" class="st8" d="M744.9,273.4l48,0.2"/>
			<path id="path4210" class="st8" d="M737.2,215.7h49.4"/>
			<path id="path4212" class="st8" d="M754.3,121h16"/>
			<path id="path4044" class="st8" d="M750.2,530.5H787"/>
			<path id="path4047" class="st8" d="M750.3,619.5l36-0.1"/>
			<path id="path4049" class="st8" d="M750.1,651.6l36-0.1"/>
			<path id="path4051" class="st8" d="M749.8,683.1l36-0.1"/>
			<path id="path4053" class="st8" d="M749.5,714.3h36.4"/>
			<path id="path4055" class="st8" d="M749.4,745.4l36.3-0.1"/>
			<path id="path4181" class="st8" d="M763.5,423.7l31.2,0.2"/>
			<path id="path4183" class="st8" d="M787.1,398.3l-3.5,25.7"/>
			<path id="path4185" class="st8" d="M745.2,449.9h47.2"/>
			<path id="path4187" class="st8" d="M748.5,477.1h41.8"/>
			<path id="path4189" class="st8" d="M750.7,503.4l37.5,0.1"/>
			<path id="path4280" class="st8" d="M779.4,477.5l-3.2,26.3"/>
			<path id="path4179" class="st8" d="M743,423.5l25.8,0.3"/>
			<path id="path4464" class="st8" d="M736.9,423.5l-6.7-0.2"/>
			<path id="path4200" class="st8" d="M729.7,359.1h6.3"/>
			<path id="path4224" class="st8" d="M730.3,331h6.3"/>
			<path id="path4226" class="st8" d="M731.3,299.9h5.9"/>
			<path id="path4228" class="st8" d="M731.7,273.5h6"/>
			<path id="path4194" class="st8" d="M729.2,388.4l6.7,0.2h0.4"/>
			<path id="path4466" class="st8" d="M739.3,449.9l-6.6-0.1"/>
			<path id="path4468" class="st8" d="M741.2,476.6h-5.4"/>
			<g id="g3795">
				<path id="path4040" class="st8" d="M750.6,588.1l36-0.1"/>
				<path id="path3804" class="st8" d="M739.3,588.1h2.1"/>
			</g>
			<g id="g3791">
				<path id="path4042" class="st8" d="M750.5,556.1l36.6-0.1"/>
				<path id="path3806" class="st8" d="M739.3,556.1l2.7,0.1"/>
			</g>
			<path id="path3808" class="st8" d="M739.3,530.5h2.6"/>
			<path id="path3810" class="st8" d="M740.9,745.4h2.9"/>
			<path id="path3812" class="st8" d="M737.4,504h4.9"/>
			<path id="path4067" class="st8" d="M739.5,714.5h2.1"/>
			<path id="path4059" class="st8" d="M739.2,683h2.1"/>
			<path id="path4065" class="st8" d="M739.3,651.5h2.1"/>
			<path id="path3802" class="st8" d="M739.3,619.4h2.1"/>
			<rect id="rect4448" x="746.9" y="303.5" class="st1" width="31.5" height="21.8"/>
			<rect id="rect4450" x="752.2" y="338.1" class="st1" width="21" height="13.9"/>
			<path id="rect4452" class="st1" d="M730.2,352.1h-2V338h2.3"/>
			<path id="path4459" class="st1" d="M795.2,352.3h2v-14.6h-2.3"/>
			<path id="path4461" class="st1" d="M794.5,325h2l-0.2-21.3H794"/>
			<rect id="rect4446" x="746.9" y="275.6" class="st1" width="31.5" height="21.8"/>
			<path id="path4457" class="st1" d="M731.1,297.1h-2l0.2-21.3h2.3"/>
			<path id="path4463" class="st1" d="M793.8,297.1h2l-0.2-21.3h-2.3"/>
			<path id="rect4481" class="st1" d="M762.7,340.3L762.7,340.3c0.6,0,1.1,0.6,1.1,1.4v6.4c0,0.8-0.5,1.4-1.1,1.4l0,0
				c-0.6,0-1.1-0.6-1.1-1.4v-6.4C761.6,341,762.1,340.3,762.7,340.3z"/>
			<path id="rect4483" class="st1" d="M762.7,310.8L762.7,310.8c0.6,0,1.1,0.6,1.1,1.4v6.4c0,0.8-0.5,1.4-1.1,1.4l0,0
				c-0.6,0-1.1-0.6-1.1-1.4v-6.4C761.6,311.4,762.1,310.8,762.7,310.8z"/>
			<path id="rect4485" class="st1" d="M762.7,282.3L762.7,282.3c0.6,0,1.1,0.6,1.1,1.4v6.4c0,0.8-0.5,1.4-1.1,1.4l0,0
				c-0.6,0-1.1-0.6-1.1-1.4v-6.4C761.6,282.9,762.1,282.3,762.7,282.3z"/>
			<path id="rect4487" class="st1" d="M762.7,255c0.6,0,1.1,0.6,1.1,1.4v6.4h-2.2v-6.4C761.6,255.6,762.1,255,762.7,255L762.7,255z"
				/>
			<path id="path4492" class="st1" d="M734.5,226.9l-2.6,20.7"/>
			<path id="path4494" class="st1" d="M789.7,226.2l2.5,21.4"/>
			<path id="rect4496" class="st1" d="M763.2,226.2l1.1,21.4h-2.5L763.2,226.2z"/>
			<g id="g4526">
				<path id="path4455" class="st1" d="M730.6,325h-2l0.2-21.3h2.3"/>
				<path id="path4490" class="st1" d="M729,291.7l-0.9-0.2l0.1-9.6l0.9-0.1"/>
				<path id="path4522" class="st1" d="M728.6,319.7l-0.9-0.2l0.1-9.6l0.9-0.1"/>
				<path id="path4524" class="st1" d="M728.2,349.4l-0.9-0.2l0.1-9.6l0.9-0.1"/>
			</g>
			<path id="path4536" class="st1" d="M795.9,291.7l0.9-0.2l-0.1-9.6l-0.9-0.1"/>
			<path id="path4538" class="st1" d="M796.4,319.7l0.9-0.2l-0.1-9.6l-0.9-0.1"/>
			<path id="path4540" class="st1" d="M797.2,349.4l0.9-0.2l-0.1-9.6l-0.9-0.1"/>
		</g>
		<g id="layer1" transform="translate(-59.029987,-2.0355165)">
			<path id="path4064" class="st0" d="M730,424.2l5.7,53.1l1,27.3l0.3,289.7l-3.1,4.2l-2.2,29.2l-4.8,5.7l-1.5,24.3l-55.2-3.5
				l2.1-53.3l1.6-0.1l-0.1-1.8h-1.5l1-25.8l33.2-259.4l14-67l5.8-22.6L730,424.2z"/>
			<path id="path6113" class="st0" d="M794.8,424.9l-7,86.6l-0.4,164l1.7,112.2l5.2,40.6l4.9,5.7l1.6,24.3l55.2-3.7l-2.2-53.3h-2
				l0.1-2.1h1.8l-1.1-25.5l-34-259.3l-14.2-67l-6.3-22.5L794.8,424.9z"/>
			<g id="g5971" transform="translate(-138,0)">
				<path id="rect5457" class="st1" d="M928.6,804.4l43.5-2.4l19.5-0.2l1.3,23.4l2,5.3l24.7,18.7l-25.4,3.2l-1.6,2.7l-57.2,3.5
					L928.6,804.4z"/>
				<path id="path5460" class="st1" d="M988.2,801.9l-16.9-0.1l-13,1l-27.5,1.2"/>
				<path id="path5464" class="st1" d="M976,802.5l3,53.4"/>
				<path id="path5466" class="st1" d="M985.8,802.4l4,52.8"/>
				<path id="path5484" class="st1" d="M994.7,832.8l15.8,12.3l0.4,3.7l-14.8,1.3"/>
				<path id="rect5488" class="st1" d="M939.9,817.4L939.9,817.4c-1.6,0-3,1.4-2.9,3v3.7c0,1.6,1.4,3,3,2.9l0,0c1.6,0,3-1.4,2.9-3
					v-3.7C942.9,818.7,941.5,817.4,939.9,817.4z"/>
				<path id="rect5490" class="st1" d="M941.5,839.4L941.5,839.4c-1.6,0-3,1.4-2.9,3v3.7c0,1.6,1.4,3,3,2.9l0,0c1.6,0,3-1.4,2.9-3
					v-3.7C944.5,840.7,943.1,839.4,941.5,839.4z"/>
				<path id="rect5492" class="st1" d="M984.6,836.3L984.6,836.3c-1.6,0-3,1.4-2.9,3v3.7c0,1.6,1.4,3,3,2.9l0,0c1.6,0,3-1.4,2.9-3
					v-3.7C987.6,837.6,986.3,836.3,984.6,836.3z"/>
				<path id="rect5494" class="st1" d="M983.1,814.5L983.1,814.5c-1.6,0-3,1.4-2.9,3v3.7c0,1.6,1.4,3,3,2.9l0,0c1.6,0,3-1.4,2.9-3
					v-3.7C986.1,815.8,984.7,814.5,983.1,814.5z"/>
				<path id="path5496" class="st1" d="M956.3,809.3c0,2.8,1.8,5.1,4.1,5.1c2.2,0,4-2.3,3.9-5.2s-1.8-5.1-4.1-5.1
					C958,804.2,956.3,806.5,956.3,809.3z"/>
				<path id="path5498" class="st1" d="M958.8,809.3c0,1.5,0.7,2.7,1.6,2.7c0.9,0,1.5-1.2,1.5-2.7s-0.7-2.7-1.6-2.7
					S958.7,807.8,958.8,809.3z"/>
				<path id="path5500" class="st1" d="M979.4,808.3c0,1.8,0.9,3.2,2,3.2s2-1.5,2-3.3s-0.9-3.2-2-3.2
					C980.3,805.1,979.4,806.5,979.4,808.3z"/>
				<path id="path5502" class="st1" d="M972.2,804.9c-1.3,0-2.3,1.1-2.3,2.4l0.1,5.3l4.7-0.1l-0.1-5.3
					C974.5,805.9,973.4,804.9,972.2,804.9L972.2,804.9z"/>
				<path id="path5504" class="st1" d="M991.2,812.4l-4.2,0.2"/>
				<path id="rect5506" class="st1" d="M975,812.9l-4.9,0.1c-0.5,0-0.9,0.4-0.9,0.9l0,0c0,0.5,0.4,0.9,0.9,0.9l4.9-0.1
					c0.5,0,0.9-0.4,0.9-0.9l0,0C975.9,813.3,975.5,812.9,975,812.9z"/>
				<path id="rect5512" class="st1" d="M975.9,862.9l-13.8,0.2c-0.5,0-0.9,0.4-0.9,0.9v1.6c0,0.5,0.4,0.9,0.9,0.9l13.8-0.2
					c0.5,0,0.9-0.4,0.9-0.9v-1.6C976.8,863.3,976.4,862.9,975.9,862.9z"/>
				<path id="rect5522" class="st9" d="M959,863.6l-15.5,0.2c-0.5,0-0.9,0.4-0.9,0.9v1.5c0,0.5,0.4,0.9,0.9,0.9l15.5-0.2
					c0.5,0,0.9-0.4,0.9-0.9v-1.5C959.8,863.9,959.5,863.6,959,863.6z"/>
				<path id="path5528" class="st1" d="M994.3,852.1l2.2-2.5l-1.6-18.8"/>
				<path id="rect5572" class="st1" d="M945.3,858l12-0.9l1.6,6.3l-14.7,0.3L945.3,858z"/>
				<path id="path5582" class="st1" d="M963.8,857l10.6-0.7l0.8,6.4l-12.5,0.3L963.8,857z"/>
				<g id="g5735" transform="translate(138.88721,-0.288178)">
					<path id="path5737" class="st0" d="M848.4,861.4l-2.5,0.1l-0.5,6.3h4.2L848.4,861.4z"/>
					<g id="g5739" transform="matrix(-0.99999553,0.00298998,0.00298998,0.99999553,370.29501,-13.657347)">
						<path id="path5741" class="st3" d="M-476.8,882.8l4.8,0.1c0.8,0.9,1.1,2.2,0.6,3.2h-5.9C-478,885-477.7,883.6-476.8,882.8z"/>
						<path id="path5744" class="st3" d="M-474.1,876.3h1.5l0.5,6.4h-2V876.3z"/>
						<path id="path5746" class="st3" d="M-476.3,882.8l1.3-6.7"/>
						<path id="path5748" class="st3" d="M-476.5,870.7l4.7,0.8l-0.7,4.6l-2.7,0.2L-476.5,870.7z"/>
						<path id="path5750" class="st3" d="M-472.1,874.9l-3.6-0.2"/>
					</g>
				</g>
				<path id="path5752" class="st0" d="M976.6,801.2l9.6-0.3l4.1,53.1l-10.5,0.3L976.6,801.2z"/>
				<path id="path5756" class="st0" d="M974.2,857l-10.5,0.6l-1.3,4.9l13.2-0.3L974.2,857z"/>
				<path id="path5759" class="st0" d="M957.1,857.9l-11.7,0.7l-1,4.5l14-0.1L957.1,857.9z"/>
				<path id="rect5761" class="st0" d="M943.4,863.8h15.7c0.2,0,0.4,0.2,0.4,0.4v1.8c0,0.2-0.2,0.4-0.4,0.4h-15.7
					c-0.2,0-0.4-0.2-0.4-0.4v-1.8C943,863.9,943.2,863.8,943.4,863.8z"/>
				<path id="rect5763" class="st0" d="M962,862.9h14c0.3,0,0.5,0.2,0.5,0.5v2.2c0,0.3-0.2,0.5-0.5,0.5h-14c-0.3,0-0.5-0.2-0.5-0.5
					v-2.2C961.5,863.1,961.7,862.9,962,862.9z"/>
				<path id="rect5773" class="st0" d="M949.8,803l-20.4,1.4l6.4,54l25.9-2.4L949.8,803z"/>
			</g>
			<g id="g6172" transform="translate(88.395951,62.258942)">
				<path id="path6009" class="st1" d="M646.1,741.4l-43.5-2.4l-19.5-0.2l-1.3,23.4l-2,5.3l-24.7,18.7l25.4,3.2l1.6,2.7l57.2,3.5
					L646.1,741.4z"/>
				<path id="path6011" class="st1" d="M586.4,738.9l16.9-0.1l13,1l27.5,1.2"/>
				<path id="path6013" class="st1" d="M598.7,739.5l-3,53.4"/>
				<path id="path6015" class="st1" d="M588.9,739.4l-4,52.8"/>
				<path id="path6017" class="st1" d="M579.9,769.8l-15.8,12.3l-0.4,3.7l14.8,1.3"/>
				<path id="rect6019" class="st1" d="M634.8,754.4L634.8,754.4c1.6,0,3,1.4,2.9,3v3.7c0,1.6-1.4,3-3,2.9l0,0c-1.6,0-3-1.4-2.9-3
					v-3.7C631.8,755.7,633.1,754.4,634.8,754.4z"/>
				<path id="rect6021" class="st1" d="M633.2,776.4L633.2,776.4c1.6,0,3,1.4,2.9,3v3.7c0,1.6-1.4,3-3,2.9l0,0c-1.6,0-3-1.4-2.9-3
					v-3.7C630.2,777.7,631.5,776.4,633.2,776.4z"/>
				<path id="rect6023" class="st1" d="M590,773.3L590,773.3c1.6,0,3,1.4,2.9,3v3.7c0,1.6-1.4,3-3,2.9l0,0c-1.6,0-3-1.4-2.9-3v-3.7
					C587,774.6,588.4,773.3,590,773.3z"/>
				<path id="rect6025" class="st1" d="M591.6,751.5L591.6,751.5c1.6,0,3,1.4,2.9,3v3.7c0,1.6-1.4,3-3,2.9l0,0c-1.6,0-3-1.4-2.9-3
					v-3.7C588.6,752.8,589.9,751.5,591.6,751.5z"/>
				<path id="path6027" class="st1" d="M618.3,746.3c0,2.8-1.8,5.1-4.1,5.1c-2.2,0-4-2.3-3.9-5.2c0-2.8,1.8-5.1,4.1-5.1
					C616.6,741.2,618.4,743.5,618.3,746.3z"/>
				<path id="path6029" class="st1" d="M615.9,746.3c0,1.5-0.7,2.7-1.6,2.7c-0.9,0-1.5-1.2-1.5-2.7s0.7-2.7,1.6-2.7
					C615.2,743.6,615.9,744.8,615.9,746.3z"/>
				<path id="path6031" class="st1" d="M595.2,745.3c0,1.8-0.9,3.2-2,3.2s-2-1.5-2-3.3s0.9-3.2,2-3.2
					C594.4,742.1,595.3,743.5,595.2,745.3z"/>
				<path id="path6033" class="st1" d="M602.5,741.9c1.3,0,2.3,1.1,2.3,2.4l-0.1,5.3l-4.7-0.1l0.1-5.3
					C600.2,742.9,601.2,741.9,602.5,741.9L602.5,741.9z"/>
				<path id="path6035" class="st1" d="M583.5,749.4l4.2,0.2"/>
				<path id="rect6037" class="st1" d="M599.6,749.9l4.9,0.1c0.5,0,0.9,0.4,0.9,0.9l0,0c0,0.5-0.4,0.9-0.9,0.9l-4.9-0.1
					c-0.5,0-0.9-0.4-0.9-0.9l0,0C598.7,750.3,599.1,749.9,599.6,749.9z"/>
				<path id="rect6039" class="st1" d="M598.8,799.9l13.8,0.2c0.5,0,0.9,0.4,0.9,0.9v1.6c0,0.5-0.4,0.9-0.9,0.9l-13.8-0.2
					c-0.5,0-0.9-0.4-0.9-0.9v-1.6C597.9,800.3,598.3,799.9,598.8,799.9z"/>
				<path id="rect6041" class="st9" d="M615.7,800.6l15.5,0.2c0.5,0,0.9,0.4,0.9,0.9v1.5c0,0.5-0.4,0.9-0.9,0.9l-15.5-0.2
					c-0.5,0-0.9-0.4-0.9-0.9v-1.5C614.8,800.9,615.2,800.6,615.7,800.6z"/>
				<path id="path6043" class="st1" d="M580.4,789.1l-2.2-2.5l1.6-18.8"/>
				<path id="path6045" class="st1" d="M629.4,795l-12-0.9l-1.6,6.3l14.7,0.3L629.4,795z"/>
				<path id="path6047" class="st1" d="M610.9,794l-10.6-0.7l-0.8,6.4L612,800L610.9,794z"/>
				<g id="g6049" transform="matrix(-1,0,0,1,391.59953,-63.500638)">
					<path id="path6051" class="st0" d="M-195.7,861.6l-2.5,0.1l-0.5,6.3h4.2L-195.7,861.6z"/>
					<g id="g6053" transform="matrix(-0.99999553,0.00298998,0.00298998,0.99999553,370.29501,-13.657347)">
						<path id="path6055" class="st3" d="M567.4,879.9l4.8,0.1c0.8,0.9,1.1,2.2,0.6,3.2h-5.9C566.1,882.1,566.5,880.7,567.4,879.9z"
							/>
						<path id="path6057" class="st3" d="M570.1,873.4h1.5l0.5,6.4h-2V873.4z"/>
						<path id="path6059" class="st3" d="M567.9,879.9l1.3-6.7"/>
						<path id="path6061" class="st3" d="M567.7,867.8l4.7,0.8l-0.7,4.6l-2.7,0.2L567.7,867.8z"/>
						<path id="path6063" class="st3" d="M572,872l-3.6-0.2"/>
					</g>
				</g>
			</g>
		</g>
		<g id="layer6" transform="translate(-59.029987,-2.0355165)">
			<path id="path3594" class="st1" d="M717.5,458.9l-3.1-0.7c0.3-7.7,2.7-8.5,6.5-12.6"/>
			<path id="path3496" class="st1" d="M730,424.2l5.7,53.1l1,27.3l0.3,289.7l-3.1,4.2l-2.2,29.2l-3.8,30.5l-57.7-4l2-53.7h1.8v-1.6
				l-1.7-0.1l0,0l1-25.5l33.9-264.6l13.3-61.8l5.8-22.6L730,424.2z"/>
			<path id="path3504" class="st10" d="M702.2,547l31.9,2.9"/>
			<path id="path3506" class="st10" d="M698.8,575.5l35.5,3.8"/>
			<path id="path3518" class="st1" d="M683.8,694l49,2.8"/>
			<path id="path3522" class="st1" d="M680.4,717.5l52,4.2"/>
			<path id="path3528" class="st1" d="M674,765.8l57,3.3"/>
			<g id="g3682">
				<path id="path3524" class="st10" d="M677.5,742l53.8,3.9"/>
				<path id="path3526" class="st10" d="M685.2,742.3l2.4-24.2"/>
				<path id="path3530" class="st10" d="M711.7,768.3l0.4-23.8"/>
			</g>
			<path id="path3532" class="st1" d="M674,769.3c4.4,0,3.2-0.1,4.4,0s0,1.7,1.1,1.8s0.3-1.7,1.5-1.6c1.1,0.1,0.5,1.7,1.5,1.8
				s-0.2-1.8,1.5-1.6c1.7,0.1,0.2,1.7,1.3,1.9s0.2-1.5,1.4-1.5c1.2,0.1,0.4,1.7,1.5,1.8s0.2-1.7,1.4-1.6c1.2,0.2-0.1,1.7,1.2,1.8
				s0.5-1.7,1.9-1.5s0.2,1.9,1.5,1.9c1.4,0,0.1-1.9,1.5-1.7s0.1,1.9,1.8,2c1.1,0.1,1-2,2.8-1.8s0.1,1.9,2.1,2.2s0.2-2,2.8-1.7
				c2.5,0.3,0.2,2,1.9,1.9s0.6-1.6,2.2-1.5c1.7,0.1,0.7,1.7,2.2,1.8s0-1.7,2.2-1.6c2.1,0.1,0.1,1.6,1.9,1.8c1.2,0.1,0.6-1.7,1.7-1.6
				c1.1,0.1-0.1,1.7,1.3,1.7c1.5,0,0.3-1.7,1.7-1.6c1.4,0.1,0.3,2,1.6,1.9s0.8-1.8,1.5-1.7s0.7,1.7,1.4,1.7s0.7-1.8,1.5-1.7
				c0.7,0.1,0.5,1.9,1.2,2s0.5-1.9,1.3-1.8c0.7,0,0.6,1.8,1.3,1.9c0.7,0.2,0.5-0.9,1-1.3"/>
			<path id="path3534" class="st8" d="M690.6,799.4l1.2-27"/>
			<path id="path3536" class="st1" d="M682.5,699.5l49.6,2.8"/>
			<path id="path3538" class="st1" d="M681.3,712.8l50.1,3.9"/>
			<path id="path3540" class="st10" d="M720.3,715.1l1-12.8"/>
			<path id="path3542" class="st1" d="M708,506.7c8.9-2.1,17.7-1.7,26.6,0.1"/>
			<path id="path3544" class="st1" d="M707.3,510.5h27.1"/>
			<path id="path3548" class="st1" d="M673.9,800.5h16.8l13,1l27.9,1.7"/>
			<path id="path3574" class="st1" d="M727.8,800.8l-7.1-8.8l-4.6,7.9"/>
			<path id="path3576" class="st1" d="M731.9,802.1l-4-1.1l-37.1-1.9"/>
			<path id="path3586" class="st1" d="M719.1,452.1H733"/>
			<path id="path3588" class="st1" d="M718.9,454.7h14.6"/>
			<path id="path3590" class="st1" d="M719.4,449.6l13.1-0.1"/>
			<path id="path3592" class="st1" d="M723,435.8l7.9,0.3"/>
			<g id="g3670">
				<path id="path3502" class="st10" d="M706.1,518.9l29.3,1.4"/>
				<g id="g3660">
					<path id="path3508" class="st10" d="M703.9,577l3.2-28.9"/>
					<g id="g3652">
						<path id="path3510" class="st10" d="M694.5,605l39.6,2.8"/>
						<path id="path3512" class="st10" d="M690.5,634.2l43.9,2.9"/>
						<path id="path3514" class="st10" d="M697.2,634.4l3.2-28.9"/>
						<path id="path3516" class="st10" d="M687.4,664.5l45.9,2.8"/>
						<path id="path3520" class="st10" d="M690.5,693.7l3.3-28.9"/>
						<path id="path4335" class="st10" d="M728.4,667.2l0.9-29.6"/>
					</g>
				</g>
			</g>
			<path id="path4337" class="st10" d="M728.4,607.5l0.9-28.3"/>
			<path id="path4339" class="st10" d="M730,550.4l1.3-29.6"/>
			<g id="g3647">
				<path id="path3498" class="st10" d="M715.2,470.8l20,0.4"/>
				<path id="path3500" class="st10" d="M711.9,489.5l23.8,1.7"/>
				<path id="path4341" class="st10" d="M728.8,490.9l0.6-19.5"/>
			</g>
			<path id="rect4343" class="st1" d="M734.3,522.6l2.7,0.5l-1,131.4l-2.2,137.9l-2.4,0.2l2.3-138.3L734.3,522.6z"/>
			<path id="path5114" class="st1" d="M732.3,757.5l4.1,0.1"/>
			<path id="path5116" class="st1" d="M731.7,786.2h2.3"/>
			<path id="path5118" class="st1" d="M732.7,719.5l3.7,0.1"/>
			<path id="path5120" class="st1" d="M734.3,654.3l2.5,0.1"/>
			<path id="path5122" class="st1" d="M734.5,557.6l2.2,0.3"/>
			<path id="path5124" class="st1" d="M734.8,522.3l0.8-21"/>
			<path id="path5967" class="st1" d="M671.5,820.9l-3.5,7.6l-1.2,21.7l3,3.6"/>
			<g id="g5864" transform="translate(108,-16)">
				<g id="g5262">
					
						<rect id="rect5253" x="619.5" y="437.3" transform="matrix(-0.9998 1.794686e-02 -1.794686e-02 -0.9998 1249.3776 864.7779)" class="st3" width="2.6" height="1.3"/>
					
						<rect id="rect5255" x="618.3" y="438.7" transform="matrix(-0.9998 1.794686e-02 -1.794686e-02 -0.9998 1247.9155 867.5797)" class="st3" width="3.6" height="1.4"/>
					<path id="rect5259" class="st1" d="M623,428l0.7,5.6l-1.6,3.5l-2.1,0.1L623,428z"/>
				</g>
			</g>
			<path id="path4144" class="st1" d="M806.5,459.3l3.1-0.7c-0.3-7.7-2.1-9-5.9-13.1"/>
			<path id="path4046" class="st1" d="M794.8,424.9l-7,86.6l-0.4,164l1.7,112.2l5.2,40.6l3.2,30l58.4-3.7l-2.2-53.3l-2.3-0.1v-1.7
				l2.2-0.1l-1-25.8l-34.7-263.5l-13.5-62.8l-6.3-22.5L794.8,424.9z"/>
			<g id="g4610">
				<path id="path4048" class="st10" d="M808.8,471.5l-17.4,0.8"/>
				<path id="path4050" class="st10" d="M813.3,489.9l-24.7,2.5"/>
			</g>
			<path id="path4068" class="st1" d="M840.8,694.7l-51.3,3.6"/>
			<path id="path4072" class="st1" d="M844.3,718.2l-55.2,4.4"/>
			<path id="path4078" class="st1" d="M851.2,765.3l-62,3.7"/>
			<g id="g4630">
				<path id="path4074" class="st10" d="M847.3,742.7l-56.8,4.1"/>
				<path id="path4076" class="st10" d="M806.9,745.7l-2.3-24"/>
				<path id="path4080" class="st10" d="M838.4,766.1l-2.2-21.8"/>
			</g>
			<path id="path4082" class="st1" d="M851.6,768.6c0,0-2.8,0-4.1,0.7c-0.6,0.4-0.6,1.6-1.3,1.6s-0.8-1.7-1.5-1.6
				c-0.7,0.1-0.5,1.9-1.2,2c-0.8,0-0.8-1.9-1.5-1.8s-0.9,2-1.7,2.1s-1-1.8-1.8-1.8c-0.7,0-0.4,2.1-1.1,2.2c-0.7,0-1.2-1.8-1.9-1.8
				c-0.8,0.1-0.6,1.9-1.4,2c-0.8,0-0.7-1.9-2.4-1.8c-1.6,0.1-0.7,1.9-1.9,2.1c-1.2,0.2-0.5-1.8-2.5-1.7s-0.4,2.1-2.4,2.2
				c-2.1,0.1,0-1.8-2.7-1.8c-2.7-0.1-0.8,1.8-2.4,2.1s-0.3-1.8-2.3-1.7s-0.5,1.7-2.3,1.9s-1-2-2.4-1.8s-0.6,1.9-2,2.1
				c-1.4,0.2-0.7-2-2.1-1.8c-1.3,0.1-0.6,2.2-1.8,2.2s-0.5-2.1-1.8-2s-0.2,2.1-1.4,2.3s-0.6-2.1-1.8-2s-0.3,2.3-1.5,2.5
				s-0.5-2.3-1.5-2.2c-0.9,0.1-0.5,2.4-1.4,2.5s-0.5-2.3-1.4-2.3c-0.9,0.1-0.2,2.3-1.3,2.4c-1.1,0.1-1.3-3.3-2.8-2l-3.2,1.7"/>
			<path id="path4084" class="st8" d="M834.7,799.7l-2.2-27.2"/>
			<path id="path4086" class="st1" d="M842.2,700.2l-52.7,4.8"/>
			<path id="path4088" class="st1" d="M843.4,713.4l-54,4.1"/>
			<path id="path4090" class="st10" d="M830.8,714.5l-1-12.8"/>
			<path id="path4092" class="st1" d="M816.4,509.2l-30,1.6"/>
			<path id="path4094" class="st1" d="M816.4,505.7c-9.4-1.7-18.8-0.7-28.6,1.1"/>
			<path id="path4098" class="st1" d="M850.9,801.4l-16.9-0.1l-13,1l-27.5,1.2"/>
			<path id="path4124" class="st1" d="M799.3,801l4.9-8.2l5.6,10.3"/>
			<path id="path4126" class="st1" d="M793.5,803.6l-0.9-1.9l42-2"/>
			<path id="path4136" class="st1" d="M804.6,452.4l-12,0.1"/>
			<path id="path4138" class="st1" d="M805.7,455.1l-13.3,0.3"/>
			<path id="path4140" class="st1" d="M804.4,450.1h-11.7"/>
			<path id="path4142" class="st1" d="M800.9,437.6l-7.2-0.1"/>
			<g id="g4614">
				<path id="path4052" class="st10" d="M818.4,519.7l-30.5,1.7"/>
				<path id="path4054" class="st10" d="M822,547.1l-34.3,2.9"/>
				<path id="path4056" class="st10" d="M825.8,576.3l-37.8,3.5"/>
				<path id="path4058" class="st10" d="M815.2,547.6l-2.7-26.1"/>
				<path id="path4060" class="st10" d="M830.2,606l-42.4,2.6"/>
				<path id="path4123" class="st10" d="M793.3,579.3l-1.7-28.8"/>
				<path id="path4128" class="st10" d="M820.2,606.7l-3-29.6"/>
			</g>
			<g id="g4623">
				<path id="path4062" class="st10" d="M834.3,634.5l-46.3,3.6"/>
				<path id="path4066" class="st10" d="M837.2,665.2l-48.5,4.2"/>
				<path id="path4130" class="st10" d="M826.5,665.7l-3-30.6"/>
				<path id="path4132" class="st10" d="M796.7,636.6l-2.4-27.8"/>
				<path id="path4134" class="st10" d="M800.7,697.9l-1.7-28.5"/>
			</g>
			<g id="g5955" transform="matrix(-0.99999553,0.00298998,0.00298998,0.99999553,370.29501,-13.657347)">
				<path id="path5957" class="st3" d="M-477,882.7l4.8,0.1c0.8,0.9,1.1,2.2,0.6,3.2h-5.9C-478.2,884.9-477.9,883.6-477,882.7z"/>
				<path id="path5959" class="st3" d="M-474.3,876.2h1.5l0.5,6.4h-2V876.2z"/>
				<path id="path5961" class="st3" d="M-476.5,882.8l1.3-6.7"/>
				<path id="path5963" class="st3" d="M-476.7,870.6l4.7,0.8l-0.7,4.6l-2.7,0.2L-476.7,870.6z"/>
				<path id="path5965" class="st3" d="M-472.3,874.8l-3.6-0.2"/>
			</g>
			<g id="g5267" transform="matrix(-1,0,0,1,372.17615,-14.982242)">
				<polygon id="rect5269" class="st11" points="-424.9,438.4 -422.3,438.4 -422.3,438.4 				"/>
				<polygon id="rect5271" class="st11" points="-426.1,439.8 -422.5,439.8 -422.5,439.8 				"/>
				<path id="path5273" class="st1" d="M-421.3,427.8l0.7,5.6l-1.6,3.5l-2.1,0.1L-421.3,427.8z"/>
			</g>
			<path id="path3655" class="st1" d="M851.2,765.3l-62,3.7"/>
			<path id="rect4471" class="st8" d="M674.9,772.5l1.9,0.1c0.5,0,0.8,0.4,0.8,0.9l-0.3,8.3c0,0.5-0.4,0.8-0.9,0.8l-1.9-0.1
				c-0.5,0-0.8-0.4-0.8-0.9l0.3-8.3C674,772.9,674.4,772.5,674.9,772.5z"/>
			<path id="rect4473" class="st8" d="M850.6,772l-2.3,0.1c-0.5,0-0.8,0.4-0.8,0.9l0.4,9.2c0,0.5,0.4,0.8,0.9,0.8l2.3-0.1
				c0.5,0,0.8-0.4,0.8-0.9l-0.4-9.2C851.5,772.3,851.1,771.9,850.6,772z"/>
		</g>
		<g id="layer7" transform="translate(-59.029987,-2.0355165)">
			<path id="rect4429" class="st9" d="M780.3,862.8l-15.5,0.2c-0.5,0-0.9,0.4-0.9,0.9v1.5c0,0.5,0.4,0.9,0.9,0.9l15.5-0.2
				c0.5,0,0.9-0.4,0.9-0.9v-1.5C781.2,863.2,780.8,862.8,780.3,862.8z"/>
			<path id="rect4447" class="st9" d="M760.5,862.8L745,863c-0.5,0-0.9,0.4-0.9,0.9v1.5c0,0.5,0.4,0.9,0.9,0.9l15.5-0.2
				c0.5,0,0.9-0.4,0.9-0.9v-1.5C761.3,863.2,760.9,862.8,760.5,862.8z"/>
			<path id="path5758" class="st0" d="M758.2,425.2l8.1-0.2l11.4,75.1l4.2,65.7l10.8,196.3l0.4,35.2l-2,0.2l0.1,1.3l1.9,0.5
				l0.3,55.4h-60.7l-0.7-56.1l1.7-0.3l-0.1-1L732,797l-0.1-34.6l12-196.4l3.1-65.5L758.2,425.2z"/>
			<path id="path6122" class="st0" d="M791.7,799.1l-59.8-0.6l0.8,60.2l61,0.1L791.7,799.1z"/>
			<path id="rect4383" class="st12" d="M758.2,425.2h8.1l11.4,74.9l4.2,65.7l10.8,196.3l0.4,35.2l-2,0.2l0.1,1.3l1.9,0.5l0.3,59.4
				h-60.7l-0.7-60.1l1.7-0.3l-0.1-1L732,797l-0.1-34.6l12-196.4l3.1-65.5L758.2,425.2z"/>
			<g id="g4265" transform="matrix(0.99999985,5.5340596e-4,-0.00176402,1.0092806,84.372523,-103.72784)">
				<path id="path4267" class="st1" d="M664,607.3c10.3-1.1,19.8-1.8,29.9-0.7"/>
			</g>
			<g id="g4277" transform="matrix(0.99999985,5.5340596e-4,-0.00176402,1.0092806,84.656853,-104.2996)">
				<path id="path4279" class="st1" d="M663.2,603.8c10.8-0.7,20-0.6,30.3-0.2"/>
			</g>
			<path id="path4289" class="st12" d="M753.9,454.4h6.1"/>
			<path id="path4291" class="st12" d="M754.6,449.1h6.1"/>
			<path id="path4293" class="st12" d="M754.4,451.5h5.8"/>
			<path id="path4322" class="st12" d="M764.8,451.5l5.3-0.1"/>
			<path id="path4324" class="st12" d="M764.2,449h5.4"/>
			<path id="path4326" class="st12" d="M764.9,454.3h5.7"/>
			<path id="rect4319" class="st12" d="M762.5,445.2c1.5,0,2.4,8.7,2.5,13.3h-5C760,453.7,761.1,445.1,762.5,445.2L762.5,445.2z"/>
			<path id="path5695" class="st12" d="M732.5,772.1c0.4,0.4,0.6,1.2,1.2,1.2c0.6,0,1-1.2,1.6-1.2s0.4,1.1,0.9,1.1
				c0.6,0,1-1.3,1.6-1.1c0.6,0.1,0.5,1.6,1.1,1.6c0.7,0,0.6-2,1.3-2c0.6,0,0.4,1.6,1.1,1.7c0.6,0,0.9-1.7,1.5-1.7s0.7,1.6,1.3,1.6
				c0.7,0,1.1-1.6,1.8-1.6s0.9,1.4,1.6,1.4c0.7,0,0.8-1.7,1.6-1.7c0.7,0,1.1,1.4,1.8,1.4s0.6-1.3,1.3-1.3c0.7-0.1,1.2,1.2,1.9,1.1
				s0.4-1.1,1.4-1.3s3.1-0.1,4,0.1c0.8,0.1,0,0.6,0.8,0.8c0.8,0.1,3.1,0.2,4,0c0.9-0.1-0.3-0.7,1.3-0.8s6.5-0.1,8.1,0
				c1.3,0.2,1.5,1.5,3,1.5s0.8-1.6,2.2-1.5c1.3,0.1,1,1.8,1.6,1.8s0.9-1.3,1.5-1.3c0.6-0.1,0.9,1.2,1.4,1.2s0.7-1.4,1.3-1.4
				c0.5,0,1,1.7,1.6,1.7s1.2-1.3,1.8-1.3s0.8,1.5,1.3,1.5s1.1-1.4,1.6-1.4s1.1,0.5,1.7,0.6"/>
			<path id="path5697" class="st12" d="M740.4,766.8l-0.1,5.3"/>
			<path id="path5699" class="st12" d="M733.7,797.4l57.2,0.3"/>
			<path id="path5701" class="st12" d="M733.5,798.4l57.2,0.3"/>
			<path id="path5703" class="st12" d="M762.4,826.4c0.9,5.5,2,12.6,2,16c-0.1,3.4-0.2,5.2-0.6,7.6l-2.2-0.1
				c-0.4-2.3-1.2-3.6-1.3-7.4C760.2,838.7,761,831.6,762.4,826.4L762.4,826.4z"/>
			<path id="path5705" class="st1" d="M765.2,805.1c0,1.6-1.2,3-2.6,3c-1.4,0-2.6-1.3-2.6-3c0-1.6,1.2-3,2.6-3
				S765.2,803.5,765.2,805.1z"/>
			<path id="path5707" class="st12" d="M745.4,799l0.6,55.4h1l-0.9,8.2"/>
			<path id="rect7489" class="st0" d="M747.1,855.8l12.5-0.2l0.2,6.4l-13.5,0.5L747.1,855.8z"/>
			<path id="path4433" class="st9" d="M758.9,856.4l-12-0.1"/>
			<path id="path4721" class="st1" d="M732.8,856.5c9-2.7,20.7-1.9,30.7-1.8c10,0.1,19.8-0.5,29.7,2.1"/>
			<path id="path5740" class="st0" d="M765.8,855.7l12.5-0.2l0.8,6.7l-14.4,0.4L765.8,855.7z"/>
			<path id="path5709" class="st12" d="M778.4,799.2l0.7,56H778l1,7.1"/>
			<path id="path7723" class="st12" d="M746,862.5h33.1"/>
			<g id="g5711" transform="matrix(0.99999985,5.5340596e-4,-0.00176402,1.0092806,-395.19242,21.135564)">
				<path id="path5713" class="st1" d="M1169.4,831.6l2.1-0.1l0.9,2.7c1,0.5,1.6,2.4,0.9,3.6l0.3,3h-6.1l0.3-3.2
					c-0.9-1.3-0.2-3.2,1.1-3.3L1169.4,831.6z"/>
				<path id="path5715" class="st1" d="M1168.8,834.2l3.5,0.1"/>
				<path id="path5717" class="st1" d="M1167.9,837.5l5.3,0.1"/>
			</g>
			<g id="g5719" transform="matrix(0.99999985,5.5340596e-4,-0.00176402,1.0092806,-424.07194,20.782608)">
				<path id="path5721" class="st1" d="M1176.1,831.6h2.2l0.5,2.7c1,0.5,1.6,2.4,0.9,3.6l0.3,3h-6.1l0.3-3.2
					c-0.9-1.3-0.2-3.2,1.1-3.3L1176.1,831.6z"/>
				<path id="path5723" class="st1" d="M1175.2,834.2l3.5,0.1"/>
				<path id="path5725" class="st1" d="M1174.3,837.6l5.3,0.1"/>
			</g>
			<path id="path5727" class="st12" d="M750.8,853.1h3v4.6c0,1.2-0.4,2.6-1,3.2l-1.9-0.2L750.8,853.1z"/>
			<path id="path5729" class="st12" d="M754.2,854.8h5.4"/>
			<path id="path5731" class="st12" d="M754,857.9c0.9,0.3,1.6-0.1,1.6-0.9l0.1-1.9"/>
			<path id="path5743" class="st12" d="M754.1,861.6l0.6,3.7"/>
			<polygon id="rect5745" class="st12" points="761,855.6 764.3,855.6 764.3,861.1 761,861.1 			"/>
			<path id="path5747" class="st12" d="M759.2,855.5l1,6.8"/>
			<path id="path5749" class="st12" d="M765.9,855.5l-0.9,6.7"/>
			<path id="path5751" class="st12" d="M774.5,853l-3.3-0.1v4.6c0,1.2,0.5,2.7,1.2,3.3l2.3-0.1L774.5,853z"/>
			<path id="path5753" class="st12" d="M770.9,857.9c-0.9,0.3-1.6-0.1-1.6-0.9l-0.1-1.9"/>
			<path id="path5755" class="st12" d="M765.6,854.9h5.4"/>
			<path id="path5757" class="st12" d="M758.9,854.9c0.4-0.4,1.5-1.5,2.3-1.4s0.3,2,1.3,2s0.6-1.9,1.4-2s1.7,0.9,2.1,1.3"/>
			<g id="g5759" transform="matrix(0.99999985,5.5340596e-4,-0.00176402,1.0092806,-424.3219,20.52974)">
				<path id="path5761" class="st1" d="M1176.4,828.4c-2.1-0.2-1.9-2.4-1.9-4.1l2,0.1"/>
				<path id="path5763" class="st1" d="M1171.7,825.4h2.7"/>
				<path id="path5765" class="st1" d="M1179.1,823.8c-0.2-2.1-1.4-3.5-3.1-3.4v3.8"/>
				<path id="path5767" class="st1" d="M1174.7,824.3c-0.1-1.8,0.6-2.9,1.3-3.8"/>
			</g>
			<path id="path5769" class="st12" d="M746.4,858.9l4.2,0.1"/>
			<g id="g5771" transform="matrix(-0.99999985,-5.5340596e-4,-0.00176402,1.0092806,909.03621,21.267628)">
				<path id="path5773" class="st1" d="M132.9,828.4c-2.1-0.2-1.9-2.4-1.9-4.1l2,0.1"/>
				<path id="path5775" class="st1" d="M128.2,825.4h2.7"/>
				<path id="path5777" class="st1" d="M135.6,823.8c-0.2-2.1-1.4-3.5-3.1-3.4v3.8"/>
				<path id="path5779" class="st1" d="M131.2,824.3c-0.1-1.8,0.6-2.9,1.3-3.8"/>
			</g>
			<path id="path5781" class="st12" d="M774.8,858.7l4.2,0.1"/>
			<path id="path5783" class="st12" d="M762.2,826.9v11.7l0.2,11.3"/>
			<path id="path5785" class="st12" d="M736.8,798.4l0.5,56.3"/>
			<path id="path5787" class="st12" d="M787.9,798.8l0.5,56.3"/>
			<path id="rect5789" class="st12" d="M739.5,812.1h3.6c0.9,0,1.6,0.7,1.6,1.6v6.3c0,0.9-0.7,1.6-1.6,1.6h-3.6
				c-0.9,0-1.6-0.7-1.6-1.6v-6.3C737.8,812.9,738.6,812.1,739.5,812.1z"/>
			<path id="rect5791" class="st12" d="M739.6,832.9h3.6c0.9,0,1.6,0.7,1.6,1.6v6.3c0,0.9-0.7,1.6-1.6,1.6h-3.6
				c-0.9,0-1.6-0.7-1.6-1.6v-6.3C738,833.7,738.7,832.9,739.6,832.9z"/>
			<path id="rect5793" class="st12" d="M781.7,832.6h3.6c0.9,0,1.6,0.7,1.6,1.6v6.3c0,0.9-0.7,1.6-1.6,1.6h-3.6
				c-0.9,0-1.6-0.7-1.6-1.6v-6.3C780,833.3,780.8,832.6,781.7,832.6z"/>
			<path id="rect5795" class="st12" d="M781.3,811.8h3.6c0.9,0,1.6,0.7,1.6,1.6v6.3c0,0.9-0.7,1.6-1.6,1.6h-3.6
				c-0.9,0-1.6-0.7-1.6-1.6v-6.3C779.7,812.5,780.4,811.8,781.3,811.8z"/>
			<polygon id="rect5797" class="st12" points="767.7,822.9 771.3,822.9 771.2,829.5 767.6,829.5 			"/>
			<path id="rect5799" class="st12" d="M768.4,773.1h2.2c1.3,0,2.4,1.1,2.4,2.4v5.7c0,1.3-1.1,2.4-2.4,2.4h-2.2
				c-1.3,0-2.4-1.1-2.4-2.4v-5.7C765.9,774.2,767,773.1,768.4,773.1z"/>
			<path id="rect5801" class="st12" d="M757.2,772.6L757.2,772.6c1.7,0,3.1,1.4,3.1,3.1v4.6c0,1.7-1.4,3.1-3.1,3.1l0,0
				c-1.7,0-3.1-1.4-3.1-3.1v-4.6C754.1,774,755.5,772.6,757.2,772.6z"/>
			<path id="path5803" class="st12" d="M750.1,801.8c1.7,0,3.3,1.6,3.4,3.2l0.2,4.6h-7.2v-5.1C746.5,803,748.4,801.8,750.1,801.8
				L750.1,801.8z"/>
			<path id="path5805" class="st12" d="M747.8,809.9v1.9h4.4v-2.4"/>
			<path id="path5809" class="st12" d="M732.4,846.9h4.9"/>
			<path id="path5811" class="st12" d="M732.4,834c0.1,5.8,1.4,8.7,4.5,8.9"/>
			<path id="path5813" class="st12" d="M792.7,847h-4.9"/>
			<path id="path5815" class="st12" d="M792.8,834.1c-0.1,5.8-1.4,8.7-4.5,8.8"/>
			<path id="path5817" class="st12" d="M749.3,829.5c0.8-2,3-2,3.5,0.2s1.5,5.8,1.3,9.3h-6.7C747.9,835.6,748.5,831.5,749.3,829.5
				L749.3,829.5z"/>
			<path id="path5819" class="st1" d="M752.6,837.3c0,1-0.7,1.8-1.7,1.8c-0.9,0-1.7-0.8-1.7-1.8s0.7-1.8,1.7-1.8
				C751.8,835.6,752.6,836.3,752.6,837.3z"/>
			<polygon id="rect5821" class="st12" points="749.7,839.3 752.2,839.3 752.2,841.2 749.7,841.2 			"/>
			<polygon id="rect5823" class="st12" points="754.3,833.8 755.5,833.8 755.5,835.5 754.3,835.5 			"/>
			<polygon id="rect5825" class="st12" points="782.3,805.5 784.3,805.5 784.3,809.5 782.3,809.5 			"/>
			<polygon id="rect5827" class="st12" points="790.7,803.9 791.7,803.9 791.7,808.9 790.7,808.9 			"/>
			<polygon id="rect5829" class="st12" points="767,799.4 771.6,799.4 771.6,800.4 767,800.4 			"/>
			<path id="path5831" class="st1" d="M769.9,803.6c0,0.2-0.2,0.4-0.4,0.4s-0.4-0.2-0.4-0.4s0.2-0.4,0.4-0.4
				C769.7,803.1,769.9,803.3,769.9,803.6z"/>
			<path id="path5833" class="st13" d="M773.6,810.3h-2.4v-5.8c0-1.7,1.3-3,2.9-3h0.4c1.6,0,2.9,1.4,2.9,3v5.8h-1.7"/>
			<path id="path5835" class="st1" d="M775.9,810.4c0,0.6-0.4,1-0.9,1s-0.9-0.4-0.9-1s0.4-1,0.9-1
				C775.4,809.4,775.9,809.9,775.9,810.4z"/>
			<path id="path5837" class="st12" d="M760,773.9c1.8-0.2,3.7,0,5.1,0.6"/>
			<path id="path5839" class="st12" d="M760.8,775.8h4.4l-2.5,0.8c-0.1,0.3,0,1.3-1,1.3C760.6,777.9,761.1,776.3,760.8,775.8
				L760.8,775.8z"/>
			<path id="path5841" class="st12" d="M760.5,782.2l4.6-0.8l-2.3-0.4c-0.1-0.3-0.4-1.1-1.3-1C760.7,780.2,760.8,781.7,760.5,782.2
				L760.5,782.2z"/>
			<path id="path5843" class="st12" d="M789.2,772.6v24.7"/>
			<g id="g5742" transform="translate(108.60038,-16)">
				<path id="rect4386" class="st12" d="M652.1,422.8h3.1v6.2l0.9,10.2h1.3v1.7l-7.7,0.1v-1.7h1.2l1.2-10.4V422.8z"/>
				<path id="path4318" class="st12" d="M652.5,426h2.4"/>
				<path id="path4320" class="st12" d="M652.1,429.2h2.9"/>
				<path id="path4323" class="st12" d="M651.2,437.6h4.5"/>
				<path id="path4325" class="st12" d="M651,439.2h4.7"/>
				
					<rect id="rect4423" x="650.5" y="418.3" transform="matrix(-1.696338e-02 0.9999 -0.9999 -1.696338e-02 1083.9744 -226.9618)" class="st0" width="6.1" height="2.2"/>
			</g>
			<path id="path4449" class="st9" d="M777.9,856.5l-12-0.1"/>
		</g>
		<g id="layer8" transform="translate(-59.029987,-2.0355165)">
			<path id="path4188" class="st12" d="M736.7,698.6c13.8-1.4,37.5-2.4,51.6,0.7"/>
			<path id="path4190" class="st12" d="M735.1,712.6c14.4-2.2,40.5-1.8,54.2-0.7"/>
			<path id="path4285" class="st12" d="M734.7,717.2c15.4-3,41.7-2.1,55-0.6"/>
			<path id="path4299" class="st14" d="M748.7,697.9l-0.5,13.5"/>
			<g id="g4685" transform="translate(0.90004482,0)">
				<path id="path4287" class="st15" d="M732.6,743.5c15.3-5.5,42.8-3.7,57-0.3"/>
				<path id="path4307" class="st15" d="M768.5,715.5l0.6,24.3"/>
				<path id="path4309" class="st15" d="M744.7,741l-0.3,24.5"/>
			</g>
			<path id="path5693" class="st12" d="M732.7,766.7h59"/>
			<path id="path4252" class="st12" d="M736.9,693c14.4-1.5,37.1-2.4,50.3,0.2"/>
			<g id="g4705" transform="translate(0.90004482,0)">
				<path id="path4186" class="st15" d="M737.6,664.5c15.9-1.9,34.2-2.3,47.8-0.4"/>
				<path id="path4250" class="st15" d="M739.2,635c14-1.7,31.3-1.5,45,0.5"/>
				<path id="path4254" class="st15" d="M741.2,606.4c12.4-3.3,31-3.4,40.8-0.8"/>
				<g id="g4258" transform="matrix(0.99999985,5.5340596e-4,-0.00176402,1.0092806,82.947131,-15.690076)">
					<path id="path4256" class="st8" d="M660.8,586.8c10.8-2.6,27-2.7,37.9-0.4"/>
				</g>
				<g id="g4261" transform="matrix(0.99999985,5.5340596e-4,-0.00176402,1.0092806,82.819744,-55.942554)">
					<path id="path4263" class="st8" d="M662,596.9c10.3-2.6,25.4-2.5,35-0.2"/>
				</g>
				<path id="path4295" class="st15" d="M750.9,576.3l-1.2,27.6"/>
				<path id="path4297" class="st15" d="M749.7,633.8l-1.3,29.1"/>
				<path id="path4311" class="st15" d="M767.7,663.5l0.6,27.4"/>
				<path id="path4313" class="st15" d="M769,604.6l0.7,29.4"/>
				<path id="path4317" class="st15" d="M768,545.7l1.1,29.6"/>
				<g id="g4904" transform="matrix(0.99999985,5.5340596e-4,-0.00176402,1.0092806,83.250692,-91.431591)">
					<path id="path4906" class="st8" d="M663.3,605.6c9.3-1.2,22.3-1.7,31.6-0.6"/>
				</g>
			</g>
			<g id="g4679" transform="translate(0.90004482,0)">
				<g id="g4269" transform="matrix(0.99999985,5.5340596e-4,-0.00176402,1.0092806,84.34428,-132.85926)">
					<path id="path4271" class="st8" d="M664.6,616.7c8.2-1.7,18.7-1.5,26.6,0.2"/>
				</g>
				<g id="g4281" transform="matrix(0.99999985,5.5340596e-4,-0.00176402,1.0092806,83.520481,-157.13639)">
					<path id="path4283" class="st8" d="M667.8,622.6l21.9,0.1"/>
				</g>
			</g>
		</g>
		<g id="layer3" transform="translate(-59.029987,-2.0355165)">
			<polygon id="rect5288" class="st0" points="787.8,395.3 770.3,395.2 771.1,247.5 788.6,247.6 			"/>
			<path id="rect5300" class="st0" d="M762.2,78.4l21.7,137.1l-39.5-0.6L762.2,78.4z"/>
			<polygon id="rect5307" class="st0" points="791.2,241.9 767.9,241.7 768.1,215.8 791.4,216 			"/>
			<polygon id="rect5319" class="st0" points="793.8,247.7 771.6,247.5 771.6,241.8 793.8,242 			"/>
			<path id="path5323" class="st0" d="M797.5,424.4l19.1,86.7l-28.9-0.1l7.5-86.4L797.5,424.4z"/>
			<path id="rect5327" class="st0" d="M787.7,513l11.3-1l22,264.2c-4.3,15.7-13.5,23.5-27.9,26.8l-5.8-138.7L787.7,513z"/>
			<path id="path5353" class="st0" d="M746.8,502.6l7.4-0.1l0.3,161.7l-17.4,0.2l2.7-46.3L746.8,502.6z"/>
			<path id="path5365" class="st0" d="M736.9,664.3l19.7-0.2l-4.5,106.1c-3.5,14-9.3,24.7-20.6,27
				C730.3,761.8,735.4,699.8,736.9,664.3z"/>
			<path id="path5369" class="st0" d="M809.7,512.3l41.6,259.5l-26.8,1.9l-22.6-261.2L809.7,512.3z"/>
			<path id="path5373" class="st0" d="M707,509.2l21.1-0.2L709,637.7l-17.7-1.4L707,509.2z"/>
			<path id="path5377" class="st0" d="M687,664.8l24.2,1.4L699,774c-6.1,12.3-10.6,22.9-25.2,23.5L687,664.8z"/>
			<path id="rect5381" class="st0" d="M687.1,664.9l4.3-28.6l17.5,1.3l-3.3,28.1L687.1,664.9z"/>
			<path id="path5392" class="st0" d="M775.6,507.1l15.3,257.4l-16.2,1.9l-6.9-259.2L775.6,507.1z"/>
			<path id="path5396" class="st0" d="M781.2,510.9l19.9-86.5l-28.9,0.1l6.4,86.7L781.2,510.9z"/>
			<path id="path5400" class="st0" d="M789.5,228.3l-1.1,10.8l-0.5,8.8l4.1,0.1L789.5,228.3z"/>
			<path id="path5404" class="st0" d="M793.7,442.8l6.3,68.8l-11.7,0.7l1.2-26.8L793.7,442.8z"/>
			<path id="path5416" class="st0" d="M758.2,425.1l3.6,0.5l-3.9,76h-11.3L758.2,425.1z"/>
			<path id="path5420" class="st0" d="M765.3,424.8l11.7,77l-16.5-1.9l0.9-74.8L765.3,424.8z"/>
			<path id="path5424" class="st0" d="M745.2,272.9l1.2-14.1l-5.1-4.3c3.7-1.7,9.9-3.7,14.1-4.5l-1.3,25l2,0.6l2.7,121.1l-16.6,0.1
				l0.3-49L745.2,272.9z"/>
			<path id="path5428" class="st0" d="M732.4,256.2l6.5,0.5l-4.1,4.7l2.9,7l-1.8,126.3l-6.7,1.4l1.4-50.2L732.4,256.2z"/>
			<path id="path5432" class="st0" d="M724.8,425.1l3.6,0.5l-9,82.7l-11-0.9L724.8,425.1z"/>
			<path id="path5436" class="st0" d="M731,423.3l5.4,83.4h-13.9l5.4-67.8L731,423.3z"/>
			<path id="path5440" class="st0" d="M748.3,481.6l4.2-22.1l-1-62.3h-11.3L748.3,481.6z"/>
			<path id="path5444" class="st0" d="M737.7,503l4.8,0.1l-0.5-7.4l-6.8-98.8l-6-0.6l1.1,8.6c2.5,6.4,2.4,13.3,0,18.5L737.7,503z"/>
			<path id="rect5448" class="st0" d="M738.1,268.9l5.8-1.7c-1.7-3.6-0.8-6.9,1.3-8.3l0.5,6.3c-0.1,1.8,0.1,4.1-0.8,5.5l-3.5,128.1
				l-5.7-0.6L738.1,268.9z"/>
			<path id="rect5463" class="st0" d="M698.7,856.3l-10.4-0.6l-1.6,5.6h12.9L698.7,856.3z"/>
			<path id="rect5496" class="st16" d="M737.3,215.8c16.7,6.7,20.4,15.1,24.1,31.5l-29.2,0.2l2.6-20.3L737.3,215.8z"/>
			<path id="path6538" class="st0" d="M732.1,259.2c7-3.9,11.4-6.7,29.8-10.8l-30-0.2L732.1,259.2z"/>
			<polygon id="rect6542" class="st0" points="786.8,854.2 776.5,854.1 776.8,798.8 787.1,798.9 			"/>
			<polygon id="rect6562" class="st0" points="758.4,854.4 735.5,854.2 735.8,798.6 758.7,798.8 			"/>
			<polygon id="rect6574" class="st0" points="697.1,799.8 674.2,797.8 669.6,852.5 692.4,854.4 			"/>
			<path id="rect6590" class="st0" d="M670.2,824.2l-1.7,26.3l-25.7-2.8l24.6-17.7L670.2,824.2z"/>
			<path id="rect6611" class="st0" d="M732.3,803.8l-16.8-0.9l-2.8,53.7l16.4,0.1L732.3,803.8z"/>
			<path id="rect6620" class="st0" d="M739.5,257c2.3-0.3,3.5-0.5,5.3,1.2c-2.2,2.6-3.2,5.7-1.8,8.4l-5,1.5
				C733.5,266.7,737.4,258.5,739.5,257z"/>
			<path id="rect6824" class="st0" d="M686.5,862h14c0.3,0,0.5,0.2,0.5,0.5v2c0,0.3-0.2,0.5-0.5,0.5h-14c-0.3,0-0.5-0.2-0.5-0.5v-2
				C686,862.2,686.2,862,686.5,862z"/>
			<path id="rect6846" class="st0" d="M702.8,862.6H719c0.2,0,0.4,0.2,0.4,0.4v1.8c0,0.2-0.2,0.4-0.4,0.4h-16.3
				c-0.2,0-0.4-0.2-0.4-0.4V863C702.4,862.7,702.6,862.6,702.8,862.6z"/>
			<path id="path6860" class="st0" d="M716.9,857.5l-11.5-0.6l-1.7,5.1h14L716.9,857.5z"/>
			<path id="path6866" class="st0" d="M836.9,856.6l-10.5,0.6l-1.3,4.9l13.2-0.3L836.9,856.6z"/>
			<path id="path6870" class="st0" d="M819.8,857.6l-11.7,0.7l-1,4.5l14-0.1L819.8,857.6z"/>
			<path id="rect6874" class="st0" d="M806.1,863.4h15.7c0.2,0,0.4,0.2,0.4,0.4v1.8c0,0.2-0.2,0.4-0.4,0.4h-15.7
				c-0.2,0-0.4-0.2-0.4-0.4v-1.8C805.7,863.6,805.9,863.4,806.1,863.4z"/>
			<path id="rect6878" class="st0" d="M824.7,862.5h14c0.3,0,0.5,0.2,0.5,0.5v2.2c0,0.3-0.2,0.5-0.5,0.5h-14c-0.3,0-0.5-0.2-0.5-0.5
				V863C824.2,862.7,824.4,862.5,824.7,862.5z"/>
			<path id="rect4499" class="st0" d="M746.9,297.5l31.7,0.3L777,299h-30.1V297.5z"/>
			<path id="path4512" class="st0" d="M746.9,325.4l31.6-0.1l-1.1,1.8l-30.5-0.1V325.4z"/>
			<path id="path4516" class="st0" d="M751.7,352.3h22l-2.4,1.6h-19.6V352.3z"/>
			<path id="rect4520" class="st0" d="M745.7,277.3l1.3-2.1l-0.1,23.9h-1.4L745.7,277.3z"/>
			<path id="path4590" class="st0" d="M745.7,305.2l1.3-2.1l-0.1,23.9h-1.4L745.7,305.2z"/>
			<path id="path4594" class="st0" d="M750.6,338.9l1.3-1.4l-0.1,16.3h-1.4L750.6,338.9z"/>
			<path id="rect4598" class="st0" d="M729.2,275.9h2.8l-0.6,21.6l-2.4-0.3l0.1-5.5l-0.9-0.1v-9.5l1.3-0.3L729.2,275.9z"/>
			<path id="path4602" class="st0" d="M728.8,304h2.8l-0.6,21.6l-2.4-0.3l0.1-5.5l-0.9-0.1v-9.5l1.3-0.3L728.8,304z"/>
			<path id="path4604" class="st0" d="M728.3,338h2.4l-0.5,14h-2.1l-0.1-2.8l-0.9-0.1v-9.5l1.3-0.3L728.3,338z"/>
			<path id="rect4606" class="st0" d="M762.2,79.3l0.3,23.2l-9.9,113.4l-14.7-0.2L762.2,79.3z"/>
			<path id="path4619" class="st0" d="M737.9,215.3l16.3,1.2l-5.7,30.6l-16.4,0.4l2.8-21.2L737.9,215.3z"/>
			<path id="path4623" class="st0" d="M762.9,226.5l-4,11.5l-0.5,8.8c1.4,0,1.4,2.7,4.1,0.1L762.9,226.5z"/>
			<path id="rect6210" class="st0" d="M758.5,312l3.2-1.1c-0.2,0.4-0.4,0.7-0.5,1.1v6.9c0.2,0.9,0.6,1.4,1.6,1.5l-1.6,0.9l-2.9,0.7
				L758.5,312z"/>
			<path id="path6999" class="st0" d="M758.4,283.5l3.2-1.1c-0.2,0.4-0.4,0.7-0.5,1.1v6.9c0.2,0.9,0.6,1.4,1.6,1.5l-1.6,0.9
				l-2.9,0.7L758.4,283.5z"/>
			<path id="path7003" class="st0" d="M758.5,256.1l3.2-1.1c-0.2,0.4-0.4,0.7-0.5,1.1v7h1.7l-4.4,3V256.1z"/>
			<path id="path7007" class="st0" d="M758.5,341.5l3.2-1.1c-0.2,0.4-0.4,0.7-0.5,1.1v6.9c0.2,0.9,0.6,1.4,1.6,1.5l-1.6,0.9
				l-2.9,0.7L758.5,341.5z"/>
			<path id="rect7011" class="st0" d="M734.1,227.2l-2.4,20l-2.5-3.4L734.1,227.2z"/>
		</g>
	</g>
	<g id="layer1_00000140007628273627506100000006793785863417833134_" transform="translate(-64.994 -287.33)">
		<path id="path3638" class="st17" d="M513.1,1100.9c0,5.1-4.1,9.2-9.2,9.2s-9.2-4.1-9.2-9.2s4.1-9.2,9.2-9.2
			C509,1091.7,513.1,1095.8,513.1,1100.9z"/>
	</g>
	<g id="layer2_00000081620343750763749310000002701246992517618578_" transform="translate(-64.994 -287.33)">
		<path id="path4150" class="st18" d="M500.6,1092.5c0-0.1-0.3-0.4-0.3-0.4l-1.9,0.2c-1.3,1.3-2.6,2.7-3.9,4l-0.1,0.5
			c-10.9,13-17.8,20.3-32.4,39.4l0.2,0.2c10.3-13.8,33.1-39.3,33.1-39.3s0.2,0.1,0.2,0l3.4-3.5L500.6,1092.5L500.6,1092.5z"/>
		<path id="path4174_00000054256899922530395490000003284427500057616791_" class="st18" d="M495.7,1104.7c0,0-10.6,31.9-13.6,42.4
			l0.4,0.1c1.3-5.4,13.4-40.3,13.4-40.3l0.2,0.1l0.5-1.7c-0.2-0.1-0.5-0.5-0.5-0.7L495.7,1104.7L495.7,1104.7z"/>
		<path id="path4176" class="st18" d="M509.5,1094.2l0.4,1.3l0.2,0.1l0.4,1.4h-0.2l0.4,2.2c0,0,23.9,38.8,29.5,49.4l0.3-0.2
			c-3-5.8-29-49.2-29-49.2v-0.7l-1.1-3.5L509.5,1094.2L509.5,1094.2z"/>
		<path id="path4178" class="st18" d="M509.9,1106.8c0,0,11.1,28.2,15.2,40.9l0.7,1.6h0.3l-0.1-0.3c-0.5-1.4-15.2-43.2-15.2-43.2
			C510.7,1106.1,510.5,1106.4,509.9,1106.8L509.9,1106.8z"/>
	</g>
	<g id="Capa_8">
	</g>
	<g id="Capa_2_00000106134386737390259590000013957161018487999143_">
	</g>
	<g id="Capa_3">
	</g>
	<g id="Capa_4">
	</g>
	<g id="Capa_6">
	</g>
	<g id="Capa_7">
	</g>
	<g id="Capa_10">
		<text transform="matrix(1 0 0 1 43.7134 807.226)" class="st19 st20 st21">2,9 metros</text>
		<text transform="matrix(1 0 0 1 125.8587 81.9691)" class="st19 st20 st21">31,07 metros </text>
		<text transform="matrix(1 0 0 1 696.4595 911.1688)" class="st19 st20 st21">R-7</text>
		<text transform="matrix(1 0 0 1 391.8464 911.1687)" class="st19 st20 st21">Sputnik-1</text>
	</g>
	<g id="Capa_2_00000020373281066464888610000000260007390292057249_">
	</g>
	
		<image style="overflow:visible;" width="2481" height="2661" xlink:href="../../Downloads/persona_Animales.png"  transform="matrix(2.278550e-02 0 0 2.278550e-02 249.1646 809.0983)">
	</image>
	<line class="st22" x1="165.3" y1="802" x2="416.3" y2="802"/>
	<line class="st22" x1="276.6" y1="76.4" x2="691.4" y2="76.4"/>
</g>
<g id="Capa_2">
</g>
</svg>
