<?xml version="1.0" encoding="utf-8"?>
<!-- Generator: Adobe Illustrator 26.0.0, SVG Export Plug-In . SVG Version: 6.00 Build 0)  -->
<svg version="1.1" xmlns="http://www.w3.org/2000/svg" xmlns:xlink="http://www.w3.org/1999/xlink" x="0px" y="0px"
	 viewBox="0 0 936 923.4" style="enable-background:new 0 0 936 923.4;" xml:space="preserve">
<style type="text/css">
	.st0{display:none;}
	.st1{display:inline;stroke:#000000;stroke-miterlimit:10;}
	.st2{fill:none;stroke:#FFFFFF;stroke-miterlimit:10;}
	.st3{fill:none;stroke:#FFFFFF;}
	.st4{fill:none;stroke:#FFFFFF;stroke-width:0.8702;}
	.st5{fill:none;stroke:#FFFFFF;stroke-width:1;stroke-miterlimit:4;}
	.st6{fill:none;stroke:#FFFFFF;stroke-width:1.5;}
	.st7{fill:none;stroke:#FFFFFF;stroke-width:0.3599;}
	.st8{fill:none;stroke:#FFFFFF;stroke-width:0.5;}
	.st9{fill:none;stroke:#FFFFFF;stroke-width:0.9865;}
	.st10{fill:none;stroke:#FFFFFF;stroke-opacity:0.5294;}
	.st11{fill:none;stroke:#FFFFFF;stroke-width:1.0381;}
	.st12{fill:none;stroke:#FFFFFF;stroke-opacity:0.5291;}
	.st13{fill:none;stroke:#FFFFFF;stroke-width:1;stroke-miterlimit:3.9998;}
	.st14{fill:none;stroke:#FFFFFF;stroke-miterlimit:4.0001;}
	.st15{fill:none;stroke:#FFFFFF;stroke-width:1.0046;}
	.st16{fill:none;stroke:#FFFFFF;stroke-width:0.9838;}
	.st17{fill:none;stroke:#FFFFFF;stroke-width:1;stroke-miterlimit:10.0004;}
	.st18{fill:none;stroke:#FFFFFF;stroke-width:1.0046;stroke-opacity:0.5291;}
	.st19{fill:none;stroke:#FFFFFF;stroke-width:1.0046;stroke-opacity:0.5294;}
	.st20{opacity:0.57;fill:none;stroke:#FFFFFF;stroke-miterlimit:10;enable-background:new    ;}
	.st21{fill:#FFFFFF;stroke:#FFFFFF;stroke-miterlimit:10;}
	.st22{fill:#FFFFFF;stroke:#FFFFFF;stroke-width:0.5654;}
	.st23{fill:#FFFFFF;}
	.st24{font-family:'ArialMT';}
	.st25{font-size:24px;}
	.st26{fill:none;stroke:#FFFFFF;stroke-width:3;stroke-dasharray:5;}
</style>
<g id="Capa_2" class="st0">
	<rect class="st1" width="936" height="923.4"/>
</g>
<g id="Capa_1">
	<g id="Capa_1_00000078015821511471695660000007726415897456808079_">
		<g id="Capa_1_00000175314798048644071070000006823440717848647071_">
			<g id="layer2" transform="translate(-59.029987,-2.0355165)">
				<path id="path4119" class="st2" d="M797.9,855.4l5.2-0.5l10.3-0.1l-0.4-14.1l-7.7-18.6l1.7-70.2l0.1-240l7.6-87.4l-2.4-9.6
					c1.4-3.1,2.6-10.3,4-13.4l-4.2-153.6l2.6-3.8l-8.3-29L781.8,76.2L757,215.6l-7.7,28.2l2.7,4l-2.8,153.1l0.4,3.6
					c1.1,3.1,1.7,6.1,2.2,9.9c0.6,5-1.2,5.7-2,8.4l5.7,53.5l1.5,35.3l0.1,234.6c1.2,25.7,0.7,51.3,1,77l-6.9,19.8l-0.2,11.8
					l10.7-0.2l4.8,0.6L797.9,855.4z"/>
				<path id="rect6631" class="st2" d="M765.6,861.1h15.1c0.7,0,1.3,0.8,1.3,1.7l0,0c0,0.9-0.6,1.7-1.3,1.7h-15.1
					c-0.7,0-1.3-0.8-1.3-1.7l0,0C764.3,861.8,764.9,861.1,765.6,861.1z"/>
				<path id="rect6639" class="st2" d="M784.2,861.1h15.1c0.7,0,1.3,0.8,1.3,1.7l0,0c0,0.9-0.6,1.7-1.3,1.7h-15.1
					c-0.7,0-1.3-0.8-1.3-1.7l0,0C783,861.8,783.5,861.1,784.2,861.1z"/>
				<path id="path6641" class="st2" d="M779.9,866.1c-1.2-1.5-1.4-3.5-0.1-4l0.6-2.8h3.3l0.7,3c1.6,0.4,0.9,2.9,0.4,3.9l0.3,3
					l-5.7,0.1L779.9,866.1z"/>
				<path id="rect6644" class="st2" d="M767.1,854.9l12.6,0.1l1.4,6.2l-15-0.1L767.1,854.9z"/>
				<path id="path6647" class="st2" d="M785.2,855.1l12.6,0.1l1.4,6.2l-15.5-0.1L785.2,855.1z"/>
				<path id="rect6649" class="st2" d="M758.9,801.5l46.4,1.1l-0.1,19.6l8.1,19.1l0.3,13.5l-29.4,0.2v3.6l-3.7-0.3l-0.3-3.4
					l-28.8-0.2l-0.1-12.4l7-20.2L758.9,801.5z"/>
				<path id="rect7358" class="st2" d="M752.6,859.4l1-1.7l2.7,1.1l0.6,7.3l-4.6-0.2L752.6,859.4z"/>
				<path id="path7366" class="st2" d="M807.4,861l2.8-0.3c-0.2-1.6,0.9-2,2.5-2c0.2,1.3,0.1,2.6-0.6,3.4l-0.1,4.2l-5-0.1L807.4,861
					z"/>
				<path id="rect7368" class="st2" d="M753.1,855.2h4.2l-1.7,4.4l-1.4,0.1L753.1,855.2z"/>
				<path id="rect7373" class="st2" d="M806.1,855.2h6.3l0.4,3.5l-2.3-0.1l-0.6,2h-2.6L806.1,855.2z"/>
			</g>
			<g id="g4273" transform="translate(106.07573,-132.6591)">
			</g>
			<g id="g4577" transform="matrix(0.99999215,-0.00396137,0.00396137,0.99999215,81.205281,-3.603116)">
				<path id="rect4439" class="st3" d="M638.8,796.7c2.3-0.1,4.1,5,3.3,8.4c-2,1.4-4.5,1.6-6.8,0C635,801.2,636.4,796.8,638.8,796.7
					z"/>
				<path id="path4442" class="st4" d="M638.8,797.2c2-0.1,3.5,4.4,2.9,7.3c-2.2,0.5-3.8,0.2-5.9,0
					C635.5,801.2,636.8,797.4,638.8,797.2z"/>
				<path id="path4444" class="st3" d="M636,802l5.9,0.3"/>
				<path id="path4446" class="st3" d="M638.8,802v-4.6"/>
			</g>
			<path id="path4192" class="st3" d="M701.9,393.6h55.2"/>
			<path id="path4208" class="st3" d="M693.3,245.8h59.8"/>
			<path id="path4216" class="st3" d="M704.5,797.5l-0.8-2.8l-0.1-5l-1.2-3.9l0.1-109.3v-63.2l0.4-64l0.2-42.4l0.7-12.4l-7.2-95.6
				l2.2-132.4c-2.9-0.7-2.8-4.9-1.5-7.2c1.3-2.3,1.7-4.7,4.2-4.9s5.2,1.2,5.4,3.5c0.2,2.3,0.6,11.2-0.9,11l-3.8,128.8l9.3,105.3
				l-1.6,282.7l-1.4,3.8l-0.1,5.3l-0.8,2.7H704.5z"/>
			<path id="path4032" class="st3" d="M702.6,786.5l7.3-0.1"/>
			<path id="path4034" class="st3" d="M703.2,789.3l5.4-0.1"/>
			<path id="path4036" class="st3" d="M703.4,794.5l5.4-0.1"/>
			<path id="path4038" class="st3" d="M704.5,264.9l-4.3,135.3l8.7,104.3l-0.5,281.8l-0.3,2.7"/>
			<path id="path4057" class="st3" d="M710.3,749.8c0.4-0.1,0.7-0.6,1.2-0.4c0.5,0.2,0.7,1.3,1.4,1.3s0.9-1.3,1.6-1.3
				c0.7,0,1.1,1.2,1.8,1.2s0.9-1.3,1.6-1.3c0.8,0,1.2,1.3,2,1.4c0.8,0,1.2-1.2,1.9-1.2s1,1.2,1.7,1.2s0.9-1.3,1.6-1.3
				c0.7,0,0.9,1.2,1.7,1.2s1.4-1.2,2.2-1.2s1.3,1.3,2.1,1.3s1.1-1.1,1.8-1.1s0.9,1,1.6,1c0.7,0,1.2-1.1,1.9-1.1s1,1.2,1.7,1.2
				s1-1.1,1.6-1.1s0.7,1.2,1.3,1.1c0.6,0,0.7-1.3,1.4-1.3c0.6,0,0.7,1.3,1.3,1.3s0.6-1.3,1.2-1.3s1.2,0.4,1.7,1.2"/>
			<path id="path4061" class="st3" d="M702.8,676.9l7.8,0.1"/>
			<path id="path4063" class="st3" d="M699.9,797.6l0.1-286.8l2.8-8.4"/>
			<path id="path4069" class="st3" d="M699.6,821.3H720"/>
			<path id="path4071" class="st3" d="M726.8,821.4l19.2,0.1"/>
			<path id="path4073" class="st3" d="M701.5,835.4h1.7c-0.2-4.6,0.2-10.4,3.1-10.4c3,0,3.7,6.9,3,10.4h4.7l7.5-17.8
				c0.7-1,2.7-1,3.4-0.1l7.4,17.7h4.6c-0.4-3.8-0.6-10.2,3-10.2s3.5,6.7,3,10.4h1.4"/>
			<path id="path4075" class="st3" d="M713.4,852.2l-0.1-13.1l8.2-20.6c0.7-1,2.7-1,3.4-0.1l7.9,20.7l1.3,13.5"/>
			<path id="rect4079" class="st3" d="M720.9,864c-1.2-1.5-1.4-3.5-0.1-4l0.6-2.8h3.3l0.7,3c1.6,0.4,0.9,2.9,0.4,3.9l0.3,3l-5.7,0.1
				L720.9,864z"/>
			<g id="g4093" transform="matrix(0.99999215,-0.00396137,0.00396137,0.99999215,81.205281,-3.603116)">
				<path id="path4077" class="st3" d="M614.9,827l-7.7,19.4v12.5h10.9"/>
				<path id="path4083" class="st3" d="M607.5,845.1l10.9,0.3"/>
				<path id="path4085" class="st3" d="M607.3,847l10.9,0.3"/>
				<path id="path4087" class="st3" d="M607.5,848.9l10.9,0.3"/>
				<path id="path4089" class="st3" d="M611.2,849.2v9.5"/>
				<path id="path4091" class="st3" d="M615.1,849.5l-0.3,9.1"/>
			</g>
			<g id="g4101" transform="matrix(-0.99999215,0.00396137,0.00396137,0.99999215,390.93201,-4.830068)">
				<path id="path4103" class="st3" d="M-352.3,825.2l-7.9,21.3V859h10.3"/>
				<path id="path4105" class="st3" d="M-359.8,845.1l10.9,0.3"/>
				<path id="path4107" class="st3" d="M-360.1,847l10.9,0.3"/>
				<path id="path4109" class="st3" d="M-359.8,848.9l10.9,0.3"/>
				<path id="path4111" class="st3" d="M-356.2,849.2l-0.3,9.6"/>
				<path id="path4113" class="st3" d="M-352.3,849.5l-0.3,9.1"/>
			</g>
			<g id="g4119" transform="matrix(0.99999215,-0.00396137,0.00396137,0.99999215,81.205281,-3.603116)">
				<path id="path4115" class="st3" d="M623,858.8l-1.1,6.1c-1.7-0.2-1.9,3.3-0.1,3.7l13.6,0.1"/>
				<path id="path4117" class="st3" d="M621.9,864.9l14.2,0.1"/>
			</g>
			<g id="g4123" transform="matrix(-0.99999215,0.00396137,0.00396137,0.99999215,391.3621,-4.651854)">
				<path id="path4125" class="st3" d="M-344.3,859.1l-1.1,5.7c-1.7-0.2-1.9,3.3-0.1,3.7l13.7-0.2"/>
				<path id="path4127" class="st3" d="M-345.3,864.8l14.8,0.1"/>
			</g>
			<g id="g4133" transform="matrix(0.99999215,-0.00396137,0.00396137,0.99999215,81.205281,-3.603116)">
				<path id="path4129" class="st3" d="M627.3,852.3c0,3.2-2.2,5.8-4.8,5.8s-4.8-2.6-4.8-5.8s2.2-5.8,4.8-5.8
					S627.3,849.1,627.3,852.3L627.3,852.3z"/>
				<path id="path4131" class="st3" d="M618.2,851.9l9.2-0.3"/>
			</g>
			<g id="g4137" transform="matrix(0.99999215,-0.00396137,0.00396137,0.99999215,122.40643,-3.586413)">
				<path id="path4139" class="st3" d="M618.1,852.3c0,3.2-2.2,5.8-4.8,5.8c-2.7,0-4.8-2.6-4.8-5.8s2.2-5.8,4.8-5.8
					S618.1,849.1,618.1,852.3L618.1,852.3z"/>
				<path id="path4141" class="st3" d="M608.7,851.6l9.5-0.1"/>
			</g>
			<path id="path4145" class="st3" d="M721,860.1h4.3"/>
			<path id="path4147" class="st3" d="M720.8,864.1h5.1"/>
			<path id="path4149" class="st3" d="M713.1,839.5l19.8,0.1"/>
			<path id="path4151" class="st3" d="M713.3,841l19.8,0.1"/>
			<path id="path4153" class="st3" d="M713.3,843.1l19.8,0.1"/>
			<path id="path4155" class="st3" d="M730.8,841.1l0.1,2.2"/>
			<path id="path4157" class="st3" d="M720.2,841.1l0.1,2.2"/>
			<path id="path4159" class="st3" d="M714.8,840.9l-0.1,2.1"/>
			<path id="path4161" class="st3" d="M717.1,840.9l-0.1,2.2"/>
			<path id="path4163" class="st3" d="M723.2,841.1l0.1,2.2"/>
			<path id="path4165" class="st3" d="M729.2,841.1l0.1,2.2"/>
			<path id="path4167" class="st3" d="M726.5,841.1l0.1,2.2"/>
			<path id="path4169" class="st3" d="M719.5,843.3l0.1,9.1"/>
			<path id="path4171" class="st3" d="M718.2,843.1l0.1,9.1"/>
			<path id="path4173" class="st3" d="M728.1,843.3l0.1,9.1"/>
			<path id="path4175" class="st3" d="M726.8,843.5l0.1,9.1"/>
			<path id="path4191" class="st3" d="M711.1,509.9h2.1l0.2,1.6h1.5l0.4-1.6h2.1l0.4,1.7h1.3l0.4-1.7h1.9l0.2,1.7h1.4l0.4-1.6h1.9
				l0.4,1.7l1.5-0.1l0.3-1.5l1.9-0.1l0.2,1.5h1.4l0.3-1.5h6.3l0.1,1.7l1.6,0.1l-0.1-1.7l8.7,0.1"/>
			<path id="path4193" class="st3" d="M711.4,521.9h36.9"/>
			<path id="path4195" class="st3" d="M711,522.7l37.3-0.2"/>
			<path id="rect4197" class="st3" d="M741.2,510.7h1.8c1,0,1.9,0.8,1.9,1.9v6.5c0,1-0.8,1.9-1.9,1.9h-1.8c-1,0-1.9-0.8-1.9-1.9
				v-6.5C739.3,511.5,740.1,510.7,741.2,510.7z"/>
			<path id="rect4199" class="st3" d="M733.4,516.4h0.9c1,0,1.9,0.8,1.9,1.9v3.1h-4.6v-3.1C731.5,517.3,732.4,516.4,733.4,516.4
				L733.4,516.4z"/>
			<path id="path4203" class="st3" d="M732.6,514.4h0.7c0.8,0,1.4-0.7,1.4-1.6v-2.7h-3.5v2.7C731.2,513.7,731.8,514.4,732.6,514.4
				L732.6,514.4z"/>
			<path id="rect4205" class="st3" d="M705.2,809.7h4.4c1,0,1.9,0.8,1.9,1.9v6.3c0,1-0.8,1.9-1.9,1.9h-4.4c-1,0-1.9-0.8-1.9-1.9
				v-6.3C703.3,810.5,704.1,809.7,705.2,809.7z"/>
			<path id="rect4207" class="st3" d="M737,810.1h4.4c1,0,1.9,0.8,1.9,1.9v6.3c0,1-0.8,1.9-1.9,1.9H737c-1,0-1.9-0.8-1.9-1.9V812
				C735.2,811,736,810.1,737,810.1z"/>
			
				<rect id="rect4209" x="730" y="810" transform="matrix(1 -3.961277e-03 3.961277e-03 1 -3.2087 2.9027)" class="st5" width="2.4" height="2.9"/>
			<path id="path4211" class="st6" d="M731.2,801.9v8.3"/>
			<path id="path4213" class="st6" d="M731.2,813.1l0.1,19.8"/>
			<path id="rect4215" class="st3" d="M720.9,849.7c0.5-1.6,0.4-3.3,2.3-4.7c1.4,1.1,1.4,3.1,2.1,4.7v7h-4.4V849.7z"/>
			<path id="path4219" class="st3" d="M721.1,850l4.1-0.1"/>
			<path id="path4221" class="st3" d="M716.9,853c-0.4,2.9,1.5,4.9,4.1,3.7v-3.8L716.9,853z"/>
			<path id="path4223" class="st3" d="M728.6,852.9c0.5,1.9-0.4,3.5-3.1,2.2v-2.2H728.6z"/>
			<path id="path4225" class="st3" d="M702.8,739.1l7.8,0.1"/>
			<path id="path4227" class="st3" d="M706.4,825.2c1.6,3.2,2.3,6.9,1.9,10.1c-1.3,0.8-3.3,0.2-4.8-0.4"/>
			<path id="path4229" class="st3" d="M703.4,833.4l4.9,0.1"/>
			<path id="path4231" class="st3" d="M739.9,825.2c-1.5,3.2-2.2,6.9-1.9,10.1c1.3,0.8,3.3,0.2,4.8-0.4"/>
			<path id="path4233" class="st3" d="M737.9,833.8l4.9,0.1"/>
			<path id="path4235" class="st3" d="M708.1,835.4l1.7-0.1"/>
			<path id="path4237" class="st3" d="M736.6,835.1l1.3,0.2"/>
			<path id="path4239" class="st3" d="M699.3,797.7l19.6,0.3"/>
			<path id="path4241" class="st3" d="M699.1,799.6l19.6,0.3"/>
			
				<rect id="rect4243" x="745.2" y="796.4" transform="matrix(1 -3.961277e-03 3.961277e-03 1 -3.16 2.9642)" class="st5" width="3.1" height="5.6"/>
			<path id="rect4245" class="st3" d="M731.8,796.3l20.6-0.1c1.6,0,2.8,1.3,2.8,2.8v0.1c0,1.6-1.3,2.8-2.8,2.8l-20.6,0.1
				c-1.6,0-2.8-1.3-2.8-2.8v-0.1C728.9,797.6,730.2,796.3,731.8,796.3z"/>
			<path id="rect4260" class="st3" d="M732.5,798l19.4-0.1c0.7,0,1.2,0.5,1.2,1.2l0,0c0,0.7-0.5,1.2-1.2,1.2l-19.4,0.1
				c-0.7,0-1.2-0.5-1.2-1.2l0,0C731.3,798.5,731.8,798,732.5,798z"/>
			<path id="path4262" class="st3" d="M709.2,805.3c0,1.9-1,3.4-2.3,3.4s-2.3-1.5-2.3-3.4s1-3.4,2.3-3.4S709.2,803.4,709.2,805.3z"
				/>
			<path id="path4264" class="st3" d="M741.6,806.1c0,1.9-1,3.4-2.3,3.4s-2.3-1.5-2.3-3.4s1-3.4,2.3-3.4S741.6,804.2,741.6,806.1z"
				/>
			<path id="path4266" class="st3" d="M735,799.2c0,0.7-0.6,1.3-1.2,1.3c-0.7,0-1.2-0.6-1.3-1.3c0-0.7,0.6-1.3,1.2-1.3
				C734.5,798,735,798.5,735,799.2z"/>
			<path id="path4268" class="st3" d="M751.4,799.1c0,0.7-0.6,1.3-1.2,1.3c-0.7,0-1.2-0.6-1.3-1.3c0-0.7,0.6-1.3,1.2-1.3
				C750.9,797.8,751.4,798.4,751.4,799.1z"/>
			<path id="path4270" class="st3" d="M738.6,797.9v2.4"/>
			<path id="path4272" class="st3" d="M741.4,798.1v2.4"/>
			<path id="path4274" class="st3" d="M744,798.1v2.4"/>
			<path id="path4276" class="st3" d="M746.9,798v2.4"/>
			<path id="path4278" class="st3" d="M736.3,798v2.4"/>
			<path id="path4282" class="st3" d="M754.7,847.7c1.6,1.7,3,4.4,2.2,7s-4.1,3.4-3.4-1.9"/>
			<path id="rect4284" class="st3" d="M748.2,864.5h3.8c0.7,0,1.3,0.6,1.3,1.2v0.1c0,0.7-0.6,1.3-1.2,1.3h-3.8
				c-0.7,0-1.3-0.6-1.3-1.2v-0.1C747,865,747.5,864.5,748.2,864.5z"/>
			<path id="path4286" class="st3" d="M742.6,853l-0.8,3.1c-0.1,0.6,0.3,1.1,0.9,1.1l4-0.1c0.7,0,1.2-0.5,0.9-1.4l-0.6-3"/>
			<path id="path4288" class="st3" d="M747.9,864.3l0.3-5.2l-0.3-2.5"/>
			<path id="path4290" class="st3" d="M747.9,855.2h5.4"/>
			<path id="path4292" class="st3" d="M749.9,864.1l0.9-5.2"/>
			<path id="path4294" class="st3" d="M754.1,858.1c0,0.9-0.7,1.6-1.6,1.6c-0.9,0-1.6-0.7-1.6-1.6c0-0.9,0.7-1.6,1.6-1.6
				S754.1,857.2,754.1,858.1z"/>
			<path id="path4296" class="st3" d="M752.8,864.5l0.2-4.8"/>
			<path id="path4298" class="st3" d="M747.7,859l3.1-0.1"/>
			<path id="rect4300" class="st3" d="M693.2,863.9h4.6c0.7,0,1.3,0.6,1.3,1.2v0.5c0,0.7-0.6,1.3-1.2,1.3h-4.6
				c-0.7,0-1.3-0.6-1.3-1.2v-0.5C691.9,864.5,692.5,863.9,693.2,863.9z"/>
			<path id="path4302" class="st3" d="M698.9,853.1v3c0.3,0.5,1.3,1,2.1,1h2.1c0.5-0.2,0.8-1.1,0.8-1.8c0-0.8-0.6-1.6-0.8-2.4"/>
			<path id="path4304" class="st3" d="M691.7,845.9c-2.8,2.5-3.6,5.7-3,9.8c0.5,1.6,2,1.7,3.1,1.7c3.1-0.4,2.5-2.2,2.2-4.3"/>
			<path id="path4306" class="st3" d="M697.5,855.8l-0.2,4.4c-0.1,2.2,1.3,3.7,1.3,3.7"/>
			<path id="path4308" class="st3" d="M692.3,860.1l5.3-0.1"/>
			<path id="path4310" class="st3" d="M694.6,860.1l1.8,3.8"/>
			<path id="path4312" class="st3" d="M693.8,856.5l-0.7,7.6"/>
			<path id="path4314" class="st3" d="M693.9,852.8l1.5,4.7h0.9l2.2-4.4"/>
			<path id="path4316" class="st3" d="M694.8,855.1h2.9"/>
			<path id="path4452" class="st3" d="M720.2,417.4l14.3-0.3c0.8-0.1,1-0.6,1.2-1.2v-4.5c0-1.1,1-1.2,2-1.3l11.9-0.1
				c0.6,0.1,1.1,0.6,1.1,1.3v4.1c-0.1,0.6,0.3,1,0.8,1.1h2.1"/>
			<g id="g3816" transform="translate(110.21951,-22)">
				<path id="path4477" class="st7" d="M607.9,419.6l9.4-0.1c0.6,0.1,1,0.8,0.9,1.8s-0.7,2.1-1,2.9s-0.9,2.1-0.3,2.9
					c0.5,0.9,2.6,3.5,4.2,5c0.3,1,0.1,2-0.7,1.7c-5.7-3.5-9.9-2.1-15.1,0.4c-0.6-0.1-0.7,0-0.8-0.9c1.4-2.5,2.7-3.4,4.2-5.9
					c0.4-0.4-0.2-2.4-0.6-3.1c-0.4-0.7-0.9-2.1-0.7-3C607.3,420.2,607.3,419.9,607.9,419.6L607.9,419.6z"/>
				<path id="rect4474" class="st8" d="M606,418l13-0.1c0.9,0.1,1.4,1.1,1.3,2.4s-0.9,3-1.4,4c-0.5,1.1,0.2,1.5,0.3,1.9
					c2.2,2.9,3.7,5.8,5.5,8.7c0.5,1.4,0.1,2.8-1,2.9c-7-1.6-13.4-1.8-21.5,0.2c-0.9-0.1-1.4-0.4-1.5-1.7c1.9-3.4,3.3-6.3,5.4-9.7
					c0.5-0.6,0.6-1.4,0-2.3s-1.2-3-1-4.2C605.2,419,605.2,418.5,606,418L606,418z"/>
			</g>
			<path id="path4448" class="st8" d="M739.7,816.4v-4.6"/>
			<path id="path4450" class="st8" d="M707.9,817.1v-4.6"/>
			<path id="path4454" class="st3" d="M702.3,395.7l55,0.2"/>
			<path id="path4456" class="st3" d="M696.8,393.7l-6.5,0.2"/>
			<path id="path4458" class="st3" d="M696.3,395.9h-6.1"/>
			<path id="path4462" class="st3" d="M697.4,410.1l-2.2,0.1c-0.6,0.1-1.1,0.6-1.1,1.3v4.1c0.1,0.6-0.3,1-0.8,1.1l-1,0.2"/>
			<path id="path4470" class="st3" d="M703,613.7l7.8,0.1"/>
			<path id="path4472" class="st3" d="M702.9,549.6h8.2"/>
			<path id="path4583" class="st3" d="M703.3,523.9l7.8,0.1"/>
			<path id="path4585" class="st3" d="M703.3,520.2l7.8,0.1"/>
			<path id="path4587" class="st3" d="M703.3,520.2l7.8,0.1"/>
			<path id="path4589" class="st3" d="M703.3,517.4l7.8,0.1"/>
			<path id="path4591" class="st3" d="M703.2,510.1l7.8,0.1"/>
			<path id="path4593" class="st3" d="M703.2,506.4l7.8,0.1"/>
			<path id="path4595" class="st3" d="M703.2,504.8l7.8,0.1"/>
			<path id="path4597" class="st3" d="M700.8,458.7l6.6-0.1"/>
			<path id="path4599" class="st3" d="M696.7,400.5l6-0.1"/>
			<path id="path4601" class="st3" d="M696.9,396.8l5.3-0.1"/>
			<path id="path4603" class="st3" d="M697.6,351.2l5.6-0.2"/>
			<path id="path4605" class="st3" d="M698.3,310.2h6.4"/>
			<path id="path3820" class="st3" d="M696.7,390.2h5.8"/>
			<path id="path4460" class="st9" d="M723.7,417.3l-12.2-0.1c-0.7,0-1-0.6-1.2-1.2v-4.5c0-1.1-1-1.2-2-1.3l-4.6,0.2"/>
			<path id="path4174" class="st3" d="M725.6,852.8l18.6,0.1l-0.2-13.2c1.5-6,2.3-12,2.4-18.4l1.3-71.6l0.5-239.8l7.6-87.4
				c-1.1-3-2.5-5.4-2.4-9.2c0.6-2.9,2.6-10.7,4-13.8L753.1,246l2.7-4.2l-8.3-28.3L723.1,74.7l-24.7,139l-8.3,28.3l2.9,3.7
				l-2.8,153.1l0.4,3.6c1.1,3.1,1.7,6.1,2.2,9.9c0.6,5-1.2,5.7-2,8.4l5.7,53.5l1.6,35.5L697.9,750c1.2,25.7,1.1,45.1,1.4,70.8
				c0.1,6.2,1,12.6,2.7,18.2l0.6,13.6l17.9,0.2"/>
			<path id="path6618" class="st3" d="M698.9,266.4l5.5-1.6c-0.5-1.4-1.2-1.3-0.9-3.6c0.3-2.3,1.4-3.4,2.4-5.1"/>
			<g id="layer5" transform="translate(-59.029987,-2.0355165)">
				<path id="path4196" class="st10" d="M761.5,388.6l54.4-0.2"/>
				<path id="path4198" class="st10" d="M762.3,359l52.9,0.1"/>
				<path id="path4202" class="st10" d="M761.2,330.9L814,331"/>
				<path id="path4204" class="st10" d="M764.5,300l49.1-0.2"/>
				<path id="path4206" class="st10" d="M764.8,273.4l48,0.2"/>
				<path id="path4210" class="st10" d="M757.1,215.7h49.4"/>
				<path id="path4212" class="st10" d="M774.2,121h16"/>
				<path id="path4044" class="st10" d="M770.1,530.5h36.8"/>
				<path id="path4047" class="st10" d="M770.2,619.5l36-0.1"/>
				<path id="path4049" class="st10" d="M770,651.6l36-0.1"/>
				<path id="path4051" class="st10" d="M769.7,683.1l36-0.1"/>
				<path id="path4053" class="st10" d="M769.4,714.3h36.4"/>
				<path id="path4055" class="st10" d="M769.3,745.4l36.3-0.1"/>
				<path id="path4181" class="st10" d="M783.4,423.7l31.2,0.2"/>
				<path id="path4183" class="st10" d="M807,398.3l-3.5,25.7"/>
				<path id="path4185" class="st10" d="M765.1,449.9h47.2"/>
				<path id="path4187" class="st10" d="M768.4,477.1h41.8"/>
				<path id="path4189" class="st10" d="M770.6,503.4l37.5,0.1"/>
				<path id="path4280" class="st10" d="M799.3,477.5l-3.2,26.3"/>
				<path id="path4179" class="st10" d="M762.9,423.5l25.8,0.3"/>
				<path id="path4464" class="st10" d="M756.8,423.5l-6.7-0.2"/>
				<path id="path4200" class="st10" d="M749.6,359.1h6.3"/>
				<path id="path4224" class="st10" d="M750.2,331h6.3"/>
				<path id="path4226" class="st10" d="M751.2,299.9h5.9"/>
				<path id="path4228" class="st10" d="M751.6,273.5h6"/>
				<path id="path4194" class="st10" d="M749.1,388.4l6.7,0.2h0.4"/>
				<path id="path4466" class="st10" d="M759.2,449.9l-6.6-0.1"/>
				<path id="path4468" class="st10" d="M761.1,476.6h-5.4"/>
				<g id="g3795">
					<path id="path4040" class="st10" d="M770.5,588.1l36-0.1"/>
					<path id="path3804" class="st10" d="M759.2,588.1h2.1"/>
				</g>
				<g id="g3791">
					<path id="path4042" class="st10" d="M770.4,556.1L807,556"/>
					<path id="path3806" class="st10" d="M759.2,556.1l2.7,0.1"/>
				</g>
				<path id="path3808" class="st10" d="M759.2,530.5h2.6"/>
				<path id="path3810" class="st10" d="M760.8,745.4h2.9"/>
				<path id="path3812" class="st10" d="M757.3,504h4.9"/>
				<path id="path4067" class="st10" d="M759.4,714.5h2.1"/>
				<path id="path4059" class="st10" d="M759.1,683h2.1"/>
				<path id="path4065" class="st10" d="M759.2,651.5h2.1"/>
				<path id="path3802" class="st10" d="M759.2,619.4h2.1"/>
				<rect id="rect4448" x="766.8" y="303.5" class="st3" width="31.5" height="21.8"/>
				<rect id="rect4450" x="772.1" y="338.1" class="st3" width="21" height="13.9"/>
				<path id="rect4452" class="st3" d="M750.1,352.1h-2V338h2.3"/>
				<path id="path4459" class="st3" d="M815.1,352.3h2v-14.6h-2.3"/>
				<path id="path4461" class="st3" d="M814.4,325h2l-0.2-21.3h-2.3"/>
				<rect id="rect4446" x="766.8" y="275.6" class="st3" width="31.5" height="21.8"/>
				<path id="path4457" class="st3" d="M751,297.1h-2l0.2-21.3h2.3"/>
				<path id="path4463" class="st3" d="M813.7,297.1h2l-0.2-21.3h-2.3"/>
				<path id="rect4481" class="st3" d="M782.6,340.3L782.6,340.3c0.6,0,1.1,0.6,1.1,1.4v6.4c0,0.8-0.5,1.4-1.1,1.4l0,0
					c-0.6,0-1.1-0.6-1.1-1.4v-6.4C781.5,341,782,340.3,782.6,340.3z"/>
				<path id="rect4483" class="st3" d="M782.6,310.8L782.6,310.8c0.6,0,1.1,0.6,1.1,1.4v6.4c0,0.8-0.5,1.4-1.1,1.4l0,0
					c-0.6,0-1.1-0.6-1.1-1.4v-6.4C781.5,311.4,782,310.8,782.6,310.8z"/>
				<path id="rect4485" class="st3" d="M782.6,282.3L782.6,282.3c0.6,0,1.1,0.6,1.1,1.4v6.4c0,0.8-0.5,1.4-1.1,1.4l0,0
					c-0.6,0-1.1-0.6-1.1-1.4v-6.4C781.5,282.9,782,282.3,782.6,282.3z"/>
				<path id="rect4487" class="st3" d="M782.6,255c0.6,0,1.1,0.6,1.1,1.4v6.4h-2.2v-6.4C781.5,255.6,782,255,782.6,255L782.6,255z"
					/>
				<path id="path4492" class="st3" d="M754.4,226.9l-2.6,20.7"/>
				<path id="path4494" class="st3" d="M809.6,226.2l2.5,21.4"/>
				<path id="rect4496" class="st3" d="M783.1,226.2l1.1,21.4h-2.5L783.1,226.2z"/>
				<g id="g4526">
					<path id="path4455" class="st3" d="M750.5,325h-2l0.2-21.3h2.3"/>
					<path id="path4490" class="st3" d="M748.9,291.7l-0.9-0.2l0.1-9.6l0.9-0.1"/>
					<path id="path4522" class="st3" d="M748.5,319.7l-0.9-0.2l0.1-9.6l0.9-0.1"/>
					<path id="path4524" class="st3" d="M748.1,349.4l-0.9-0.2l0.1-9.6l0.9-0.1"/>
				</g>
				<path id="path4536" class="st3" d="M815.8,291.7l0.9-0.2l-0.1-9.6l-0.9-0.1"/>
				<path id="path4538" class="st3" d="M816.3,319.7l0.9-0.2l-0.1-9.6l-0.9-0.1"/>
				<path id="path4540" class="st3" d="M817.1,349.4l0.9-0.2l-0.1-9.6l-0.9-0.1"/>
			</g>
			<g id="layer1" transform="translate(-59.029987,-2.0355165)">
				<path id="path4064" class="st2" d="M749.9,424.2l5.7,53.1l1,27.3l0.3,289.7l-3.1,4.2l-2.2,29.2l-4.8,5.7l-1.5,24.3l-55.2-3.5
					l2.1-53.3l1.6-0.1l-0.1-1.8h-1.5l1-25.8l33.2-259.4l14-67l5.8-22.6L749.9,424.2z"/>
				<path id="path6113" class="st2" d="M814.7,424.9l-7,86.6l-0.4,164l1.7,112.2l5.2,40.6l4.9,5.7l1.6,24.3l55.2-3.7l-2.2-53.3h-2
					l0.1-2.1h1.8l-1.1-25.5l-34-259.3l-14.2-67l-6.3-22.5L814.7,424.9z"/>
				<g id="g5971" transform="translate(-138,0)">
					<path id="rect5457" class="st3" d="M948.5,804.4L992,802l19.5-0.2l1.3,23.4l2,5.3l24.7,18.7l-25.4,3.2l-1.6,2.7l-57.2,3.5
						L948.5,804.4z"/>
					<path id="path5460" class="st3" d="M1008.1,801.9l-16.9-0.1l-13,1l-27.5,1.2"/>
					<path id="path5464" class="st3" d="M995.9,802.5l3,53.4"/>
					<path id="path5466" class="st3" d="M1005.7,802.4l4,52.8"/>
					<path id="path5484" class="st3" d="M1014.6,832.8l15.8,12.3l0.4,3.7l-14.8,1.3"/>
					<path id="rect5488" class="st3" d="M959.8,817.4L959.8,817.4c-1.6,0-3,1.4-2.9,3v3.7c0,1.6,1.4,3,3,2.9l0,0c1.6,0,3-1.4,2.9-3
						v-3.7C962.8,818.7,961.4,817.4,959.8,817.4z"/>
					<path id="rect5490" class="st3" d="M961.4,839.4L961.4,839.4c-1.6,0-3,1.4-2.9,3v3.7c0,1.6,1.4,3,3,2.9l0,0c1.6,0,3-1.4,2.9-3
						v-3.7C964.4,840.7,963,839.4,961.4,839.4z"/>
					<path id="rect5492" class="st3" d="M1004.5,836.3L1004.5,836.3c-1.6,0-3,1.4-2.9,3v3.7c0,1.6,1.4,3,3,2.9l0,0
						c1.6,0,3-1.4,2.9-3v-3.7C1007.5,837.6,1006.2,836.3,1004.5,836.3z"/>
					<path id="rect5494" class="st3" d="M1003,814.5L1003,814.5c-1.6,0-3,1.4-2.9,3v3.7c0,1.6,1.4,3,3,2.9l0,0c1.6,0,3-1.4,2.9-3
						v-3.7C1006,815.8,1004.6,814.5,1003,814.5z"/>
					<path id="path5496" class="st3" d="M976.2,809.3c0,2.8,1.8,5.1,4.1,5.1c2.2,0,4-2.3,3.9-5.2s-1.8-5.1-4.1-5.1
						C977.9,804.2,976.2,806.5,976.2,809.3z"/>
					<path id="path5498" class="st3" d="M978.7,809.3c0,1.5,0.7,2.7,1.6,2.7c0.9,0,1.5-1.2,1.5-2.7s-0.7-2.7-1.6-2.7
						S978.6,807.8,978.7,809.3z"/>
					<path id="path5500" class="st3" d="M999.3,808.3c0,1.8,0.9,3.2,2,3.2s2-1.5,2-3.3s-0.9-3.2-2-3.2
						C1000.2,805.1,999.3,806.5,999.3,808.3z"/>
					<path id="path5502" class="st3" d="M992.1,804.9c-1.3,0-2.3,1.1-2.3,2.4l0.1,5.3l4.7-0.1l-0.1-5.3
						C994.4,805.9,993.3,804.9,992.1,804.9L992.1,804.9z"/>
					<path id="path5504" class="st3" d="M1011.1,812.4l-4.2,0.2"/>
					<path id="rect5506" class="st3" d="M994.9,812.9L990,813c-0.5,0-0.9,0.4-0.9,0.9l0,0c0,0.5,0.4,0.9,0.9,0.9l4.9-0.1
						c0.5,0,0.9-0.4,0.9-0.9l0,0C995.8,813.3,995.4,812.9,994.9,812.9z"/>
					<path id="rect5512" class="st3" d="M995.8,862.9l-13.8,0.2c-0.5,0-0.9,0.4-0.9,0.9v1.6c0,0.5,0.4,0.9,0.9,0.9l13.8-0.2
						c0.5,0,0.9-0.4,0.9-0.9v-1.6C996.7,863.3,996.3,862.9,995.8,862.9z"/>
					<path id="rect5522" class="st11" d="M978.9,863.6l-15.5,0.2c-0.5,0-0.9,0.4-0.9,0.9v1.5c0,0.5,0.4,0.9,0.9,0.9l15.5-0.2
						c0.5,0,0.9-0.4,0.9-0.9v-1.5C979.7,863.9,979.4,863.6,978.9,863.6z"/>
					<path id="path5528" class="st3" d="M1014.2,852.1l2.2-2.5l-1.6-18.8"/>
					<path id="rect5572" class="st3" d="M965.2,858l12-0.9l1.6,6.3l-14.7,0.3L965.2,858z"/>
					<path id="path5582" class="st3" d="M983.7,857l10.6-0.7l0.8,6.4l-12.5,0.3L983.7,857z"/>
					<g id="g5735" transform="translate(138.88721,-0.288178)">
						<path id="path5737" class="st2" d="M868.3,861.4l-2.5,0.1l-0.5,6.3h4.2L868.3,861.4z"/>
						<g id="g5739" transform="matrix(-0.99999553,0.00298998,0.00298998,0.99999553,370.29501,-13.657347)">
							<path id="path5741" class="st5" d="M-496.7,882.9l4.8,0.1c0.8,0.9,1.1,2.2,0.6,3.2h-5.9
								C-497.9,885.1-497.6,883.7-496.7,882.9z"/>
							<path id="path5744" class="st5" d="M-494,876.4h1.5l0.5,6.4h-2V876.4z"/>
							<path id="path5746" class="st5" d="M-496.2,882.9l1.3-6.7"/>
							<path id="path5748" class="st5" d="M-496.4,870.8l4.7,0.8l-0.7,4.6l-2.7,0.2L-496.4,870.8z"/>
							<path id="path5750" class="st5" d="M-492,875l-3.6-0.2"/>
						</g>
					</g>
					<path id="path5752" class="st2" d="M996.5,801.2l9.6-0.3l4.1,53.1l-10.5,0.3L996.5,801.2z"/>
					<path id="path5756" class="st2" d="M994.1,857l-10.5,0.6l-1.3,4.9l13.2-0.3L994.1,857z"/>
					<path id="path5759" class="st2" d="M977,857.9l-11.7,0.7l-1,4.5l14-0.1L977,857.9z"/>
					<path id="rect5761" class="st2" d="M963.3,863.8H979c0.2,0,0.4,0.2,0.4,0.4v1.8c0,0.2-0.2,0.4-0.4,0.4h-15.7
						c-0.2,0-0.4-0.2-0.4-0.4v-1.8C962.9,863.9,963.1,863.8,963.3,863.8z"/>
					<path id="rect5763" class="st2" d="M981.9,862.9h14c0.3,0,0.5,0.2,0.5,0.5v2.2c0,0.3-0.2,0.5-0.5,0.5h-14
						c-0.3,0-0.5-0.2-0.5-0.5v-2.2C981.4,863.1,981.6,862.9,981.9,862.9z"/>
					<path id="rect5773" class="st2" d="M969.7,803l-20.4,1.4l6.4,54l25.9-2.4L969.7,803z"/>
				</g>
				<g id="g6172" transform="translate(88.395951,62.258942)">
					<path id="path6009" class="st3" d="M666,741.4l-43.5-2.4l-19.5-0.2l-1.3,23.4l-2,5.3L575,786.2l25.4,3.2l1.6,2.7l57.2,3.5
						L666,741.4z"/>
					<path id="path6011" class="st3" d="M606.3,738.9l16.9-0.1l13,1l27.5,1.2"/>
					<path id="path6013" class="st3" d="M618.6,739.5l-3,53.4"/>
					<path id="path6015" class="st3" d="M608.8,739.4l-4,52.8"/>
					<path id="path6017" class="st3" d="M599.8,769.8L584,782.1l-0.4,3.7l14.8,1.3"/>
					<path id="rect6019" class="st3" d="M654.7,754.4L654.7,754.4c1.6,0,3,1.4,2.9,3v3.7c0,1.6-1.4,3-3,2.9l0,0c-1.6,0-3-1.4-2.9-3
						v-3.7C651.7,755.7,653,754.4,654.7,754.4z"/>
					<path id="rect6021" class="st3" d="M653.1,776.4L653.1,776.4c1.6,0,3,1.4,2.9,3v3.7c0,1.6-1.4,3-3,2.9l0,0c-1.6,0-3-1.4-2.9-3
						v-3.7C650.1,777.7,651.4,776.4,653.1,776.4z"/>
					<path id="rect6023" class="st3" d="M609.9,773.3L609.9,773.3c1.6,0,3,1.4,2.9,3v3.7c0,1.6-1.4,3-3,2.9l0,0c-1.6,0-3-1.4-2.9-3
						v-3.7C606.9,774.6,608.3,773.3,609.9,773.3z"/>
					<path id="rect6025" class="st3" d="M611.5,751.5L611.5,751.5c1.6,0,3,1.4,2.9,3v3.7c0,1.6-1.4,3-3,2.9l0,0c-1.6,0-3-1.4-2.9-3
						v-3.7C608.5,752.8,609.8,751.5,611.5,751.5z"/>
					<path id="path6027" class="st3" d="M638.2,746.3c0,2.8-1.8,5.1-4.1,5.1c-2.2,0-4-2.3-3.9-5.2c0-2.8,1.8-5.1,4.1-5.1
						C636.5,741.2,638.3,743.5,638.2,746.3z"/>
					<path id="path6029" class="st3" d="M635.8,746.3c0,1.5-0.7,2.7-1.6,2.7c-0.9,0-1.5-1.2-1.5-2.7s0.7-2.7,1.6-2.7
						C635.1,743.6,635.8,744.8,635.8,746.3z"/>
					<path id="path6031" class="st3" d="M615.1,745.3c0,1.8-0.9,3.2-2,3.2s-2-1.5-2-3.3s0.9-3.2,2-3.2
						C614.3,742.1,615.2,743.5,615.1,745.3z"/>
					<path id="path6033" class="st3" d="M622.4,741.9c1.3,0,2.3,1.1,2.3,2.4l-0.1,5.3l-4.7-0.1l0.1-5.3
						C620.1,742.9,621.1,741.9,622.4,741.9L622.4,741.9z"/>
					<path id="path6035" class="st3" d="M603.4,749.4l4.2,0.2"/>
					<path id="rect6037" class="st3" d="M619.5,749.9l4.9,0.1c0.5,0,0.9,0.4,0.9,0.9l0,0c0,0.5-0.4,0.9-0.9,0.9l-4.9-0.1
						c-0.5,0-0.9-0.4-0.9-0.9l0,0C618.6,750.3,619,749.9,619.5,749.9z"/>
					<path id="rect6039" class="st3" d="M618.7,799.9l13.8,0.2c0.5,0,0.9,0.4,0.9,0.9v1.6c0,0.5-0.4,0.9-0.9,0.9l-13.8-0.2
						c-0.5,0-0.9-0.4-0.9-0.9v-1.6C617.8,800.3,618.2,799.9,618.7,799.9z"/>
					<path id="rect6041" class="st11" d="M635.6,800.6l15.5,0.2c0.5,0,0.9,0.4,0.9,0.9v1.5c0,0.5-0.4,0.9-0.9,0.9l-15.5-0.2
						c-0.5,0-0.9-0.4-0.9-0.9v-1.5C634.7,800.9,635.1,800.6,635.6,800.6z"/>
					<path id="path6043" class="st3" d="M600.3,789.1l-2.2-2.5l1.6-18.8"/>
					<path id="path6045" class="st3" d="M649.3,795l-12-0.9l-1.6,6.3l14.7,0.3L649.3,795z"/>
					<path id="path6047" class="st3" d="M630.8,794l-10.6-0.7l-0.8,6.4l12.5,0.3L630.8,794z"/>
					<g id="g6049" transform="matrix(-1,0,0,1,391.59953,-63.500638)">
						<path id="path6051" class="st2" d="M-215.6,861.6l-2.5,0.1l-0.5,6.3h4.2L-215.6,861.6z"/>
						<g id="g6053" transform="matrix(-0.99999553,0.00298998,0.00298998,0.99999553,370.29501,-13.657347)">
							<path id="path6055" class="st5" d="M587.3,879.8l4.8,0.1c0.8,0.9,1.1,2.2,0.6,3.2h-5.9C586,882,586.4,880.6,587.3,879.8z"/>
							<path id="path6057" class="st5" d="M590,873.3h1.5l0.5,6.4h-2V873.3z"/>
							<path id="path6059" class="st5" d="M587.8,879.8l1.3-6.7"/>
							<path id="path6061" class="st5" d="M587.6,867.7l4.7,0.8l-0.7,4.6l-2.7,0.2L587.6,867.7z"/>
							<path id="path6063" class="st5" d="M591.9,871.9l-3.6-0.2"/>
						</g>
					</g>
				</g>
			</g>
			<g id="layer6" transform="translate(-59.029987,-2.0355165)">
				<path id="path3594" class="st3" d="M737.4,458.9l-3.1-0.7c0.3-7.7,2.7-8.5,6.5-12.6"/>
				<path id="path3496" class="st3" d="M749.9,424.2l5.7,53.1l1,27.3l0.3,289.7l-3.1,4.2l-2.2,29.2l-3.8,30.5l-57.7-4l2-53.7h1.8
					v-1.6l-1.7-0.1l0,0l1-25.5l33.9-264.6l13.3-61.8l5.8-22.6L749.9,424.2z"/>
				<path id="path3504" class="st12" d="M722.1,547l31.9,2.9"/>
				<path id="path3506" class="st12" d="M718.7,575.5l35.5,3.8"/>
				<path id="path3518" class="st3" d="M703.7,694l49,2.8"/>
				<path id="path3522" class="st3" d="M700.3,717.5l52,4.2"/>
				<path id="path3528" class="st3" d="M693.9,765.8l57,3.3"/>
				<g id="g3682">
					<path id="path3524" class="st12" d="M697.4,742l53.8,3.9"/>
					<path id="path3526" class="st12" d="M705.1,742.3l2.4-24.2"/>
					<path id="path3530" class="st12" d="M731.6,768.3l0.4-23.8"/>
				</g>
				<path id="path3532" class="st3" d="M693.9,769.3c4.4,0,3.2-0.1,4.4,0s0,1.7,1.1,1.8s0.3-1.7,1.5-1.6c1.1,0.1,0.5,1.7,1.5,1.8
					s-0.2-1.8,1.5-1.6c1.7,0.1,0.2,1.7,1.3,1.9s0.2-1.5,1.4-1.5c1.2,0.1,0.4,1.7,1.5,1.8s0.2-1.7,1.4-1.6c1.2,0.2-0.1,1.7,1.2,1.8
					s0.5-1.7,1.9-1.5s0.2,1.9,1.5,1.9c1.4,0,0.1-1.9,1.5-1.7s0.1,1.9,1.8,2c1.1,0.1,1-2,2.8-1.8s0.1,1.9,2.1,2.2s0.2-2,2.8-1.7
					c2.5,0.3,0.2,2,1.9,1.9s0.6-1.6,2.2-1.5c1.7,0.1,0.7,1.7,2.2,1.8s0-1.7,2.2-1.6c2.1,0.1,0.1,1.6,1.9,1.8
					c1.2,0.1,0.6-1.7,1.7-1.6c1.1,0.1-0.1,1.7,1.3,1.7c1.5,0,0.3-1.7,1.7-1.6c1.4,0.1,0.3,2,1.6,1.9s0.8-1.8,1.5-1.7
					s0.7,1.7,1.4,1.7s0.7-1.8,1.5-1.7c0.7,0.1,0.5,1.9,1.2,2s0.5-1.9,1.3-1.8c0.7,0,0.6,1.8,1.3,1.9c0.7,0.2,0.5-0.9,1-1.3"/>
				<path id="path3534" class="st10" d="M710.5,799.4l1.2-27"/>
				<path id="path3536" class="st3" d="M702.4,699.5l49.6,2.8"/>
				<path id="path3538" class="st3" d="M701.2,712.8l50.1,3.9"/>
				<path id="path3540" class="st12" d="M740.2,715.1l1-12.8"/>
				<path id="path3542" class="st3" d="M727.9,506.7c8.9-2.1,17.7-1.7,26.6,0.1"/>
				<path id="path3544" class="st3" d="M727.2,510.5h27.1"/>
				<path id="path3548" class="st3" d="M693.8,800.5h16.8l13,1l27.9,1.7"/>
				<path id="path3574" class="st3" d="M747.7,800.8l-7.1-8.8l-4.6,7.9"/>
				<path id="path3576" class="st3" d="M751.8,802.1l-4-1.1l-37.1-1.9"/>
				<path id="path3586" class="st3" d="M739,452.1h13.9"/>
				<path id="path3588" class="st3" d="M738.8,454.7h14.6"/>
				<path id="path3590" class="st3" d="M739.3,449.6l13.1-0.1"/>
				<path id="path3592" class="st3" d="M742.9,435.8l7.9,0.3"/>
				<g id="g3670">
					<path id="path3502" class="st12" d="M726,518.9l29.3,1.4"/>
					<g id="g3660">
						<path id="path3508" class="st12" d="M723.8,577l3.2-28.9"/>
						<g id="g3652">
							<path id="path3510" class="st12" d="M714.4,605l39.6,2.8"/>
							<path id="path3512" class="st12" d="M710.4,634.2l43.9,2.9"/>
							<path id="path3514" class="st12" d="M717.1,634.4l3.2-28.9"/>
							<path id="path3516" class="st12" d="M707.3,664.5l45.9,2.8"/>
							<path id="path3520" class="st12" d="M710.4,693.7l3.3-28.9"/>
							<path id="path4335" class="st12" d="M748.3,667.2l0.9-29.6"/>
						</g>
					</g>
				</g>
				<path id="path4337" class="st12" d="M748.3,607.5l0.9-28.3"/>
				<path id="path4339" class="st12" d="M749.9,550.4l1.3-29.6"/>
				<g id="g3647">
					<path id="path3498" class="st12" d="M735.1,470.8l20,0.4"/>
					<path id="path3500" class="st12" d="M731.8,489.5l23.8,1.7"/>
					<path id="path4341" class="st12" d="M748.7,490.9l0.6-19.5"/>
				</g>
				<path id="rect4343" class="st3" d="M754.2,522.6l2.7,0.5l-1,131.4l-2.2,137.9l-2.4,0.2l2.3-138.3L754.2,522.6z"/>
				<path id="path5114" class="st3" d="M752.2,757.5l4.1,0.1"/>
				<path id="path5116" class="st3" d="M751.6,786.2h2.3"/>
				<path id="path5118" class="st3" d="M752.6,719.5l3.7,0.1"/>
				<path id="path5120" class="st3" d="M754.2,654.3l2.5,0.1"/>
				<path id="path5122" class="st3" d="M754.4,557.6l2.2,0.3"/>
				<path id="path5124" class="st3" d="M754.7,522.3l0.8-21"/>
				<path id="path5967" class="st3" d="M691.4,820.9l-3.5,7.6l-1.2,21.7l3,3.6"/>
				<g id="g5864" transform="translate(108,-16)">
					<g id="g5262">
						
							<rect id="rect5253" x="639.4" y="437.4" transform="matrix(-0.9997 2.392877e-02 -2.392877e-02 -0.9997 1291.7111 860.6568)" class="st13" width="2.6" height="1.3"/>
						
							<rect id="rect5255" x="638.1" y="438.7" transform="matrix(-0.9997 2.392877e-02 -2.392877e-02 -0.9997 1290.167 863.3543)" class="st13" width="3.6" height="1.4"/>
						<path id="rect5259" class="st3" d="M642.9,428l0.7,5.6l-1.6,3.5l-2.1,0.1L642.9,428z"/>
					</g>
				</g>
				<path id="path4144" class="st3" d="M826.4,459.3l3.1-0.7c-0.3-7.7-2.1-9-5.9-13.1"/>
				<path id="path4046" class="st3" d="M814.7,424.9l-7,86.6l-0.4,164l1.7,112.2l5.2,40.6l3.2,30l58.4-3.7l-2.2-53.3l-2.3-0.1v-1.7
					l2.2-0.1l-1-25.8l-34.7-263.5l-13.5-62.8l-6.3-22.5L814.7,424.9z"/>
				<g id="g4610">
					<path id="path4048" class="st12" d="M828.7,471.5l-17.4,0.8"/>
					<path id="path4050" class="st12" d="M833.2,489.9l-24.7,2.5"/>
				</g>
				<path id="path4068" class="st3" d="M860.7,694.7l-51.3,3.6"/>
				<path id="path4072" class="st3" d="M864.2,718.2l-55.2,4.4"/>
				<path id="path4078" class="st3" d="M871.1,765.3l-62,3.7"/>
				<g id="g4630">
					<path id="path4074" class="st12" d="M867.2,742.7l-56.8,4.1"/>
					<path id="path4076" class="st12" d="M826.8,745.7l-2.3-24"/>
					<path id="path4080" class="st12" d="M858.3,766.1l-2.2-21.8"/>
				</g>
				<path id="path4082" class="st3" d="M871.5,768.6c0,0-2.8,0-4.1,0.7c-0.6,0.4-0.6,1.6-1.3,1.6s-0.8-1.7-1.5-1.6
					c-0.7,0.1-0.5,1.9-1.2,2c-0.8,0-0.8-1.9-1.5-1.8s-0.9,2-1.7,2.1s-1-1.8-1.8-1.8c-0.7,0-0.4,2.1-1.1,2.2c-0.7,0-1.2-1.8-1.9-1.8
					c-0.8,0.1-0.6,1.9-1.4,2c-0.8,0-0.7-1.9-2.4-1.8c-1.6,0.1-0.7,1.9-1.9,2.1c-1.2,0.2-0.5-1.8-2.5-1.7s-0.4,2.1-2.4,2.2
					c-2.1,0.1,0-1.8-2.7-1.8c-2.7-0.1-0.8,1.8-2.4,2.1s-0.3-1.8-2.3-1.7s-0.5,1.7-2.3,1.9s-1-2-2.4-1.8s-0.6,1.9-2,2.1
					c-1.4,0.2-0.7-2-2.1-1.8c-1.3,0.1-0.6,2.2-1.8,2.2s-0.5-2.1-1.8-2s-0.2,2.1-1.4,2.3s-0.6-2.1-1.8-2s-0.3,2.3-1.5,2.5
					s-0.5-2.3-1.5-2.2c-0.9,0.1-0.5,2.4-1.4,2.5s-0.5-2.3-1.4-2.3c-0.9,0.1-0.2,2.3-1.3,2.4c-1.1,0.1-1.3-3.3-2.8-2l-3.2,1.7"/>
				<path id="path4084" class="st10" d="M854.6,799.7l-2.2-27.2"/>
				<path id="path4086" class="st3" d="M862.1,700.2l-52.7,4.8"/>
				<path id="path4088" class="st3" d="M863.3,713.4l-54,4.1"/>
				<path id="path4090" class="st12" d="M850.7,714.5l-1-12.8"/>
				<path id="path4092" class="st3" d="M836.3,509.2l-30,1.6"/>
				<path id="path4094" class="st3" d="M836.3,505.7c-9.4-1.7-18.8-0.7-28.6,1.1"/>
				<path id="path4098" class="st3" d="M870.8,801.4l-16.9-0.1l-13,1l-27.5,1.2"/>
				<path id="path4124" class="st3" d="M819.2,801l4.9-8.2l5.6,10.3"/>
				<path id="path4126" class="st3" d="M813.4,803.6l-0.9-1.9l42-2"/>
				<path id="path4136" class="st3" d="M824.5,452.4l-12,0.1"/>
				<path id="path4138" class="st3" d="M825.6,455.1l-13.3,0.3"/>
				<path id="path4140" class="st3" d="M824.3,450.1h-11.7"/>
				<path id="path4142" class="st3" d="M820.8,437.6l-7.2-0.1"/>
				<g id="g4614">
					<path id="path4052" class="st12" d="M838.3,519.7l-30.5,1.7"/>
					<path id="path4054" class="st12" d="M841.9,547.1l-34.3,2.9"/>
					<path id="path4056" class="st12" d="M845.7,576.3l-37.8,3.5"/>
					<path id="path4058" class="st12" d="M835.1,547.6l-2.7-26.1"/>
					<path id="path4060" class="st12" d="M850.1,606l-42.4,2.6"/>
					<path id="path4123" class="st12" d="M813.2,579.3l-1.7-28.8"/>
					<path id="path4128" class="st12" d="M840.1,606.7l-3-29.6"/>
				</g>
				<g id="g4623">
					<path id="path4062" class="st12" d="M854.2,634.5l-46.3,3.6"/>
					<path id="path4066" class="st12" d="M857.1,665.2l-48.5,4.2"/>
					<path id="path4130" class="st12" d="M846.4,665.7l-3-30.6"/>
					<path id="path4132" class="st12" d="M816.6,636.6l-2.4-27.8"/>
					<path id="path4134" class="st12" d="M820.6,697.9l-1.7-28.5"/>
				</g>
				<g id="g5955" transform="matrix(-0.99999553,0.00298998,0.00298998,0.99999553,370.29501,-13.657347)">
					<path id="path5957" class="st5" d="M-496.9,882.8l4.8,0.1c0.8,0.9,1.1,2.2,0.6,3.2h-5.9C-498.1,885-497.8,883.7-496.9,882.8z"
						/>
					<path id="path5959" class="st5" d="M-494.2,876.3h1.5l0.5,6.4h-2V876.3z"/>
					<path id="path5961" class="st5" d="M-496.4,882.9l1.3-6.7"/>
					<path id="path5963" class="st5" d="M-496.6,870.7l4.7,0.8l-0.7,4.6l-2.7,0.2L-496.6,870.7z"/>
					<path id="path5965" class="st5" d="M-492.2,874.9l-3.6-0.2"/>
				</g>
				<g id="g5267" transform="matrix(-1,0,0,1,372.17615,-14.982242)">
					<polygon id="rect5269" class="st14" points="-444.8,438.4 -442.2,438.4 -442.2,438.4 					"/>
					<polygon id="rect5271" class="st14" points="-446,439.8 -442.4,439.8 -442.4,439.8 					"/>
					<path id="path5273" class="st3" d="M-441.2,427.8l0.7,5.6l-1.6,3.5l-2.1,0.1L-441.2,427.8z"/>
				</g>
				<path id="path3655" class="st3" d="M871.1,765.3l-62,3.7"/>
				<path id="rect4471" class="st10" d="M694.8,772.5l1.9,0.1c0.5,0,0.8,0.4,0.8,0.9l-0.3,8.3c0,0.5-0.4,0.8-0.9,0.8l-1.9-0.1
					c-0.5,0-0.8-0.4-0.8-0.9l0.3-8.3C693.9,772.9,694.3,772.5,694.8,772.5z"/>
				<path id="rect4473" class="st10" d="M870.5,772l-2.3,0.1c-0.5,0-0.8,0.4-0.8,0.9l0.4,9.2c0,0.5,0.4,0.8,0.9,0.8l2.3-0.1
					c0.5,0,0.8-0.4,0.8-0.9l-0.4-9.2C871.4,772.3,871,771.9,870.5,772z"/>
			</g>
			<g id="layer7" transform="translate(-59.029987,-2.0355165)">
				<path id="rect4429" class="st11" d="M800.2,862.8l-15.5,0.2c-0.5,0-0.9,0.4-0.9,0.9v1.5c0,0.5,0.4,0.9,0.9,0.9l15.5-0.2
					c0.5,0,0.9-0.4,0.9-0.9v-1.5C801.1,863.2,800.7,862.8,800.2,862.8z"/>
				<path id="rect4447" class="st11" d="M780.4,862.8l-15.5,0.2c-0.5,0-0.9,0.4-0.9,0.9v1.5c0,0.5,0.4,0.9,0.9,0.9l15.5-0.2
					c0.5,0,0.9-0.4,0.9-0.9v-1.5C781.2,863.2,780.8,862.8,780.4,862.8z"/>
				<path id="path5758" class="st2" d="M778.1,425.2l8.1-0.2l11.4,75.1l4.2,65.7l10.8,196.3l0.4,35.2l-2,0.2l0.1,1.3l1.9,0.5
					l0.3,55.4h-60.7l-0.7-56.1l1.7-0.3l-0.1-1l-1.6-0.3l-0.1-34.6l12-196.4l3.1-65.5L778.1,425.2z"/>
				<path id="path6122" class="st2" d="M811.6,799.1l-59.8-0.6l0.8,60.2l61,0.1L811.6,799.1z"/>
				<path id="rect4383" class="st15" d="M778.1,425.2h8.1l11.4,74.9l4.2,65.7l10.8,196.3l0.4,35.2l-2,0.2l0.1,1.3l1.9,0.5l0.3,59.4
					h-60.7l-0.7-60.1l1.7-0.3l-0.1-1l-1.6-0.3l-0.1-34.6l12-196.4l3.1-65.5L778.1,425.2z"/>
				<g id="g4265" transform="matrix(0.99999985,5.5340596e-4,-0.00176402,1.0092806,84.372523,-103.72784)">
					<path id="path4267" class="st3" d="M683.9,607.3c10.3-1.1,19.8-1.8,29.9-0.7"/>
				</g>
				<g id="g4277" transform="matrix(0.99999985,5.5340596e-4,-0.00176402,1.0092806,84.656853,-104.2996)">
					<path id="path4279" class="st3" d="M683.1,603.8c10.8-0.7,20-0.6,30.3-0.2"/>
				</g>
				<path id="path4289" class="st15" d="M773.8,454.4h6.1"/>
				<path id="path4291" class="st15" d="M774.5,449.1h6.1"/>
				<path id="path4293" class="st15" d="M774.3,451.5h5.8"/>
				<path id="path4322" class="st15" d="M784.7,451.5l5.3-0.1"/>
				<path id="path4324" class="st15" d="M784.1,449h5.4"/>
				<path id="path4326" class="st15" d="M784.8,454.3h5.7"/>
				<path id="rect4319" class="st15" d="M782.4,445.2c1.5,0,2.4,8.7,2.5,13.3h-5C779.9,453.7,781,445.1,782.4,445.2L782.4,445.2z"/>
				<path id="path5695" class="st15" d="M752.4,772.1c0.4,0.4,0.6,1.2,1.2,1.2c0.6,0,1-1.2,1.6-1.2s0.4,1.1,0.9,1.1
					c0.6,0,1-1.3,1.6-1.1c0.6,0.1,0.5,1.6,1.1,1.6c0.7,0,0.6-2,1.3-2c0.6,0,0.4,1.6,1.1,1.7c0.6,0,0.9-1.7,1.5-1.7s0.7,1.6,1.3,1.6
					c0.7,0,1.1-1.6,1.8-1.6s0.9,1.4,1.6,1.4c0.7,0,0.8-1.7,1.6-1.7c0.7,0,1.1,1.4,1.8,1.4s0.6-1.3,1.3-1.3c0.7-0.1,1.2,1.2,1.9,1.1
					s0.4-1.1,1.4-1.3s3.1-0.1,4,0.1c0.8,0.1,0,0.6,0.8,0.8c0.8,0.1,3.1,0.2,4,0c0.9-0.1-0.3-0.7,1.3-0.8s6.5-0.1,8.1,0
					c1.3,0.2,1.5,1.5,3,1.5s0.8-1.6,2.2-1.5c1.3,0.1,1,1.8,1.6,1.8s0.9-1.3,1.5-1.3c0.6-0.1,0.9,1.2,1.4,1.2s0.7-1.4,1.3-1.4
					c0.5,0,1,1.7,1.6,1.7s1.2-1.3,1.8-1.3s0.8,1.5,1.3,1.5s1.1-1.4,1.6-1.4s1.1,0.5,1.7,0.6"/>
				<path id="path5697" class="st15" d="M760.3,766.8l-0.1,5.3"/>
				<path id="path5699" class="st15" d="M753.6,797.4l57.2,0.3"/>
				<path id="path5701" class="st15" d="M753.4,798.4l57.2,0.3"/>
				<path id="path5703" class="st15" d="M782.3,826.4c0.9,5.5,2,12.6,2,16c-0.1,3.4-0.2,5.2-0.6,7.6l-2.2-0.1
					c-0.4-2.3-1.2-3.6-1.3-7.4C780.1,838.7,780.9,831.6,782.3,826.4L782.3,826.4z"/>
				<path id="path5705" class="st3" d="M785.1,805.1c0,1.6-1.2,3-2.6,3c-1.4,0-2.6-1.3-2.6-3c0-1.6,1.2-3,2.6-3
					S785.1,803.5,785.1,805.1z"/>
				<path id="path5707" class="st15" d="M765.3,799l0.6,55.4h1l-0.9,8.2"/>
				<path id="rect7489" class="st2" d="M767,855.8l12.5-0.2l0.2,6.4l-13.5,0.5L767,855.8z"/>
				<path id="path4433" class="st11" d="M778.8,856.4l-12-0.1"/>
				<path id="path4721" class="st3" d="M752.7,856.5c9-2.7,20.7-1.9,30.7-1.8c10,0.1,19.8-0.5,29.7,2.1"/>
				<path id="path5740" class="st2" d="M785.7,855.7l12.5-0.2l0.8,6.7l-14.4,0.4L785.7,855.7z"/>
				<path id="path5709" class="st15" d="M798.3,799.2l0.7,56h-1.1l1,7.1"/>
				<path id="path7723" class="st15" d="M765.9,862.5H799"/>
				<g id="g5711" transform="matrix(0.99999985,5.5340596e-4,-0.00176402,1.0092806,-395.19242,21.135564)">
					<path id="path5713" class="st3" d="M1189.3,831.6l2.1-0.1l0.9,2.7c1,0.5,1.6,2.4,0.9,3.6l0.3,3h-6.1l0.3-3.2
						c-0.9-1.3-0.2-3.2,1.1-3.3L1189.3,831.6z"/>
					<path id="path5715" class="st3" d="M1188.7,834.2l3.5,0.1"/>
					<path id="path5717" class="st3" d="M1187.8,837.5l5.3,0.1"/>
				</g>
				<g id="g5719" transform="matrix(0.99999985,5.5340596e-4,-0.00176402,1.0092806,-424.07194,20.782608)">
					<path id="path5721" class="st3" d="M1196,831.6h2.2l0.5,2.7c1,0.5,1.6,2.4,0.9,3.6l0.3,3l-6.1,0l0.3-3.2
						c-0.9-1.3-0.2-3.2,1.1-3.3L1196,831.6z"/>
					<path id="path5723" class="st3" d="M1195.1,834.2l3.5,0.1"/>
					<path id="path5725" class="st3" d="M1194.2,837.6l5.3,0.1"/>
				</g>
				<path id="path5727" class="st15" d="M770.7,853.1h3v4.6c0,1.2-0.4,2.6-1,3.2l-1.9-0.2L770.7,853.1z"/>
				<path id="path5729" class="st15" d="M774.1,854.8h5.4"/>
				<path id="path5731" class="st15" d="M773.9,857.9c0.9,0.3,1.6-0.1,1.6-0.9l0.1-1.9"/>
				<path id="path5743" class="st15" d="M774,861.6l0.6,3.7"/>
				<polygon id="rect5745" class="st15" points="780.9,855.6 784.2,855.6 784.2,861.1 780.9,861.1 				"/>
				<path id="path5747" class="st15" d="M779.1,855.5l1,6.8"/>
				<path id="path5749" class="st15" d="M785.8,855.5l-0.9,6.7"/>
				<path id="path5751" class="st15" d="M794.4,853l-3.3-0.1v4.6c0,1.2,0.5,2.7,1.2,3.3l2.3-0.1L794.4,853z"/>
				<path id="path5753" class="st15" d="M790.8,857.9c-0.9,0.3-1.6-0.1-1.6-0.9l-0.1-1.9"/>
				<path id="path5755" class="st15" d="M785.5,854.9h5.4"/>
				<path id="path5757" class="st15" d="M778.8,854.9c0.4-0.4,1.5-1.5,2.3-1.4s0.3,2,1.3,2s0.6-1.9,1.4-2s1.7,0.9,2.1,1.3"/>
				<g id="g5759" transform="matrix(0.99999985,5.5340596e-4,-0.00176402,1.0092806,-424.3219,20.52974)">
					<path id="path5761" class="st3" d="M1196.3,828.4c-2.1-0.2-1.9-2.4-1.9-4.1l2,0.1"/>
					<path id="path5763" class="st3" d="M1191.6,825.4h2.7"/>
					<path id="path5765" class="st3" d="M1199,823.8c-0.2-2.1-1.4-3.5-3.1-3.4v3.8"/>
					<path id="path5767" class="st3" d="M1194.6,824.3c-0.1-1.8,0.6-2.9,1.3-3.8"/>
				</g>
				<path id="path5769" class="st15" d="M766.3,858.9l4.2,0.1"/>
				<g id="g5771" transform="matrix(-0.99999985,-5.5340596e-4,-0.00176402,1.0092806,909.03621,21.267628)">
					<path id="path5773" class="st3" d="M113,828.4c-2.1-0.2-1.9-2.4-1.9-4.1l2,0.1"/>
					<path id="path5775" class="st3" d="M108.3,825.4h2.7"/>
					<path id="path5777" class="st3" d="M115.7,823.8c-0.2-2.1-1.4-3.5-3.1-3.4v3.8"/>
					<path id="path5779" class="st3" d="M111.3,824.3c-0.1-1.8,0.6-2.9,1.3-3.8"/>
				</g>
				<path id="path5781" class="st15" d="M794.7,858.7l4.2,0.1"/>
				<path id="path5783" class="st15" d="M782.1,826.9v11.7l0.2,11.3"/>
				<path id="path5785" class="st15" d="M756.7,798.4l0.5,56.3"/>
				<path id="path5787" class="st15" d="M807.8,798.8l0.5,56.3"/>
				<path id="rect5789" class="st15" d="M759.4,812.1h3.6c0.9,0,1.6,0.7,1.6,1.6v6.3c0,0.9-0.7,1.6-1.6,1.6h-3.6
					c-0.9,0-1.6-0.7-1.6-1.6v-6.3C757.7,812.9,758.5,812.1,759.4,812.1z"/>
				<path id="rect5791" class="st15" d="M759.5,832.9h3.6c0.9,0,1.6,0.7,1.6,1.6v6.3c0,0.9-0.7,1.6-1.6,1.6h-3.6
					c-0.9,0-1.6-0.7-1.6-1.6v-6.3C757.9,833.7,758.6,832.9,759.5,832.9z"/>
				<path id="rect5793" class="st15" d="M801.6,832.6h3.6c0.9,0,1.6,0.7,1.6,1.6v6.3c0,0.9-0.7,1.6-1.6,1.6h-3.6
					c-0.9,0-1.6-0.7-1.6-1.6v-6.3C799.9,833.3,800.7,832.6,801.6,832.6z"/>
				<path id="rect5795" class="st15" d="M801.2,811.8h3.6c0.9,0,1.6,0.7,1.6,1.6v6.3c0,0.9-0.7,1.6-1.6,1.6h-3.6
					c-0.9,0-1.6-0.7-1.6-1.6v-6.3C799.6,812.5,800.3,811.8,801.2,811.8z"/>
				<polygon id="rect5797" class="st15" points="787.6,822.9 791.2,822.9 791.1,829.5 787.5,829.5 				"/>
				<path id="rect5799" class="st15" d="M788.3,773.1h2.2c1.3,0,2.4,1.1,2.4,2.4v5.7c0,1.3-1.1,2.4-2.4,2.4h-2.2
					c-1.3,0-2.4-1.1-2.4-2.4v-5.7C785.8,774.2,786.9,773.1,788.3,773.1z"/>
				<path id="rect5801" class="st15" d="M777.1,772.6L777.1,772.6c1.7,0,3.1,1.4,3.1,3.1v4.6c0,1.7-1.4,3.1-3.1,3.1l0,0
					c-1.7,0-3.1-1.4-3.1-3.1v-4.6C774,774,775.4,772.6,777.1,772.6z"/>
				<path id="path5803" class="st15" d="M770,801.8c1.7,0,3.3,1.6,3.4,3.2l0.2,4.6h-7.2v-5.1C766.4,803,768.3,801.8,770,801.8
					L770,801.8z"/>
				<path id="path5805" class="st15" d="M767.7,809.9v1.9h4.4v-2.4"/>
				<path id="path5809" class="st15" d="M752.3,846.9h4.9"/>
				<path id="path5811" class="st15" d="M752.3,834c0.1,5.8,1.4,8.7,4.5,8.9"/>
				<path id="path5813" class="st15" d="M812.6,847h-4.9"/>
				<path id="path5815" class="st15" d="M812.7,834.1c-0.1,5.8-1.4,8.7-4.5,8.8"/>
				<path id="path5817" class="st15" d="M769.2,829.5c0.8-2,3-2,3.5,0.2s1.5,5.8,1.3,9.3h-6.7C767.8,835.6,768.4,831.5,769.2,829.5
					L769.2,829.5z"/>
				<path id="path5819" class="st3" d="M772.5,837.3c0,1-0.7,1.8-1.7,1.8c-0.9,0-1.7-0.8-1.7-1.8s0.7-1.8,1.7-1.8
					C771.7,835.6,772.5,836.3,772.5,837.3z"/>
				<polygon id="rect5821" class="st15" points="769.6,839.3 772.1,839.3 772.1,841.2 769.6,841.2 				"/>
				<polygon id="rect5823" class="st15" points="774.2,833.8 775.4,833.8 775.4,835.5 774.2,835.5 				"/>
				<polygon id="rect5825" class="st15" points="802.2,805.5 804.2,805.5 804.2,809.5 802.2,809.5 				"/>
				<polygon id="rect5827" class="st15" points="810.6,803.9 811.6,803.9 811.6,808.9 810.6,808.9 				"/>
				<polygon id="rect5829" class="st15" points="786.9,799.4 791.5,799.4 791.5,800.4 786.9,800.4 				"/>
				<path id="path5831" class="st3" d="M789.8,803.6c0,0.2-0.2,0.4-0.4,0.4s-0.4-0.2-0.4-0.4s0.2-0.4,0.4-0.4
					C789.6,803.1,789.8,803.3,789.8,803.6z"/>
				<path id="path5833" class="st16" d="M793.5,810.3h-2.4v-5.8c0-1.7,1.3-3,2.9-3h0.4c1.6,0,2.9,1.4,2.9,3v5.8h-1.7"/>
				<path id="path5835" class="st3" d="M795.8,810.4c0,0.6-0.4,1-0.9,1s-0.9-0.4-0.9-1s0.4-1,0.9-1
					C795.3,809.4,795.8,809.9,795.8,810.4z"/>
				<path id="path5837" class="st15" d="M779.9,773.9c1.8-0.2,3.7,0,5.1,0.6"/>
				<path id="path5839" class="st15" d="M780.7,775.8h4.4l-2.5,0.8c-0.1,0.3,0,1.3-1,1.3C780.5,777.9,781,776.3,780.7,775.8
					L780.7,775.8z"/>
				<path id="path5841" class="st15" d="M780.4,782.2l4.6-0.8l-2.3-0.4c-0.1-0.3-0.4-1.1-1.3-1C780.6,780.2,780.7,781.7,780.4,782.2
					L780.4,782.2z"/>
				<path id="path5843" class="st15" d="M809.1,772.6v24.7"/>
				<g id="g5742" transform="translate(108.60038,-16)">
					<path id="rect4386" class="st15" d="M672,422.8h3.1v6.2l0.9,10.2h1.3v1.7l-7.7,0.1v-1.7h1.2l1.2-10.4V422.8z"/>
					<path id="path4318" class="st15" d="M672.4,426h2.4"/>
					<path id="path4320" class="st15" d="M672,429.2h2.9"/>
					<path id="path4323" class="st15" d="M671.1,437.6h4.5"/>
					<path id="path4325" class="st15" d="M670.9,439.2h4.7"/>
					
						<rect id="rect4423" x="670.3" y="418.3" transform="matrix(-2.261615e-02 0.9997 -0.9997 -2.261615e-02 1107.9248 -244.3283)" class="st17" width="6.1" height="2.2"/>
				</g>
				<path id="path4449" class="st11" d="M797.8,856.5l-12-0.1"/>
			</g>
			<g id="layer8" transform="translate(-59.029987,-2.0355165)">
				<path id="path4188" class="st15" d="M756.6,698.6c13.8-1.4,37.5-2.4,51.6,0.7"/>
				<path id="path4190" class="st15" d="M755,712.6c14.4-2.2,40.5-1.8,54.2-0.7"/>
				<path id="path4285" class="st15" d="M754.6,717.2c15.4-3,41.7-2.1,55-0.6"/>
				<path id="path4299" class="st18" d="M768.6,697.9l-0.5,13.5"/>
				<g id="g4685" transform="translate(0.90004482,0)">
					<path id="path4287" class="st19" d="M752.5,743.5c15.3-5.5,42.8-3.7,57-0.3"/>
					<path id="path4307" class="st19" d="M788.4,715.5l0.6,24.3"/>
					<path id="path4309" class="st19" d="M764.6,741l-0.3,24.5"/>
				</g>
				<path id="path5693" class="st15" d="M752.6,766.7h59"/>
				<path id="path4252" class="st15" d="M756.8,693c14.4-1.5,37.1-2.4,50.3,0.2"/>
				<g id="g4705" transform="translate(0.90004482,0)">
					<path id="path4186" class="st19" d="M757.5,664.5c15.9-1.9,34.2-2.3,47.8-0.4"/>
					<path id="path4250" class="st19" d="M759.1,635c14-1.7,31.3-1.5,45,0.5"/>
					<path id="path4254" class="st19" d="M761.1,606.4c12.4-3.3,31-3.4,40.8-0.8"/>
					<g id="g4258" transform="matrix(0.99999985,5.5340596e-4,-0.00176402,1.0092806,82.947131,-15.690076)">
						<path id="path4256" class="st10" d="M680.7,586.8c10.8-2.6,27-2.7,37.9-0.4"/>
					</g>
					<g id="g4261" transform="matrix(0.99999985,5.5340596e-4,-0.00176402,1.0092806,82.819744,-55.942554)">
						<path id="path4263" class="st10" d="M681.9,596.9c10.3-2.6,25.4-2.5,35-0.2"/>
					</g>
					<path id="path4295" class="st19" d="M770.8,576.3l-1.2,27.6"/>
					<path id="path4297" class="st19" d="M769.6,633.8l-1.3,29.1"/>
					<path id="path4311" class="st19" d="M787.6,663.5l0.6,27.4"/>
					<path id="path4313" class="st19" d="M788.9,604.6l0.7,29.4"/>
					<path id="path4317" class="st19" d="M787.9,545.7l1.1,29.6"/>
					<g id="g4904" transform="matrix(0.99999985,5.5340596e-4,-0.00176402,1.0092806,83.250692,-91.431591)">
						<path id="path4906" class="st10" d="M683.2,605.6c9.3-1.2,22.3-1.7,31.6-0.6"/>
					</g>
				</g>
				<g id="g4679" transform="translate(0.90004482,0)">
					<g id="g4269" transform="matrix(0.99999985,5.5340596e-4,-0.00176402,1.0092806,84.34428,-132.85926)">
						<path id="path4271" class="st10" d="M684.5,616.7c8.2-1.7,18.7-1.5,26.6,0.2"/>
					</g>
					<g id="g4281" transform="matrix(0.99999985,5.5340596e-4,-0.00176402,1.0092806,83.520481,-157.13639)">
						<path id="path4283" class="st10" d="M687.7,622.6l21.9,0.1"/>
					</g>
				</g>
			</g>
			<g id="layer3" transform="translate(-59.029987,-2.0355165)">
				<polygon id="rect5288" class="st2" points="807.7,395.3 790.2,395.2 791,247.5 808.5,247.6 				"/>
				<path id="rect5300" class="st2" d="M782.1,78.4l21.7,137.1l-39.5-0.6L782.1,78.4z"/>
				<polygon id="rect5307" class="st2" points="811.1,241.9 787.8,241.7 788,215.8 811.3,216 				"/>
				<polygon id="rect5319" class="st2" points="813.7,247.7 791.5,247.5 791.5,241.8 813.7,242 				"/>
				<path id="path5323" class="st2" d="M817.4,424.4l19.1,86.7l-28.9-0.1l7.5-86.4L817.4,424.4z"/>
				<path id="rect5327" class="st2" d="M807.6,513l11.3-1l22,264.2c-4.3,15.7-13.5,23.5-27.9,26.8l-5.8-138.7L807.6,513z"/>
				<path id="path5353" class="st2" d="M766.7,502.6l7.4-0.1l0.3,161.7l-17.4,0.2l2.7-46.3L766.7,502.6z"/>
				<path id="path5365" class="st2" d="M756.8,664.3l19.7-0.2L772,770.2c-3.5,14-9.3,24.7-20.6,27
					C750.2,761.8,755.3,699.8,756.8,664.3z"/>
				<path id="path5369" class="st2" d="M829.6,512.3l41.6,259.5l-26.8,1.9l-22.6-261.2L829.6,512.3z"/>
				<path id="path5373" class="st2" d="M726.9,509.2L748,509l-19.1,128.7l-17.7-1.4L726.9,509.2z"/>
				<path id="path5377" class="st2" d="M706.9,664.8l24.2,1.4L718.9,774c-6.1,12.3-10.6,22.9-25.2,23.5L706.9,664.8z"/>
				<path id="rect5381" class="st2" d="M707,664.9l4.3-28.6l17.5,1.3l-3.3,28.1L707,664.9z"/>
				<path id="path5392" class="st2" d="M795.5,507.1l15.3,257.4l-16.2,1.9l-6.9-259.2L795.5,507.1z"/>
				<path id="path5396" class="st2" d="M801.1,510.9l19.9-86.5l-28.9,0.1l6.4,86.7L801.1,510.9z"/>
				<path id="path5400" class="st2" d="M809.4,228.3l-1.1,10.8l-0.5,8.8l4.1,0.1L809.4,228.3z"/>
				<path id="path5404" class="st2" d="M813.6,442.8l6.3,68.8l-11.7,0.7l1.2-26.8L813.6,442.8z"/>
				<path id="path5416" class="st2" d="M778.1,425.1l3.6,0.5l-3.9,76h-11.3L778.1,425.1z"/>
				<path id="path5420" class="st2" d="M785.2,424.8l11.7,77l-16.5-1.9l0.9-74.8L785.2,424.8z"/>
				<path id="path5424" class="st2" d="M765.1,272.9l1.2-14.1l-5.1-4.3c3.7-1.7,9.9-3.7,14.1-4.5l-1.3,25l2,0.6l2.7,121.1l-16.6,0.1
					l0.3-49L765.1,272.9z"/>
				<path id="path5428" class="st2" d="M752.3,256.2l6.5,0.5l-4.1,4.7l2.9,7l-1.8,126.3l-6.7,1.4l1.4-50.2L752.3,256.2z"/>
				<path id="path5432" class="st2" d="M744.7,425.1l3.6,0.5l-9,82.7l-11-0.9L744.7,425.1z"/>
				<path id="path5436" class="st2" d="M750.9,423.3l5.4,83.4h-13.9l5.4-67.8L750.9,423.3z"/>
				<path id="path5440" class="st2" d="M768.2,481.6l4.2-22.1l-1-62.3h-11.3L768.2,481.6z"/>
				<path id="path5444" class="st2" d="M757.6,503l4.8,0.1l-0.5-7.4l-6.8-98.8l-6-0.6l1.1,8.6c2.5,6.4,2.4,13.3,0,18.5L757.6,503z"
					/>
				<path id="rect5448" class="st2" d="M758,268.9l5.8-1.7c-1.7-3.6-0.8-6.9,1.3-8.3l0.5,6.3c-0.1,1.8,0.1,4.1-0.8,5.5l-3.5,128.1
					l-5.7-0.6L758,268.9z"/>
				<path id="rect5463" class="st2" d="M718.6,856.3l-10.4-0.6l-1.6,5.6h12.9L718.6,856.3z"/>
				<path id="rect5496" class="st20" d="M757.2,215.8c16.7,6.7,20.4,15.1,24.1,31.5l-29.2,0.2l2.6-20.3L757.2,215.8z"/>
				<path id="path6538" class="st2" d="M752,259.2c7-3.9,11.4-6.7,29.8-10.8l-30-0.2L752,259.2z"/>
				<polygon id="rect6542" class="st2" points="806.7,854.2 796.4,854.1 796.7,798.8 807,798.9 				"/>
				<polygon id="rect6562" class="st2" points="778.3,854.4 755.4,854.2 755.7,798.6 778.6,798.8 				"/>
				<polygon id="rect6574" class="st2" points="717,799.8 694.1,797.8 689.5,852.5 712.3,854.4 				"/>
				<path id="rect6590" class="st2" d="M690.1,824.2l-1.7,26.3l-25.7-2.8l24.6-17.7L690.1,824.2z"/>
				<path id="rect6611" class="st2" d="M752.2,803.8l-16.8-0.9l-2.8,53.7l16.4,0.1L752.2,803.8z"/>
				<path id="rect6620" class="st2" d="M759.4,257c2.3-0.3,3.5-0.5,5.3,1.2c-2.2,2.6-3.2,5.7-1.8,8.4l-5,1.5
					C753.4,266.7,757.3,258.5,759.4,257z"/>
				<path id="rect6824" class="st2" d="M706.4,862h14c0.3,0,0.5,0.2,0.5,0.5v2c0,0.3-0.2,0.5-0.5,0.5h-14c-0.3,0-0.5-0.2-0.5-0.5v-2
					C705.9,862.2,706.1,862,706.4,862z"/>
				<path id="rect6846" class="st2" d="M722.7,862.6h16.2c0.2,0,0.4,0.2,0.4,0.4v1.8c0,0.2-0.2,0.4-0.4,0.4h-16.3
					c-0.2,0-0.4-0.2-0.4-0.4V863C722.3,862.7,722.5,862.6,722.7,862.6z"/>
				<path id="path6860" class="st2" d="M736.8,857.5l-11.5-0.6l-1.7,5.1h14L736.8,857.5z"/>
				<path id="path6866" class="st2" d="M856.8,856.6l-10.5,0.6l-1.3,4.9l13.2-0.3L856.8,856.6z"/>
				<path id="path6870" class="st2" d="M839.7,857.6l-11.7,0.7l-1,4.5l14-0.1L839.7,857.6z"/>
				<path id="rect6874" class="st2" d="M826,863.4h15.7c0.2,0,0.4,0.2,0.4,0.4v1.8c0,0.2-0.2,0.4-0.4,0.4H826
					c-0.2,0-0.4-0.2-0.4-0.4v-1.8C825.6,863.6,825.8,863.4,826,863.4z"/>
				<path id="rect6878" class="st2" d="M844.6,862.5h14c0.3,0,0.5,0.2,0.5,0.5v2.2c0,0.3-0.2,0.5-0.5,0.5h-14
					c-0.3,0-0.5-0.2-0.5-0.5V863C844.1,862.7,844.3,862.5,844.6,862.5z"/>
				<path id="rect4499" class="st2" d="M766.8,297.5l31.7,0.3l-1.6,1.2h-30.1V297.5z"/>
				<path id="path4512" class="st2" d="M766.8,325.4l31.6-0.1l-1.1,1.8l-30.5-0.1V325.4z"/>
				<path id="path4516" class="st2" d="M771.6,352.3h22l-2.4,1.6h-19.6V352.3z"/>
				<path id="rect4520" class="st2" d="M765.6,277.3l1.3-2.1l-0.1,23.9h-1.4L765.6,277.3z"/>
				<path id="path4590" class="st2" d="M765.6,305.2l1.3-2.1l-0.1,23.9h-1.4L765.6,305.2z"/>
				<path id="path4594" class="st2" d="M770.5,338.9l1.3-1.4l-0.1,16.3h-1.4L770.5,338.9z"/>
				<path id="rect4598" class="st2" d="M749.1,275.9h2.8l-0.6,21.6l-2.4-0.3l0.1-5.5l-0.9-0.1v-9.5l1.3-0.3L749.1,275.9z"/>
				<path id="path4602" class="st2" d="M748.7,304h2.8l-0.6,21.6l-2.4-0.3l0.1-5.5l-0.9-0.1v-9.5l1.3-0.3L748.7,304z"/>
				<path id="path4604" class="st2" d="M748.2,338h2.4l-0.5,14H748l-0.1-2.8l-0.9-0.1v-9.5l1.3-0.3L748.2,338z"/>
				<path id="rect4606" class="st2" d="M782.1,79.3l0.3,23.2l-9.9,113.4l-14.7-0.2L782.1,79.3z"/>
				<path id="path4619" class="st2" d="M757.8,215.3l16.3,1.2l-5.7,30.6l-16.4,0.4l2.8-21.2L757.8,215.3z"/>
				<path id="path4623" class="st2" d="M782.8,226.5l-4,11.5l-0.5,8.8c1.4,0,1.4,2.7,4.1,0.1L782.8,226.5z"/>
				<path id="rect6210" class="st2" d="M778.4,312l3.2-1.1c-0.2,0.4-0.4,0.7-0.5,1.1v6.9c0.2,0.9,0.6,1.4,1.6,1.5l-1.6,0.9l-2.9,0.7
					L778.4,312z"/>
				<path id="path6999" class="st2" d="M778.3,283.5l3.2-1.1c-0.2,0.4-0.4,0.7-0.5,1.1v6.9c0.2,0.9,0.6,1.4,1.6,1.5l-1.6,0.9
					l-2.9,0.7L778.3,283.5z"/>
				<path id="path7003" class="st2" d="M778.4,256.1l3.2-1.1c-0.2,0.4-0.4,0.7-0.5,1.1v7h1.7l-4.4,3V256.1z"/>
				<path id="path7007" class="st2" d="M778.4,341.5l3.2-1.1c-0.2,0.4-0.4,0.7-0.5,1.1v6.9c0.2,0.9,0.6,1.4,1.6,1.5l-1.6,0.9
					l-2.9,0.7L778.4,341.5z"/>
				<path id="rect7011" class="st2" d="M754,227.2l-2.4,20l-2.5-3.4L754,227.2z"/>
			</g>
		</g>
		<g id="layer1_00000140007628273627506100000006793785863417833134_" transform="translate(-64.994 -287.33)">
			<path id="path3638" class="st21" d="M533,1100.9c0,5.1-4.1,9.2-9.2,9.2c-5.1,0-9.2-4.1-9.2-9.2s4.1-9.2,9.2-9.2
				C528.9,1091.7,533,1095.8,533,1100.9z"/>
		</g>
		<g id="layer2_00000081620343750763749310000002701246992517618578_" transform="translate(-64.994 -287.33)">
			<path id="path4150" class="st22" d="M520.5,1092.5c0-0.1-0.3-0.4-0.3-0.4l-1.9,0.2c-1.3,1.3-2.6,2.7-3.9,4l-0.1,0.5
				c-10.9,13-17.8,20.3-32.4,39.4l0.2,0.2c10.3-13.8,33.1-39.3,33.1-39.3s0.2,0.1,0.2,0l3.4-3.5L520.5,1092.5L520.5,1092.5z"/>
			<path id="path4174_00000054256899922530395490000003284427500057616791_" class="st22" d="M515.6,1104.7c0,0-10.6,31.9-13.6,42.4
				l0.4,0.1c1.3-5.4,13.4-40.3,13.4-40.3l0.2,0.1l0.5-1.7c-0.2-0.1-0.5-0.5-0.5-0.7L515.6,1104.7L515.6,1104.7z"/>
			<path id="path4176" class="st22" d="M529.4,1094.2l0.4,1.3l0.2,0.1l0.4,1.4h-0.2l0.4,2.2c0,0,23.9,38.8,29.5,49.4l0.3-0.2
				c-3-5.8-29-49.2-29-49.2v-0.7l-1.1-3.5L529.4,1094.2L529.4,1094.2z"/>
			<path id="path4178" class="st22" d="M529.8,1106.8c0,0,11.1,28.2,15.2,40.9l0.7,1.6h0.3l-0.1-0.3c-0.5-1.4-15.2-43.2-15.2-43.2
				C530.6,1106.1,530.4,1106.4,529.8,1106.8L529.8,1106.8z"/>
		</g>
		<g id="Capa_8">
		</g>
		<g id="Capa_2_00000106134386737390259590000013957161018487999143_">
		</g>
		<g id="Capa_3">
		</g>
		<g id="Capa_4">
		</g>
		<g id="Capa_6">
		</g>
		<g id="Capa_7">
		</g>
		<g id="Capa_10">
			<text transform="matrix(1 0 0 1 63.5777 807.2259)" class="st23 st24 st25">2,9 metros</text>
			<text transform="matrix(1 0 0 1 145.723 81.969)" class="st23 st24 st25">31,07 metros </text>
			<text transform="matrix(1 0 0 1 716.3238 911.1687)" class="st23 st24 st25">R-7</text>
			<text transform="matrix(1 0 0 1 411.7107 911.1686)" class="st23 st24 st25">Sputnik-1</text>
		</g>
		<g id="Capa_2_00000020373281066464888610000000260007390292057249_">
		</g>
		<line class="st26" x1="185.2" y1="802" x2="444.2" y2="802"/>
		<line class="st26" x1="296.5" y1="76.4" x2="711.3" y2="76.4"/>
	</g>
	<g id="Capa_2_00000173841752459646419660000000211821492445595314_">
	</g>
</g>
<g id="Capa_3_00000009559320105367779870000007601750432640404393_">
	<path class="st23" d="M323.7,830.1c-0.1-0.4-0.2-0.4-0.2-0.5s0-0.3-0.1-0.5c-0.1-0.1-0.1-0.2-0.2-0.4c-0.1-0.3-0.3-0.5-0.2-0.7
		c-0.1-0.3-0.2-0.4-0.2-0.4s0-0.3-0.1-0.5c-0.2-0.6-0.4-1.6-0.5-1.8c-0.4-0.9-0.7-1.7-0.9-2.1c-0.1-0.2-0.2-0.4-0.2-0.5
		c-0.1-0.2-0.1-0.2-0.4-0.4c-1.4-0.5-3.1-1.1-3.1-1.1s-0.2-0.2-0.6-0.4c-0.3-0.2-0.5-0.4-0.7-0.5c0,0,0-0.1,0-0.1
		c0.1-0.6,0.1-1.1,0.1-1.3c0,0,0.3,0,0.4-0.1c0.3-0.1,0.5-0.6,0.5-0.6s0,0,0,0c0-0.1-0.1-0.2,0-0.3c0-0.2,0.2-0.4,0.2-0.5
		c0,0,0.2,0,0.2,0c0,0,0,0,0,0c0-0.1-0.3,0.1-0.3,0c0-0.1-0.3-0.3-0.3-0.3h0c0,0,0-0.4-0.1-0.5c0-0.1,0.2-0.3,0-0.9
		c-0.1-0.2-0.3-0.8-1.1-1.3c-0.8-0.9-1.3-0.7-1.5-0.8c-0.1,0-0.3-0.1-0.6-0.1c-0.3,0,0.1,0.2,0,0.2c-0.1,0,0.1-0.2-0.3,0.2v0
		c-1.2,0-0.9,0.2-1.2,0.5c-0.1,0.3-0.3,0.7-0.3,0.7s-0.4,0.1-0.4,1.1c-0.3,0.4-0.2,0.8,0,1.3c0,0,0,0,0,0.1c0.1,0.1,0.2,0.1,0.3,0.2
		c0,0.2,0,0.4,0,0.5c0,0.1,0.1,0.2,0.2,0.4c0.1,0,0.1-0.1,0.1,0c0,0.1,0.3,0.9,0.6,1.3h0c0,0,0,0,0,0c-0.5,0.6-0.5,0.7-0.5,0.8
		c-0.5,0.3-0.6,0.5-0.6,0.6s-0.2,0.2-0.2,0.2s-0.6,0.2-1.3,0.5c-1.4,0.6-1.6,0.7-1.7,0.8c-0.1,0.1-0.3,0.7-0.4,1.2
		c-0.3,1.4-0.3,1.9-0.4,2.5c-0.2,2-0.3,2.9-0.3,3.3c-0.3,0.5-0.4,0.5-0.3,1c0,0.7,0,0.9,0.1,1.2c0.2,0.7,0.3,0.7,0.7,1
		c0.4,0.2,0.4,0.1,0.6,0.2c0.1,0,0.4,0,0.6,0.1c0.4,0.2,0.6,0.1,0.7,0.1c0.1,0,0.2,0.1,0.2,0.1l0-0.1l0-0.2h-0.1c0,0,0,0.3,0,0.4
		c0,0.1-0.2,0.8-0.3,1c0,0.2-0.1,0.6-0.2,0.9c-0.1,0.3-0.1,0.5-0.1,0.6c0,0.1-0.1,0.3-0.1,0.5c-0.2,0.5-0.2,0.7-0.2,0.9
		c0,0.1-0.1,0.6-0.2,0.7c0,0.1,0,0.1,0,0.3c0,0.2,0,0.6,0,0.6s-0.1,0.8-0.1,0.9c0.4,0.2,0.6,0.2,0.6,0.2s0,0,0,0c0,0,0,0.1,0,0.2
		c0,0.2,0,0.1-0.1,0.5c0,0.4,0,0.4-0.1,0.7s0,0.1,0,0.7s-0.1,0.4-0.1,0.8c0.1,0.4,0.1,0.5,0.2,1.2s0.3,1.7,0.4,2.5
		c0.1,0.7,0.2,0.9,0.2,1.4s0.2,1.1,0.2,1.8c0,0.7-0.1,0.8,0,1.3c0,0.5,0,0.5,0,0.7c0,0.2,0,0.6-0.1,1s-0.1,0.3-0.1,0.6
		c0,0.2,0,0.2,0.1,0.4c0,0.2,0,0.2,0.1,0.4c0,0.2,0,0.2,0,0.3c0,0.1,0,0.1,0.1,0.3c0,0.2,0,0.2,0,0.8c0,0.6,0.1,2.6,0.1,3.3
		c0,0.7,0.1,1.1,0,1.5c-0.1,0.4,0,0.6,0,0.8c0,0.2,0,0.1,0.1,0.4s0.1,0.2,0.1,0.5c-0.1,0.2-0.2,0.3-0.2,0.4c0,0.2-0.1,0.2,0,0.4
		c0,0.2,0,0.1,0,0.2c0,0.1-0.1,0.2,0,0.2c0.1,0,0,0,0.1,0c0,0,0,0.1-0.1,0.1c-0.1,0.1-0.1,0.1-0.1,0.2s0,0.1-0.1,0.2
		c-0.2,0.2-0.1,0.1-0.3,0.3c-0.1,0.2-0.2,0.3-0.3,0.4c-0.2,0.1-0.4,0.4-0.6,0.6c-0.2,0.2-0.3,0.3-0.4,0.3c-0.1,0.1-0.2,0.1-0.3,0.2
		c-0.1,0.1-0.2,0.2-0.3,0.4c0,0,0,0-0.1,0.1c0,0-0.1,0-0.1,0.1s0,0.2,0,0.2c0.1,0.1,0.5,0.1,0.7,0.2s0.8,0,1.2,0
		c0.4-0.1,1.4-0.3,1.6-0.4c0.2-0.2,0.3-0.3,0.3-0.4s0.1-0.3,0.3-0.3s0.1,0,0.1,0l0.3,0.2c0,0,0.4-0.1,0.8-0.2
		c0.3-0.1,0.4-0.1,0.5-0.3c0-0.1,0-0.7,0-0.9c0-0.1,0-0.1-0.1-0.2c0,0,0,0,0,0c0.1,0,0-0.1,0.1-0.2c0.1-0.2,0.1,0,0.1-0.5
		c0-0.5-0.1-0.4-0.1-0.8c0-0.3,0.1-0.2,0.1-0.4c0-0.2,0.1-0.2,0.1-0.3c0-0.1,0.1-0.4,0.1-1.8s-0.1-1.6-0.1-2.3c0-0.7,0.1-1.5,0.1-2
		c0-0.5,0.1-0.6,0-0.9c-0.1-0.3-0.1-0.3-0.1-0.6c0-0.3,0-0.4,0-0.6c0-0.2-0.1-1,0-1.2c0-0.3,0.1-0.2,0.1-0.4c0-0.2,0.1-0.5,0.1-0.5
		l0.1-0.4c0,0,0.1-1,0.1-1.4c0-0.4,0-0.7,0.1-1c0.1-0.3,0.2-0.3,0.2-0.5c0-0.2,0-0.5,0-0.5s0-0.7,0.1-1c0.1-0.3,0.1-0.3,0.2-0.6
		c0.1-0.3,0.2-1,0.3-1.3c0.1-0.3,0.1-0.4,0.1-0.6c0-0.1,0-0.2,0.1-0.1s0.1,0.1,0.1,0.3c0,0.2,0,0.4,0.1,0.6c0.1,0.2,0.1,0.2,0.1,0.4
		s0.2,1.1,0.3,1.4s0.4,1.4,0.6,1.9c0.2,0.5,0.2,0.6,0.3,1c0.1,0.4,0.2,0.9,0.3,1.2c0.1,0.4,0.2,1.1,0.2,1.2c0,0.2,0.1,0.3,0.1,0.5
		c0,0.2,0,0.2,0,0.2s0-0.1,0,0.4c0,0.4-0.1,0.6,0,1c0,0.4,0,0.8,0,1.3c0,0.5,0,0.6,0,1.2c0,0.6,0,0.8,0.1,1.9
		c0.1,1.1,0.1,1.6,0.1,2.1s-0.1,0.7,0,1c0,0.3,0,0.3,0.2,0.6s0.2,0.2,0.2,0.5s-0.1,0.2,0,0.4c0.1,0.2,0.3,0.4,0.4,0.6
		c0.1,0.2,0,0.3,0.2,0.4c0,0,0,0,0,0c0,0,0,0.1,0,0.1c0,0.1,0,0.8,0,0.8c0,0.1,0,0.1,0.1,0.2c0.1,0.1,0.3,0.2,0.4,0.2
		c0.1,0,0.3,0,0.3,0c0,0,0,0,0,0.1c0,0.1-0.1,0.2-0.1,0.3c0,0.1,0,0.3,0.1,0.5s0.8,0.4,1.1,0.5s1,0,1.3,0s0.4-0.1,0.5-0.2
		c0.1-0.1,0-0.2,0-0.3c0-0.1-0.1-0.5-0.1-0.6c0-0.1,0-0.2-0.1-0.4s-0.4-0.5-0.5-0.7c-0.1-0.2-0.3-0.7-0.4-0.8c0-0.1,0-0.1,0-0.2
		c0,0,0,0,0,0.1c0,0.1,0.1,0.1,0.1-0.1c0-0.2,0.1-0.2,0.1-0.4c0-0.2,0.1-0.1,0-0.3c-0.1-0.3,0-0.8-0.1-1.1c-0.1-0.3-0.3-0.2-0.2-0.6
		c0.1-0.4,0.2-0.6,0.2-1c0-0.4,0-1.5,0-2.6c0-1.1,0-2.6,0-2.9c0-0.4,0-0.5-0.1-0.8c-0.1-0.3-0.1-0.4-0.1-0.7c0-0.3-0.1-1.5-0.1-2.1
		s0-1.1,0-1.5c0.1-0.4,0.2-1.2,0.2-1.7c0-0.5,0-1.4,0-1.7s0.1-1,0-1.4c0-0.4-0.1-0.9-0.1-1.1c0-0.2-0.1-0.8-0.1-1.2
		s-0.1-0.6-0.1-0.9s-0.1-0.6-0.1-0.8c-0.1-0.2-0.1-0.3-0.1-0.5c0,0,0-0.1,0-0.1c0.3-0.1,0.6-0.2,0.6-0.2l0.3-0.2l0-0.1
		c0,0,0.1,0,0.1,0c-0.2-0.8-0.4-2-0.3-2.4c-0.6-1.9-0.8-2.9-0.8-3.7c-0.1,0-0.1,0-0.1,0s-0.2-0.9-0.1-1.2c1.8,0,3.2,0.4,3.6,0
		C323.9,831.9,323.9,831.2,323.7,830.1z"/>
</g>
</svg>
